<mxfile host="app.diagrams.net" agent="Mozilla/5.0 (Windows NT 10.0; Win64; x64) AppleWebKit/537.36 (KHTML, like Gecko) Chrome/134.0.0.0 Safari/537.36" version="26.2.2">
  <diagram name="Trang-1" id="eQJFrjU64vk5I3JVm9Mf">
    <mxGraphModel dx="1965" dy="696" grid="0" gridSize="9" guides="1" tooltips="1" connect="1" arrows="1" fold="1" page="0" pageScale="1" pageWidth="827" pageHeight="1169" math="0" shadow="0">
      <root>
        <mxCell id="0" />
        <mxCell id="1" parent="0" />
        <mxCell id="S_xRD3oOY3vlIQlQ7VF_-1" value="Admin" style="shape=umlActor;verticalLabelPosition=bottom;verticalAlign=top;html=1;" vertex="1" parent="1">
          <mxGeometry x="60" y="170" width="30" height="60" as="geometry" />
        </mxCell>
        <mxCell id="S_xRD3oOY3vlIQlQ7VF_-2" value="UC2: Tạo tài khoản người dùng" style="ellipse;whiteSpace=wrap;html=1;" vertex="1" parent="1">
          <mxGeometry x="240" y="80" width="140" height="70" as="geometry" />
        </mxCell>
        <mxCell id="S_xRD3oOY3vlIQlQ7VF_-3" value="UC3: Thêm sản phẩm mới vào danh mục" style="ellipse;whiteSpace=wrap;html=1;" vertex="1" parent="1">
          <mxGeometry x="240" y="200" width="140" height="70" as="geometry" />
        </mxCell>
        <mxCell id="S_xRD3oOY3vlIQlQ7VF_-4" value="UC4: Cập nhật thông tin người dùng" style="ellipse;whiteSpace=wrap;html=1;" vertex="1" parent="1">
          <mxGeometry x="240" y="420" width="140" height="70" as="geometry" />
        </mxCell>
        <mxCell id="S_xRD3oOY3vlIQlQ7VF_-5" value="UC1: Đăng nhập" style="ellipse;whiteSpace=wrap;html=1;" vertex="1" parent="1">
          <mxGeometry x="590" y="320" width="140" height="70" as="geometry" />
        </mxCell>
        <mxCell id="S_xRD3oOY3vlIQlQ7VF_-6" value="UC5: Thanh toán" style="ellipse;whiteSpace=wrap;html=1;" vertex="1" parent="1">
          <mxGeometry x="230" y="560" width="140" height="70" as="geometry" />
        </mxCell>
        <mxCell id="S_xRD3oOY3vlIQlQ7VF_-7" value="UC6: Tạo đơn hàng mới" style="ellipse;whiteSpace=wrap;html=1;" vertex="1" parent="1">
          <mxGeometry x="550" y="550" width="140" height="70" as="geometry" />
        </mxCell>
        <mxCell id="S_xRD3oOY3vlIQlQ7VF_-8" value="User" style="shape=umlActor;verticalLabelPosition=bottom;verticalAlign=top;html=1;" vertex="1" parent="1">
          <mxGeometry x="45" y="425" width="40" height="60" as="geometry" />
        </mxCell>
        <mxCell id="S_xRD3oOY3vlIQlQ7VF_-9" value="UC7: Xem và&amp;nbsp;&lt;div&gt;cập nhật sản phẩm&lt;/div&gt;&lt;div&gt;&amp;nbsp;vào đơn hàng&lt;/div&gt;" style="ellipse;whiteSpace=wrap;html=1;" vertex="1" parent="1">
          <mxGeometry x="300" y="710" width="140" height="70" as="geometry" />
        </mxCell>
        <mxCell id="S_xRD3oOY3vlIQlQ7VF_-10" value="UC8: Tính tổng số tiền" style="ellipse;whiteSpace=wrap;html=1;" vertex="1" parent="1">
          <mxGeometry x="490" y="680" width="140" height="70" as="geometry" />
        </mxCell>
        <mxCell id="S_xRD3oOY3vlIQlQ7VF_-13" value="UC9&lt;span style=&quot;background-color: transparent; color: light-dark(rgb(0, 0, 0), rgb(255, 255, 255));&quot;&gt;: Xuất/Nhập hàng&lt;/span&gt;" style="ellipse;whiteSpace=wrap;html=1;" vertex="1" parent="1">
          <mxGeometry x="240" y="320" width="140" height="70" as="geometry" />
        </mxCell>
        <mxCell id="S_xRD3oOY3vlIQlQ7VF_-34" value="&amp;lt;&amp;lt;incl&lt;span style=&quot;background-color: light-dark(#ffffff, var(--ge-dark-color, #121212)); color: light-dark(rgb(0, 0, 0), rgb(255, 255, 255));&quot;&gt;ude&amp;gt;&amp;gt;&lt;/span&gt;" style="endArrow=open;endSize=12;dashed=1;html=1;rounded=0;exitX=1;exitY=0.5;exitDx=0;exitDy=0;" edge="1" parent="1" source="S_xRD3oOY3vlIQlQ7VF_-13" target="S_xRD3oOY3vlIQlQ7VF_-5">
          <mxGeometry width="160" relative="1" as="geometry">
            <mxPoint x="440" y="400" as="sourcePoint" />
            <mxPoint x="600" y="400" as="targetPoint" />
          </mxGeometry>
        </mxCell>
        <mxCell id="S_xRD3oOY3vlIQlQ7VF_-35" value="&amp;lt;&amp;lt;incl&lt;span style=&quot;background-color: light-dark(#ffffff, var(--ge-dark-color, #121212)); color: light-dark(rgb(0, 0, 0), rgb(255, 255, 255));&quot;&gt;ude&amp;gt;&amp;gt;&lt;/span&gt;" style="endArrow=open;endSize=12;dashed=1;html=1;rounded=0;exitX=1;exitY=0.5;exitDx=0;exitDy=0;entryX=0.247;entryY=0.135;entryDx=0;entryDy=0;entryPerimeter=0;" edge="1" parent="1" target="S_xRD3oOY3vlIQlQ7VF_-5">
          <mxGeometry width="160" relative="1" as="geometry">
            <mxPoint x="380" y="235" as="sourcePoint" />
            <mxPoint x="500" y="175" as="targetPoint" />
          </mxGeometry>
        </mxCell>
        <mxCell id="S_xRD3oOY3vlIQlQ7VF_-36" value="&amp;lt;&amp;lt;incl&lt;span style=&quot;background-color: light-dark(#ffffff, var(--ge-dark-color, #121212)); color: light-dark(rgb(0, 0, 0), rgb(255, 255, 255));&quot;&gt;ude&amp;gt;&amp;gt;&lt;/span&gt;" style="endArrow=open;endSize=12;dashed=1;html=1;rounded=0;entryX=0.5;entryY=1;entryDx=0;entryDy=0;" edge="1" parent="1" source="S_xRD3oOY3vlIQlQ7VF_-6" target="S_xRD3oOY3vlIQlQ7VF_-5">
          <mxGeometry width="160" relative="1" as="geometry">
            <mxPoint x="370" y="560" as="sourcePoint" />
            <mxPoint x="490" y="500" as="targetPoint" />
          </mxGeometry>
        </mxCell>
        <mxCell id="S_xRD3oOY3vlIQlQ7VF_-37" value="&amp;lt;&amp;lt;incl&lt;span style=&quot;background-color: light-dark(#ffffff, var(--ge-dark-color, #121212)); color: light-dark(rgb(0, 0, 0), rgb(255, 255, 255));&quot;&gt;ude&amp;gt;&amp;gt;&lt;/span&gt;" style="endArrow=open;endSize=12;dashed=1;html=1;rounded=0;exitX=1;exitY=0.5;exitDx=0;exitDy=0;entryX=0.265;entryY=0.905;entryDx=0;entryDy=0;entryPerimeter=0;" edge="1" parent="1" source="S_xRD3oOY3vlIQlQ7VF_-4" target="S_xRD3oOY3vlIQlQ7VF_-5">
          <mxGeometry width="160" relative="1" as="geometry">
            <mxPoint x="380" y="450" as="sourcePoint" />
            <mxPoint x="500" y="390" as="targetPoint" />
          </mxGeometry>
        </mxCell>
        <mxCell id="S_xRD3oOY3vlIQlQ7VF_-38" value="&amp;lt;&amp;lt;incl&lt;span style=&quot;background-color: light-dark(#ffffff, var(--ge-dark-color, #121212)); color: light-dark(rgb(0, 0, 0), rgb(255, 255, 255));&quot;&gt;ude&amp;gt;&amp;gt;&lt;/span&gt;" style="endArrow=open;endSize=12;dashed=1;html=1;rounded=0;exitX=1;exitY=0.5;exitDx=0;exitDy=0;entryX=0.5;entryY=0;entryDx=0;entryDy=0;" edge="1" parent="1" target="S_xRD3oOY3vlIQlQ7VF_-5">
          <mxGeometry x="0.2878" y="-2" width="160" relative="1" as="geometry">
            <mxPoint x="380" y="120" as="sourcePoint" />
            <mxPoint x="565" y="214" as="targetPoint" />
            <mxPoint as="offset" />
          </mxGeometry>
        </mxCell>
        <mxCell id="S_xRD3oOY3vlIQlQ7VF_-39" value="&amp;lt;&amp;lt;incl&lt;span style=&quot;background-color: light-dark(#ffffff, var(--ge-dark-color, #121212)); color: light-dark(rgb(0, 0, 0), rgb(255, 255, 255));&quot;&gt;ude&amp;gt;&amp;gt;&lt;/span&gt;" style="endArrow=open;endSize=12;dashed=1;html=1;rounded=0;" edge="1" parent="1" source="S_xRD3oOY3vlIQlQ7VF_-6" target="S_xRD3oOY3vlIQlQ7VF_-10">
          <mxGeometry width="160" relative="1" as="geometry">
            <mxPoint x="390" y="575" as="sourcePoint" />
            <mxPoint x="610" y="400" as="targetPoint" />
          </mxGeometry>
        </mxCell>
        <mxCell id="S_xRD3oOY3vlIQlQ7VF_-40" value="&amp;lt;&amp;lt;incl&lt;span style=&quot;background-color: light-dark(#ffffff, var(--ge-dark-color, #121212)); color: light-dark(rgb(0, 0, 0), rgb(255, 255, 255));&quot;&gt;ude&amp;gt;&amp;gt;&lt;/span&gt;" style="endArrow=open;endSize=12;dashed=1;html=1;rounded=0;exitX=0.5;exitY=1;exitDx=0;exitDy=0;entryX=0.403;entryY=0.041;entryDx=0;entryDy=0;entryPerimeter=0;" edge="1" parent="1" source="S_xRD3oOY3vlIQlQ7VF_-6" target="S_xRD3oOY3vlIQlQ7VF_-9">
          <mxGeometry width="160" relative="1" as="geometry">
            <mxPoint x="400" y="585" as="sourcePoint" />
            <mxPoint x="620" y="410" as="targetPoint" />
          </mxGeometry>
        </mxCell>
        <mxCell id="S_xRD3oOY3vlIQlQ7VF_-41" value="&amp;lt;&amp;lt;incl&lt;span style=&quot;background-color: light-dark(#ffffff, var(--ge-dark-color, #121212)); color: light-dark(rgb(0, 0, 0), rgb(255, 255, 255));&quot;&gt;ude&amp;gt;&amp;gt;&lt;/span&gt;" style="endArrow=open;endSize=12;dashed=1;html=1;rounded=0;exitX=1;exitY=0.5;exitDx=0;exitDy=0;" edge="1" parent="1" source="S_xRD3oOY3vlIQlQ7VF_-6" target="S_xRD3oOY3vlIQlQ7VF_-7">
          <mxGeometry width="160" relative="1" as="geometry">
            <mxPoint x="410" y="595" as="sourcePoint" />
            <mxPoint x="630" y="420" as="targetPoint" />
          </mxGeometry>
        </mxCell>
        <mxCell id="S_xRD3oOY3vlIQlQ7VF_-52" value="" style="endArrow=none;html=1;rounded=0;entryX=0;entryY=0.5;entryDx=0;entryDy=0;" edge="1" parent="1" target="S_xRD3oOY3vlIQlQ7VF_-2">
          <mxGeometry relative="1" as="geometry">
            <mxPoint x="110" y="210" as="sourcePoint" />
            <mxPoint x="500" y="370" as="targetPoint" />
          </mxGeometry>
        </mxCell>
        <mxCell id="S_xRD3oOY3vlIQlQ7VF_-60" value="&amp;lt;&amp;lt;initiate&amp;gt;&amp;gt;" style="edgeLabel;html=1;align=center;verticalAlign=middle;resizable=0;points=[];" vertex="1" connectable="0" parent="S_xRD3oOY3vlIQlQ7VF_-52">
          <mxGeometry x="0.048" y="-2" relative="1" as="geometry">
            <mxPoint as="offset" />
          </mxGeometry>
        </mxCell>
        <mxCell id="S_xRD3oOY3vlIQlQ7VF_-53" value="" style="endArrow=none;html=1;rounded=0;" edge="1" parent="1" target="S_xRD3oOY3vlIQlQ7VF_-3">
          <mxGeometry relative="1" as="geometry">
            <mxPoint x="110" y="220" as="sourcePoint" />
            <mxPoint x="500" y="370" as="targetPoint" />
          </mxGeometry>
        </mxCell>
        <mxCell id="S_xRD3oOY3vlIQlQ7VF_-54" value="" style="endArrow=none;html=1;rounded=0;entryX=0;entryY=0.5;entryDx=0;entryDy=0;" edge="1" parent="1" target="S_xRD3oOY3vlIQlQ7VF_-13">
          <mxGeometry relative="1" as="geometry">
            <mxPoint x="100" y="220" as="sourcePoint" />
            <mxPoint x="500" y="370" as="targetPoint" />
          </mxGeometry>
        </mxCell>
        <mxCell id="S_xRD3oOY3vlIQlQ7VF_-55" value="" style="endArrow=none;html=1;rounded=0;entryX=0;entryY=0.5;entryDx=0;entryDy=0;" edge="1" parent="1" target="S_xRD3oOY3vlIQlQ7VF_-4">
          <mxGeometry relative="1" as="geometry">
            <mxPoint x="100" y="230" as="sourcePoint" />
            <mxPoint x="500" y="370" as="targetPoint" />
          </mxGeometry>
        </mxCell>
        <mxCell id="S_xRD3oOY3vlIQlQ7VF_-56" value="" style="endArrow=none;html=1;rounded=0;entryX=0.075;entryY=0.286;entryDx=0;entryDy=0;entryPerimeter=0;" edge="1" parent="1" target="S_xRD3oOY3vlIQlQ7VF_-6">
          <mxGeometry relative="1" as="geometry">
            <mxPoint x="100" y="250" as="sourcePoint" />
            <mxPoint x="250" y="540" as="targetPoint" />
          </mxGeometry>
        </mxCell>
        <mxCell id="S_xRD3oOY3vlIQlQ7VF_-58" value="" style="endArrow=none;html=1;rounded=0;entryX=0;entryY=0.643;entryDx=0;entryDy=0;entryPerimeter=0;" edge="1" parent="1" source="S_xRD3oOY3vlIQlQ7VF_-8" target="S_xRD3oOY3vlIQlQ7VF_-4">
          <mxGeometry relative="1" as="geometry">
            <mxPoint x="340" y="430" as="sourcePoint" />
            <mxPoint x="500" y="430" as="targetPoint" />
          </mxGeometry>
        </mxCell>
        <mxCell id="S_xRD3oOY3vlIQlQ7VF_-59" value="" style="endArrow=none;html=1;rounded=0;entryX=0;entryY=0.5;entryDx=0;entryDy=0;" edge="1" parent="1" target="S_xRD3oOY3vlIQlQ7VF_-6">
          <mxGeometry relative="1" as="geometry">
            <mxPoint x="90" y="470" as="sourcePoint" />
            <mxPoint x="500" y="430" as="targetPoint" />
          </mxGeometry>
        </mxCell>
        <mxCell id="S_xRD3oOY3vlIQlQ7VF_-61" value="" style="endArrow=none;html=1;rounded=0;entryX=0.195;entryY=0.965;entryDx=0;entryDy=0;entryPerimeter=0;" edge="1" parent="1" target="S_xRD3oOY3vlIQlQ7VF_-2">
          <mxGeometry relative="1" as="geometry">
            <mxPoint x="90" y="450" as="sourcePoint" />
            <mxPoint x="500" y="350" as="targetPoint" />
          </mxGeometry>
        </mxCell>
        <mxCell id="S_xRD3oOY3vlIQlQ7VF_-62" value="&amp;lt;&amp;lt;participate&amp;gt;&amp;gt;" style="edgeLabel;html=1;align=center;verticalAlign=middle;resizable=0;points=[];" vertex="1" connectable="0" parent="S_xRD3oOY3vlIQlQ7VF_-61">
          <mxGeometry x="0.1682" y="1" relative="1" as="geometry">
            <mxPoint as="offset" />
          </mxGeometry>
        </mxCell>
        <mxCell id="S_xRD3oOY3vlIQlQ7VF_-63" value="USECASE DIAGRAM" style="text;html=1;align=center;verticalAlign=middle;resizable=0;points=[];autosize=1;strokeColor=none;fillColor=none;" vertex="1" parent="1">
          <mxGeometry x="260" y="20" width="140" height="30" as="geometry" />
        </mxCell>
        <mxCell id="S_xRD3oOY3vlIQlQ7VF_-64" value="UC1: Đăng nhập&lt;div&gt;UC2: Đăng xuất&lt;br&gt;&lt;div&gt;UC3: Tạo tài khoản người dùng&lt;/div&gt;&lt;div&gt;UC4: Thay đổi mật khẩu&lt;/div&gt;&lt;div&gt;UC5: Cập nhật thông tin cá nhân&lt;/div&gt;&lt;div&gt;UC6: Quên mật khẩu&lt;/div&gt;&lt;div&gt;UC7: Xác thực người dùng&lt;/div&gt;&lt;/div&gt;" style="rounded=0;whiteSpace=wrap;html=1;align=left;" vertex="1" parent="1">
          <mxGeometry x="506" y="2056" width="199" height="117" as="geometry" />
        </mxCell>
        <mxCell id="S_xRD3oOY3vlIQlQ7VF_-65" value="UC10: Xem lại lịch sử xuất/nhập hàng" style="ellipse;whiteSpace=wrap;html=1;" vertex="1" parent="1">
          <mxGeometry x="480" y="50" width="150" height="80" as="geometry" />
        </mxCell>
        <mxCell id="S_xRD3oOY3vlIQlQ7VF_-66" value="&amp;lt;&amp;lt;extend&lt;span style=&quot;background-color: light-dark(#ffffff, var(--ge-dark-color, #121212)); color: light-dark(rgb(0, 0, 0), rgb(255, 255, 255));&quot;&gt;&amp;gt;&amp;gt;&lt;/span&gt;" style="endArrow=open;endSize=12;dashed=1;html=1;rounded=0;exitX=1;exitY=0;exitDx=0;exitDy=0;entryX=0.39;entryY=0.978;entryDx=0;entryDy=0;entryPerimeter=0;" edge="1" parent="1" source="S_xRD3oOY3vlIQlQ7VF_-13" target="S_xRD3oOY3vlIQlQ7VF_-65">
          <mxGeometry x="0.5792" y="1" width="160" relative="1" as="geometry">
            <mxPoint x="390" y="245" as="sourcePoint" />
            <mxPoint x="605" y="339" as="targetPoint" />
            <mxPoint y="-1" as="offset" />
          </mxGeometry>
        </mxCell>
        <mxCell id="S_xRD3oOY3vlIQlQ7VF_-144" value="" style="edgeStyle=elbowEdgeStyle;rounded=0;orthogonalLoop=1;jettySize=auto;html=1;elbow=horizontal;startArrow=none;endArrow=none;" edge="1" parent="1" source="S_xRD3oOY3vlIQlQ7VF_-140" target="S_xRD3oOY3vlIQlQ7VF_-143">
          <mxGeometry relative="1" as="geometry" />
        </mxCell>
        <mxCell id="S_xRD3oOY3vlIQlQ7VF_-146" value="" style="edgeStyle=elbowEdgeStyle;rounded=0;orthogonalLoop=1;jettySize=auto;html=1;elbow=horizontal;startArrow=none;endArrow=none;" edge="1" parent="1" source="S_xRD3oOY3vlIQlQ7VF_-140" target="S_xRD3oOY3vlIQlQ7VF_-145">
          <mxGeometry relative="1" as="geometry" />
        </mxCell>
        <mxCell id="S_xRD3oOY3vlIQlQ7VF_-140" value="Division" style="whiteSpace=wrap;html=1;align=center;verticalAlign=middle;treeFolding=1;treeMoving=1;newEdgeStyle={&quot;edgeStyle&quot;:&quot;elbowEdgeStyle&quot;,&quot;startArrow&quot;:&quot;none&quot;,&quot;endArrow&quot;:&quot;none&quot;};" vertex="1" parent="1">
          <mxGeometry x="310" y="960" width="130" height="60" as="geometry" />
        </mxCell>
        <mxCell id="S_xRD3oOY3vlIQlQ7VF_-141" value="" style="edgeStyle=elbowEdgeStyle;elbow=vertical;sourcePerimeterSpacing=0;targetPerimeterSpacing=0;startArrow=none;endArrow=none;rounded=0;curved=0;exitX=0.5;exitY=1;exitDx=0;exitDy=0;" edge="1" target="S_xRD3oOY3vlIQlQ7VF_-140" parent="1" source="S_xRD3oOY3vlIQlQ7VF_-142">
          <mxGeometry relative="1" as="geometry">
            <mxPoint x="110" y="930" as="sourcePoint" />
            <Array as="points">
              <mxPoint x="370" y="930" />
            </Array>
          </mxGeometry>
        </mxCell>
        <mxCell id="S_xRD3oOY3vlIQlQ7VF_-142" value="Neko Libro" style="rounded=0;whiteSpace=wrap;html=1;" vertex="1" parent="1">
          <mxGeometry x="310" y="840" width="120" height="60" as="geometry" />
        </mxCell>
        <mxCell id="S_xRD3oOY3vlIQlQ7VF_-143" value="" style="whiteSpace=wrap;html=1;" vertex="1" parent="1">
          <mxGeometry x="510" y="960" width="120" height="60" as="geometry" />
        </mxCell>
        <mxCell id="S_xRD3oOY3vlIQlQ7VF_-148" value="" style="edgeStyle=elbowEdgeStyle;rounded=0;orthogonalLoop=1;jettySize=auto;html=1;elbow=vertical;startArrow=none;endArrow=none;" edge="1" parent="1" source="S_xRD3oOY3vlIQlQ7VF_-145" target="S_xRD3oOY3vlIQlQ7VF_-147">
          <mxGeometry relative="1" as="geometry" />
        </mxCell>
        <mxCell id="S_xRD3oOY3vlIQlQ7VF_-152" value="" style="edgeStyle=elbowEdgeStyle;rounded=0;orthogonalLoop=1;jettySize=auto;html=1;elbow=horizontal;startArrow=none;endArrow=none;" edge="1" parent="1" source="S_xRD3oOY3vlIQlQ7VF_-145" target="S_xRD3oOY3vlIQlQ7VF_-151">
          <mxGeometry relative="1" as="geometry" />
        </mxCell>
        <mxCell id="S_xRD3oOY3vlIQlQ7VF_-145" value="Division" style="whiteSpace=wrap;html=1;align=center;verticalAlign=middle;treeFolding=1;treeMoving=1;newEdgeStyle={&quot;edgeStyle&quot;:&quot;elbowEdgeStyle&quot;,&quot;startArrow&quot;:&quot;none&quot;,&quot;endArrow&quot;:&quot;none&quot;};" vertex="1" parent="1">
          <mxGeometry x="120" y="960" width="130" height="60" as="geometry" />
        </mxCell>
        <mxCell id="S_xRD3oOY3vlIQlQ7VF_-150" value="" style="edgeStyle=elbowEdgeStyle;rounded=0;orthogonalLoop=1;jettySize=auto;html=1;elbow=vertical;startArrow=none;endArrow=none;" edge="1" parent="1" source="S_xRD3oOY3vlIQlQ7VF_-147" target="S_xRD3oOY3vlIQlQ7VF_-149">
          <mxGeometry relative="1" as="geometry" />
        </mxCell>
        <mxCell id="S_xRD3oOY3vlIQlQ7VF_-147" value="Division" style="whiteSpace=wrap;html=1;align=center;verticalAlign=middle;treeFolding=1;treeMoving=1;newEdgeStyle={&quot;edgeStyle&quot;:&quot;elbowEdgeStyle&quot;,&quot;startArrow&quot;:&quot;none&quot;,&quot;endArrow&quot;:&quot;none&quot;};" vertex="1" parent="1">
          <mxGeometry x="120" y="1100" width="130" height="60" as="geometry" />
        </mxCell>
        <mxCell id="S_xRD3oOY3vlIQlQ7VF_-149" value="Division" style="whiteSpace=wrap;html=1;align=center;verticalAlign=middle;treeFolding=1;treeMoving=1;newEdgeStyle={&quot;edgeStyle&quot;:&quot;elbowEdgeStyle&quot;,&quot;startArrow&quot;:&quot;none&quot;,&quot;endArrow&quot;:&quot;none&quot;};" vertex="1" parent="1">
          <mxGeometry x="120" y="1240" width="130" height="60" as="geometry" />
        </mxCell>
        <mxCell id="S_xRD3oOY3vlIQlQ7VF_-151" value="Quản lí tài khoản" style="whiteSpace=wrap;html=1;align=center;verticalAlign=middle;treeFolding=1;treeMoving=1;newEdgeStyle={&quot;edgeStyle&quot;:&quot;elbowEdgeStyle&quot;,&quot;startArrow&quot;:&quot;none&quot;,&quot;endArrow&quot;:&quot;none&quot;};" vertex="1" parent="1">
          <mxGeometry x="-90" y="960" width="130" height="60" as="geometry" />
        </mxCell>
        <mxCell id="S_xRD3oOY3vlIQlQ7VF_-159" value="" style="edgeStyle=orthogonalEdgeStyle;sourcePerimeterSpacing=0;targetPerimeterSpacing=0;startArrow=none;endArrow=none;rounded=0;targetPortConstraint=eastwest;sourcePortConstraint=northsouth;curved=0;rounded=0;" edge="1" target="S_xRD3oOY3vlIQlQ7VF_-161" parent="1">
          <mxGeometry relative="1" as="geometry">
            <mxPoint x="-25" y="1090" as="sourcePoint" />
          </mxGeometry>
        </mxCell>
        <mxCell id="S_xRD3oOY3vlIQlQ7VF_-160" value="" style="edgeStyle=orthogonalEdgeStyle;sourcePerimeterSpacing=0;targetPerimeterSpacing=0;startArrow=none;endArrow=none;rounded=0;targetPortConstraint=eastwest;sourcePortConstraint=northsouth;curved=0;rounded=0;" edge="1" target="S_xRD3oOY3vlIQlQ7VF_-162" parent="1">
          <mxGeometry relative="1" as="geometry">
            <mxPoint x="-25" y="1090" as="sourcePoint" />
          </mxGeometry>
        </mxCell>
        <mxCell id="S_xRD3oOY3vlIQlQ7VF_-161" value="Sub Section" style="whiteSpace=wrap;html=1;align=center;verticalAlign=middle;treeFolding=1;treeMoving=1;" vertex="1" parent="1">
          <mxGeometry x="-135" y="1130" width="100" height="60" as="geometry" />
        </mxCell>
        <mxCell id="S_xRD3oOY3vlIQlQ7VF_-162" value="Sub Section" style="whiteSpace=wrap;html=1;align=center;verticalAlign=middle;treeFolding=1;treeMoving=1;" vertex="1" parent="1">
          <mxGeometry x="-15" y="1130" width="100" height="60" as="geometry" />
        </mxCell>
        <mxCell id="S_xRD3oOY3vlIQlQ7VF_-270" value="" style="group" vertex="1" connectable="0" parent="1">
          <mxGeometry x="-234" y="1368.14" width="963" height="665.8586206896554" as="geometry" />
        </mxCell>
        <mxCell id="S_xRD3oOY3vlIQlQ7VF_-163" value="&lt;font style=&quot;font-size: 20px;&quot;&gt;Neko Libro&lt;/font&gt;" style="rounded=1;whiteSpace=wrap;html=1;fillColor=#fad9d5;strokeColor=#ae4132;container=0;" vertex="1" parent="S_xRD3oOY3vlIQlQ7VF_-270">
          <mxGeometry x="477" y="17.86" width="160" height="49.17" as="geometry" />
        </mxCell>
        <mxCell id="S_xRD3oOY3vlIQlQ7VF_-263" value="" style="endArrow=none;html=1;rounded=0;entryX=0.5;entryY=1;entryDx=0;entryDy=0;" edge="1" parent="S_xRD3oOY3vlIQlQ7VF_-270" target="S_xRD3oOY3vlIQlQ7VF_-163">
          <mxGeometry width="50" height="50" relative="1" as="geometry">
            <mxPoint x="557" y="98.8599999999999" as="sourcePoint" />
            <mxPoint x="479.5" y="216.9655172413793" as="targetPoint" />
          </mxGeometry>
        </mxCell>
        <mxCell id="S_xRD3oOY3vlIQlQ7VF_-264" value="" style="endArrow=none;html=1;rounded=0;" edge="1" parent="S_xRD3oOY3vlIQlQ7VF_-270">
          <mxGeometry width="50" height="50" relative="1" as="geometry">
            <mxPoint x="59.5" y="98.62068965517241" as="sourcePoint" />
            <mxPoint x="1040" y="100" as="targetPoint" />
          </mxGeometry>
        </mxCell>
        <mxCell id="S_xRD3oOY3vlIQlQ7VF_-265" value="" style="endArrow=none;html=1;rounded=0;exitX=0.429;exitY=0.052;exitDx=0;exitDy=0;exitPerimeter=0;" edge="1" parent="S_xRD3oOY3vlIQlQ7VF_-270" source="S_xRD3oOY3vlIQlQ7VF_-164">
          <mxGeometry width="50" height="50" relative="1" as="geometry">
            <mxPoint x="429.5" y="286" as="sourcePoint" />
            <mxPoint x="59.5" y="98.62068965517241" as="targetPoint" />
          </mxGeometry>
        </mxCell>
        <mxCell id="S_xRD3oOY3vlIQlQ7VF_-266" value="" style="endArrow=none;html=1;rounded=0;" edge="1" parent="S_xRD3oOY3vlIQlQ7VF_-270">
          <mxGeometry width="50" height="50" relative="1" as="geometry">
            <mxPoint x="303.55" y="138.06896551724137" as="sourcePoint" />
            <mxPoint x="303.55" y="98.62068965517241" as="targetPoint" />
          </mxGeometry>
        </mxCell>
        <mxCell id="S_xRD3oOY3vlIQlQ7VF_-267" value="" style="endArrow=none;html=1;rounded=0;" edge="1" parent="S_xRD3oOY3vlIQlQ7VF_-270">
          <mxGeometry width="50" height="50" relative="1" as="geometry">
            <mxPoint x="539.5" y="138.06896551724137" as="sourcePoint" />
            <mxPoint x="539.5" y="98.62068965517241" as="targetPoint" />
          </mxGeometry>
        </mxCell>
        <mxCell id="S_xRD3oOY3vlIQlQ7VF_-164" value="&lt;font style=&quot;font-size: 15px;&quot;&gt;Quản lí tài khoản&lt;/font&gt;" style="rounded=1;whiteSpace=wrap;html=1;fillColor=#fad7ac;strokeColor=#b46504;container=0;" vertex="1" parent="S_xRD3oOY3vlIQlQ7VF_-270">
          <mxGeometry y="138.06896551724137" width="140" height="59.172413793103445" as="geometry" />
        </mxCell>
        <mxCell id="S_xRD3oOY3vlIQlQ7VF_-188" value="" style="endArrow=none;html=1;rounded=0;" edge="1" parent="S_xRD3oOY3vlIQlQ7VF_-270">
          <mxGeometry width="50" height="50" relative="1" as="geometry">
            <mxPoint x="19.5" y="572" as="sourcePoint" />
            <mxPoint x="19.5" y="197.24137931034483" as="targetPoint" />
          </mxGeometry>
        </mxCell>
        <mxCell id="S_xRD3oOY3vlIQlQ7VF_-193" value="Đăng nhập" style="rounded=1;whiteSpace=wrap;html=1;fillColor=#e1d5e7;strokeColor=#9673a6;container=0;" vertex="1" parent="S_xRD3oOY3vlIQlQ7VF_-270">
          <mxGeometry x="44.5" y="216.9655172413793" width="155" height="39.44827586206897" as="geometry" />
        </mxCell>
        <mxCell id="S_xRD3oOY3vlIQlQ7VF_-198" value="" style="endArrow=none;html=1;rounded=0;exitX=0;exitY=0.5;exitDx=0;exitDy=0;" edge="1" parent="S_xRD3oOY3vlIQlQ7VF_-270" source="S_xRD3oOY3vlIQlQ7VF_-193">
          <mxGeometry width="50" height="50" relative="1" as="geometry">
            <mxPoint x="309.5" y="295.8620689655172" as="sourcePoint" />
            <mxPoint x="19.5" y="236.68965517241378" as="targetPoint" />
          </mxGeometry>
        </mxCell>
        <mxCell id="S_xRD3oOY3vlIQlQ7VF_-199" value="Đăng xuất" style="rounded=1;whiteSpace=wrap;html=1;fillColor=#e1d5e7;strokeColor=#9673a6;container=0;" vertex="1" parent="S_xRD3oOY3vlIQlQ7VF_-270">
          <mxGeometry x="44.5" y="276.13793103448273" width="155" height="39.44827586206897" as="geometry" />
        </mxCell>
        <mxCell id="S_xRD3oOY3vlIQlQ7VF_-205" value="Tạo tài khoản người dùng" style="rounded=1;whiteSpace=wrap;html=1;fillColor=#e1d5e7;strokeColor=#9673a6;container=0;" vertex="1" parent="S_xRD3oOY3vlIQlQ7VF_-270">
          <mxGeometry x="44.5" y="335.3103448275862" width="155" height="39.44827586206897" as="geometry" />
        </mxCell>
        <mxCell id="S_xRD3oOY3vlIQlQ7VF_-206" value="Cập nhật thông tin cá nhân" style="rounded=1;whiteSpace=wrap;html=1;fillColor=#e1d5e7;strokeColor=#9673a6;container=0;" vertex="1" parent="S_xRD3oOY3vlIQlQ7VF_-270">
          <mxGeometry x="42.5" y="394.48275862068965" width="157.5" height="39.44827586206897" as="geometry" />
        </mxCell>
        <mxCell id="S_xRD3oOY3vlIQlQ7VF_-207" value="Thay đổi mật khẩu" style="rounded=1;whiteSpace=wrap;html=1;fillColor=#e1d5e7;strokeColor=#9673a6;container=0;" vertex="1" parent="S_xRD3oOY3vlIQlQ7VF_-270">
          <mxGeometry x="43.75" y="453.6551724137931" width="155" height="39.44827586206897" as="geometry" />
        </mxCell>
        <mxCell id="S_xRD3oOY3vlIQlQ7VF_-208" value="Quên mật khẩu" style="rounded=1;whiteSpace=wrap;html=1;fillColor=#e1d5e7;strokeColor=#9673a6;container=0;" vertex="1" parent="S_xRD3oOY3vlIQlQ7VF_-270">
          <mxGeometry x="44.5" y="512.8275862068965" width="155" height="39.44827586206897" as="geometry" />
        </mxCell>
        <mxCell id="S_xRD3oOY3vlIQlQ7VF_-209" value="" style="endArrow=none;html=1;rounded=0;exitX=0;exitY=0.5;exitDx=0;exitDy=0;" edge="1" parent="S_xRD3oOY3vlIQlQ7VF_-270">
          <mxGeometry width="50" height="50" relative="1" as="geometry">
            <mxPoint x="44.5" y="295.44786206896543" as="sourcePoint" />
            <mxPoint x="19.5" y="295.44786206896543" as="targetPoint" />
          </mxGeometry>
        </mxCell>
        <mxCell id="S_xRD3oOY3vlIQlQ7VF_-211" value="" style="endArrow=none;html=1;rounded=0;exitX=0;exitY=0.5;exitDx=0;exitDy=0;" edge="1" parent="S_xRD3oOY3vlIQlQ7VF_-270">
          <mxGeometry width="50" height="50" relative="1" as="geometry">
            <mxPoint x="44.5" y="354.62027586206887" as="sourcePoint" />
            <mxPoint x="19.5" y="354.62027586206887" as="targetPoint" />
          </mxGeometry>
        </mxCell>
        <mxCell id="S_xRD3oOY3vlIQlQ7VF_-212" value="" style="endArrow=none;html=1;rounded=0;exitX=0;exitY=0.5;exitDx=0;exitDy=0;" edge="1" parent="S_xRD3oOY3vlIQlQ7VF_-270">
          <mxGeometry width="50" height="50" relative="1" as="geometry">
            <mxPoint x="44.5" y="413.79268965517235" as="sourcePoint" />
            <mxPoint x="19.5" y="413.79268965517235" as="targetPoint" />
          </mxGeometry>
        </mxCell>
        <mxCell id="S_xRD3oOY3vlIQlQ7VF_-213" value="" style="endArrow=none;html=1;rounded=0;exitX=0;exitY=0.5;exitDx=0;exitDy=0;" edge="1" parent="S_xRD3oOY3vlIQlQ7VF_-270">
          <mxGeometry width="50" height="50" relative="1" as="geometry">
            <mxPoint x="44.5" y="472.9651034482758" as="sourcePoint" />
            <mxPoint x="19.5" y="472.9651034482758" as="targetPoint" />
          </mxGeometry>
        </mxCell>
        <mxCell id="S_xRD3oOY3vlIQlQ7VF_-214" value="" style="endArrow=none;html=1;rounded=0;exitX=0;exitY=0.5;exitDx=0;exitDy=0;" edge="1" parent="S_xRD3oOY3vlIQlQ7VF_-270">
          <mxGeometry width="50" height="50" relative="1" as="geometry">
            <mxPoint x="44.5" y="532.1375172413792" as="sourcePoint" />
            <mxPoint x="19.5" y="532.1375172413792" as="targetPoint" />
          </mxGeometry>
        </mxCell>
        <mxCell id="S_xRD3oOY3vlIQlQ7VF_-217" value="&lt;font style=&quot;font-size: 15px;&quot;&gt;Quản lí sản phẩm&lt;/font&gt;" style="rounded=1;whiteSpace=wrap;html=1;fillColor=#fad7ac;strokeColor=#b46504;container=0;" vertex="1" parent="S_xRD3oOY3vlIQlQ7VF_-270">
          <mxGeometry x="239.5" y="138.06896551724137" width="140.5" height="59.172413793103445" as="geometry" />
        </mxCell>
        <mxCell id="S_xRD3oOY3vlIQlQ7VF_-218" value="" style="endArrow=none;html=1;rounded=0;" edge="1" parent="S_xRD3oOY3vlIQlQ7VF_-270">
          <mxGeometry width="50" height="50" relative="1" as="geometry">
            <mxPoint x="259.5" y="572" as="sourcePoint" />
            <mxPoint x="259.5" y="197.24137931034483" as="targetPoint" />
          </mxGeometry>
        </mxCell>
        <mxCell id="S_xRD3oOY3vlIQlQ7VF_-219" value="Chỉnh sửa lại thông tin sản phẩm" style="rounded=1;whiteSpace=wrap;html=1;fillColor=#d5e8d4;strokeColor=#82b366;container=0;" vertex="1" parent="S_xRD3oOY3vlIQlQ7VF_-270">
          <mxGeometry x="284.5" y="216.9655172413793" width="155" height="39.44827586206897" as="geometry" />
        </mxCell>
        <mxCell id="S_xRD3oOY3vlIQlQ7VF_-220" value="" style="endArrow=none;html=1;rounded=0;exitX=0;exitY=0.5;exitDx=0;exitDy=0;" edge="1" parent="S_xRD3oOY3vlIQlQ7VF_-270" source="S_xRD3oOY3vlIQlQ7VF_-219">
          <mxGeometry width="50" height="50" relative="1" as="geometry">
            <mxPoint x="549.5" y="295.8620689655172" as="sourcePoint" />
            <mxPoint x="259.5" y="236.68965517241378" as="targetPoint" />
          </mxGeometry>
        </mxCell>
        <mxCell id="S_xRD3oOY3vlIQlQ7VF_-221" value="Thêm sản phẩm mới vào danh mục" style="rounded=1;whiteSpace=wrap;html=1;fillColor=#d5e8d4;strokeColor=#82b366;container=0;" vertex="1" parent="S_xRD3oOY3vlIQlQ7VF_-270">
          <mxGeometry x="284.5" y="276.13793103448273" width="155" height="39.44827586206897" as="geometry" />
        </mxCell>
        <mxCell id="S_xRD3oOY3vlIQlQ7VF_-222" value="Xóa sản phẩm khỏi danh mục" style="rounded=1;whiteSpace=wrap;html=1;container=0;fillColor=#d5e8d4;strokeColor=#82b366;" vertex="1" parent="S_xRD3oOY3vlIQlQ7VF_-270">
          <mxGeometry x="284.5" y="335.3103448275862" width="155" height="39.44827586206897" as="geometry" />
        </mxCell>
        <mxCell id="S_xRD3oOY3vlIQlQ7VF_-223" value="Xuất - Nhập hàng" style="rounded=1;whiteSpace=wrap;html=1;container=0;fillColor=#d5e8d4;strokeColor=#82b366;" vertex="1" parent="S_xRD3oOY3vlIQlQ7VF_-270">
          <mxGeometry x="282.5" y="394.48275862068965" width="157.5" height="39.44827586206897" as="geometry" />
        </mxCell>
        <mxCell id="S_xRD3oOY3vlIQlQ7VF_-224" value="Xem lại lịch sử&amp;nbsp;&lt;div&gt;xuất - nhập hàng&lt;/div&gt;" style="rounded=1;whiteSpace=wrap;html=1;container=0;fillColor=#d5e8d4;strokeColor=#82b366;" vertex="1" parent="S_xRD3oOY3vlIQlQ7VF_-270">
          <mxGeometry x="283.75" y="453.6551724137931" width="155" height="39.44827586206897" as="geometry" />
        </mxCell>
        <mxCell id="S_xRD3oOY3vlIQlQ7VF_-225" value="Cập nhật tồn kho" style="rounded=1;whiteSpace=wrap;html=1;container=0;fillColor=#d5e8d4;strokeColor=#82b366;" vertex="1" parent="S_xRD3oOY3vlIQlQ7VF_-270">
          <mxGeometry x="284.5" y="512.8275862068965" width="155" height="39.44827586206897" as="geometry" />
        </mxCell>
        <mxCell id="S_xRD3oOY3vlIQlQ7VF_-226" value="" style="endArrow=none;html=1;rounded=0;exitX=0;exitY=0.5;exitDx=0;exitDy=0;" edge="1" parent="S_xRD3oOY3vlIQlQ7VF_-270">
          <mxGeometry width="50" height="50" relative="1" as="geometry">
            <mxPoint x="284.5" y="295.44786206896543" as="sourcePoint" />
            <mxPoint x="259.5" y="295.44786206896543" as="targetPoint" />
          </mxGeometry>
        </mxCell>
        <mxCell id="S_xRD3oOY3vlIQlQ7VF_-227" value="" style="endArrow=none;html=1;rounded=0;exitX=0;exitY=0.5;exitDx=0;exitDy=0;" edge="1" parent="S_xRD3oOY3vlIQlQ7VF_-270">
          <mxGeometry width="50" height="50" relative="1" as="geometry">
            <mxPoint x="284.5" y="354.62027586206887" as="sourcePoint" />
            <mxPoint x="259.5" y="354.62027586206887" as="targetPoint" />
          </mxGeometry>
        </mxCell>
        <mxCell id="S_xRD3oOY3vlIQlQ7VF_-228" value="" style="endArrow=none;html=1;rounded=0;exitX=0;exitY=0.5;exitDx=0;exitDy=0;" edge="1" parent="S_xRD3oOY3vlIQlQ7VF_-270">
          <mxGeometry width="50" height="50" relative="1" as="geometry">
            <mxPoint x="284.5" y="413.79268965517235" as="sourcePoint" />
            <mxPoint x="259.5" y="413.79268965517235" as="targetPoint" />
          </mxGeometry>
        </mxCell>
        <mxCell id="S_xRD3oOY3vlIQlQ7VF_-229" value="" style="endArrow=none;html=1;rounded=0;exitX=0;exitY=0.5;exitDx=0;exitDy=0;" edge="1" parent="S_xRD3oOY3vlIQlQ7VF_-270">
          <mxGeometry width="50" height="50" relative="1" as="geometry">
            <mxPoint x="284.5" y="472.9651034482758" as="sourcePoint" />
            <mxPoint x="259.5" y="472.9651034482758" as="targetPoint" />
          </mxGeometry>
        </mxCell>
        <mxCell id="S_xRD3oOY3vlIQlQ7VF_-230" value="" style="endArrow=none;html=1;rounded=0;exitX=0;exitY=0.5;exitDx=0;exitDy=0;" edge="1" parent="S_xRD3oOY3vlIQlQ7VF_-270">
          <mxGeometry width="50" height="50" relative="1" as="geometry">
            <mxPoint x="284.5" y="532.1375172413792" as="sourcePoint" />
            <mxPoint x="259.5" y="532.1375172413792" as="targetPoint" />
          </mxGeometry>
        </mxCell>
        <mxCell id="S_xRD3oOY3vlIQlQ7VF_-233" value="&lt;font style=&quot;font-size: 15px;&quot;&gt;Quản lí bán hàng&lt;/font&gt;" style="rounded=1;whiteSpace=wrap;html=1;fillColor=#fad7ac;strokeColor=#b46504;container=0;" vertex="1" parent="S_xRD3oOY3vlIQlQ7VF_-270">
          <mxGeometry x="479.5" y="138.06896551724137" width="140.5" height="59.172413793103445" as="geometry" />
        </mxCell>
        <mxCell id="S_xRD3oOY3vlIQlQ7VF_-234" value="" style="endArrow=none;html=1;rounded=0;" edge="1" parent="S_xRD3oOY3vlIQlQ7VF_-270">
          <mxGeometry width="50" height="50" relative="1" as="geometry">
            <mxPoint x="500" y="559" as="sourcePoint" />
            <mxPoint x="499.5" y="197.24137931034483" as="targetPoint" />
          </mxGeometry>
        </mxCell>
        <mxCell id="S_xRD3oOY3vlIQlQ7VF_-235" value="Tạo mới đơn hàng" style="rounded=1;whiteSpace=wrap;html=1;container=0;fillColor=#bac8d3;strokeColor=#23445d;" vertex="1" parent="S_xRD3oOY3vlIQlQ7VF_-270">
          <mxGeometry x="524.5" y="216.9655172413793" width="155" height="39.44827586206897" as="geometry" />
        </mxCell>
        <mxCell id="S_xRD3oOY3vlIQlQ7VF_-236" value="" style="endArrow=none;html=1;rounded=0;exitX=0;exitY=0.5;exitDx=0;exitDy=0;" edge="1" parent="S_xRD3oOY3vlIQlQ7VF_-270" source="S_xRD3oOY3vlIQlQ7VF_-235">
          <mxGeometry width="50" height="50" relative="1" as="geometry">
            <mxPoint x="789.5" y="295.8620689655172" as="sourcePoint" />
            <mxPoint x="499.5" y="236.68965517241378" as="targetPoint" />
          </mxGeometry>
        </mxCell>
        <mxCell id="S_xRD3oOY3vlIQlQ7VF_-237" value="Chỉnh sửa đơn hàng" style="rounded=1;whiteSpace=wrap;html=1;container=0;fillColor=#bac8d3;strokeColor=#23445d;" vertex="1" parent="S_xRD3oOY3vlIQlQ7VF_-270">
          <mxGeometry x="524.5" y="276.13793103448273" width="155" height="39.44827586206897" as="geometry" />
        </mxCell>
        <mxCell id="S_xRD3oOY3vlIQlQ7VF_-238" value="Xem đơn hàng" style="rounded=1;whiteSpace=wrap;html=1;container=0;fillColor=#bac8d3;strokeColor=#23445d;" vertex="1" parent="S_xRD3oOY3vlIQlQ7VF_-270">
          <mxGeometry x="524.5" y="335.3103448275862" width="155" height="39.44827586206897" as="geometry" />
        </mxCell>
        <mxCell id="S_xRD3oOY3vlIQlQ7VF_-242" value="" style="endArrow=none;html=1;rounded=0;exitX=0;exitY=0.5;exitDx=0;exitDy=0;" edge="1" parent="S_xRD3oOY3vlIQlQ7VF_-270">
          <mxGeometry width="50" height="50" relative="1" as="geometry">
            <mxPoint x="524.5" y="295.44786206896543" as="sourcePoint" />
            <mxPoint x="499.5" y="295.44786206896543" as="targetPoint" />
          </mxGeometry>
        </mxCell>
        <mxCell id="S_xRD3oOY3vlIQlQ7VF_-243" value="" style="endArrow=none;html=1;rounded=0;exitX=0;exitY=0.5;exitDx=0;exitDy=0;" edge="1" parent="S_xRD3oOY3vlIQlQ7VF_-270">
          <mxGeometry width="50" height="50" relative="1" as="geometry">
            <mxPoint x="524.5" y="354.62027586206887" as="sourcePoint" />
            <mxPoint x="499.5" y="354.62027586206887" as="targetPoint" />
          </mxGeometry>
        </mxCell>
        <mxCell id="S_xRD3oOY3vlIQlQ7VF_-391" value="Xuất hóa đơn" style="rounded=1;whiteSpace=wrap;html=1;container=0;fillColor=#bac8d3;strokeColor=#23445d;" vertex="1" parent="S_xRD3oOY3vlIQlQ7VF_-270">
          <mxGeometry x="524.5" y="394.48034482758635" width="155" height="39.44827586206897" as="geometry" />
        </mxCell>
        <mxCell id="S_xRD3oOY3vlIQlQ7VF_-396" value="" style="endArrow=none;html=1;rounded=0;exitX=0;exitY=0.5;exitDx=0;exitDy=0;" edge="1" parent="S_xRD3oOY3vlIQlQ7VF_-270">
          <mxGeometry width="50" height="50" relative="1" as="geometry">
            <mxPoint x="524.5" y="413.79027586206894" as="sourcePoint" />
            <mxPoint x="499.5" y="413.79027586206894" as="targetPoint" />
          </mxGeometry>
        </mxCell>
        <mxCell id="S_xRD3oOY3vlIQlQ7VF_-444" value="" style="group" vertex="1" connectable="0" parent="S_xRD3oOY3vlIQlQ7VF_-270">
          <mxGeometry x="734" y="135.99896551724146" width="200" height="312.9310344827586" as="geometry" />
        </mxCell>
        <mxCell id="S_xRD3oOY3vlIQlQ7VF_-434" value="&lt;font style=&quot;font-size: 15px;&quot;&gt;Quản lí nhân viên&lt;/font&gt;" style="rounded=1;whiteSpace=wrap;html=1;fillColor=#fad7ac;strokeColor=#b46504;container=0;" vertex="1" parent="S_xRD3oOY3vlIQlQ7VF_-444">
          <mxGeometry width="140.5" height="59.172413793103445" as="geometry" />
        </mxCell>
        <mxCell id="S_xRD3oOY3vlIQlQ7VF_-435" value="" style="endArrow=none;html=1;rounded=0;" edge="1" parent="S_xRD3oOY3vlIQlQ7VF_-444">
          <mxGeometry width="50" height="50" relative="1" as="geometry">
            <mxPoint x="20.5" y="312.9310344827586" as="sourcePoint" />
            <mxPoint x="20" y="59.17241379310349" as="targetPoint" />
          </mxGeometry>
        </mxCell>
        <mxCell id="S_xRD3oOY3vlIQlQ7VF_-436" value="Xem thông tin cá nhân của nhân viên" style="rounded=1;whiteSpace=wrap;html=1;container=0;fillColor=#bac8d3;strokeColor=#23445d;" vertex="1" parent="S_xRD3oOY3vlIQlQ7VF_-444">
          <mxGeometry x="45" y="78.89655172413791" width="155" height="39.44827586206897" as="geometry" />
        </mxCell>
        <mxCell id="S_xRD3oOY3vlIQlQ7VF_-437" value="" style="endArrow=none;html=1;rounded=0;exitX=0;exitY=0.5;exitDx=0;exitDy=0;" edge="1" parent="S_xRD3oOY3vlIQlQ7VF_-444" source="S_xRD3oOY3vlIQlQ7VF_-436">
          <mxGeometry width="50" height="50" relative="1" as="geometry">
            <mxPoint x="310" y="157.79310344827582" as="sourcePoint" />
            <mxPoint x="20" y="98.62068965517233" as="targetPoint" />
          </mxGeometry>
        </mxCell>
        <mxCell id="S_xRD3oOY3vlIQlQ7VF_-438" value="Cập nhật thông tin cá nhân của nhân viên" style="rounded=1;whiteSpace=wrap;html=1;container=0;fillColor=#bac8d3;strokeColor=#23445d;" vertex="1" parent="S_xRD3oOY3vlIQlQ7VF_-444">
          <mxGeometry x="45" y="138.0689655172414" width="155" height="39.44827586206897" as="geometry" />
        </mxCell>
        <mxCell id="S_xRD3oOY3vlIQlQ7VF_-439" value="Xóa nhân viên" style="rounded=1;whiteSpace=wrap;html=1;container=0;fillColor=#bac8d3;strokeColor=#23445d;" vertex="1" parent="S_xRD3oOY3vlIQlQ7VF_-444">
          <mxGeometry x="45" y="197.24137931034488" width="155" height="39.44827586206897" as="geometry" />
        </mxCell>
        <mxCell id="S_xRD3oOY3vlIQlQ7VF_-440" value="" style="endArrow=none;html=1;rounded=0;exitX=0;exitY=0.5;exitDx=0;exitDy=0;" edge="1" parent="S_xRD3oOY3vlIQlQ7VF_-444">
          <mxGeometry width="50" height="50" relative="1" as="geometry">
            <mxPoint x="45" y="157.37889655172398" as="sourcePoint" />
            <mxPoint x="20" y="157.37889655172398" as="targetPoint" />
          </mxGeometry>
        </mxCell>
        <mxCell id="S_xRD3oOY3vlIQlQ7VF_-441" value="" style="endArrow=none;html=1;rounded=0;exitX=0;exitY=0.5;exitDx=0;exitDy=0;" edge="1" parent="S_xRD3oOY3vlIQlQ7VF_-444">
          <mxGeometry width="50" height="50" relative="1" as="geometry">
            <mxPoint x="45" y="216.55131034482747" as="sourcePoint" />
            <mxPoint x="20" y="216.55131034482747" as="targetPoint" />
          </mxGeometry>
        </mxCell>
        <mxCell id="S_xRD3oOY3vlIQlQ7VF_-442" value="Theo dõi doanh số theo cá nhân" style="rounded=1;whiteSpace=wrap;html=1;container=0;fillColor=#bac8d3;strokeColor=#23445d;" vertex="1" parent="S_xRD3oOY3vlIQlQ7VF_-444">
          <mxGeometry x="45" y="256.41137931034496" width="155" height="39.44827586206897" as="geometry" />
        </mxCell>
        <mxCell id="S_xRD3oOY3vlIQlQ7VF_-443" value="" style="endArrow=none;html=1;rounded=0;exitX=0;exitY=0.5;exitDx=0;exitDy=0;" edge="1" parent="S_xRD3oOY3vlIQlQ7VF_-444">
          <mxGeometry width="50" height="50" relative="1" as="geometry">
            <mxPoint x="45" y="275.72131034482754" as="sourcePoint" />
            <mxPoint x="20" y="275.72131034482754" as="targetPoint" />
          </mxGeometry>
        </mxCell>
        <mxCell id="S_xRD3oOY3vlIQlQ7VF_-445" value="Chỉnh sửa lại hóa đơn" style="rounded=1;whiteSpace=wrap;html=1;container=0;fillColor=#bac8d3;strokeColor=#23445d;" vertex="1" parent="S_xRD3oOY3vlIQlQ7VF_-270">
          <mxGeometry x="524.5" y="453.6503448275864" width="155" height="39.44827586206897" as="geometry" />
        </mxCell>
        <mxCell id="S_xRD3oOY3vlIQlQ7VF_-448" value="" style="endArrow=none;html=1;rounded=0;exitX=0;exitY=0.5;exitDx=0;exitDy=0;" edge="1" parent="S_xRD3oOY3vlIQlQ7VF_-270">
          <mxGeometry width="50" height="50" relative="1" as="geometry">
            <mxPoint x="524.5" y="473.1102758620689" as="sourcePoint" />
            <mxPoint x="499.5" y="473.1102758620689" as="targetPoint" />
          </mxGeometry>
        </mxCell>
        <mxCell id="S_xRD3oOY3vlIQlQ7VF_-507" value="Xem lại lịch sử đơn hàng" style="rounded=1;whiteSpace=wrap;html=1;container=0;fillColor=#bac8d3;strokeColor=#23445d;" vertex="1" parent="S_xRD3oOY3vlIQlQ7VF_-270">
          <mxGeometry x="524.5" y="514.0003448275863" width="155" height="39.44827586206897" as="geometry" />
        </mxCell>
        <mxCell id="S_xRD3oOY3vlIQlQ7VF_-512" value="" style="endArrow=none;html=1;rounded=0;exitX=0;exitY=0.5;exitDx=0;exitDy=0;" edge="1" parent="S_xRD3oOY3vlIQlQ7VF_-270">
          <mxGeometry width="50" height="50" relative="1" as="geometry">
            <mxPoint x="524.5" y="533.4402758620688" as="sourcePoint" />
            <mxPoint x="499.5" y="533.4402758620688" as="targetPoint" />
          </mxGeometry>
        </mxCell>
        <mxCell id="S_xRD3oOY3vlIQlQ7VF_-516" value="" style="endArrow=none;html=1;rounded=0;" edge="1" parent="S_xRD3oOY3vlIQlQ7VF_-270">
          <mxGeometry width="50" height="50" relative="1" as="geometry">
            <mxPoint x="806" y="135.99896551724146" as="sourcePoint" />
            <mxPoint x="806" y="96.55068965517239" as="targetPoint" />
          </mxGeometry>
        </mxCell>
        <mxCell id="S_xRD3oOY3vlIQlQ7VF_-301" value="Admin" style="shape=umlActor;verticalLabelPosition=bottom;verticalAlign=top;html=1;fillColor=#ffcc99;strokeColor=#36393d;" vertex="1" parent="1">
          <mxGeometry x="-12.5" y="2142" width="30" height="60" as="geometry" />
        </mxCell>
        <mxCell id="S_xRD3oOY3vlIQlQ7VF_-302" value="UC3: Tạo tài khoản người dùng" style="ellipse;whiteSpace=wrap;html=1;fillColor=#d0cee2;strokeColor=#56517e;" vertex="1" parent="1">
          <mxGeometry x="180" y="2072" width="140" height="70" as="geometry" />
        </mxCell>
        <mxCell id="S_xRD3oOY3vlIQlQ7VF_-304" value="UC6: Quên mật khẩu" style="ellipse;whiteSpace=wrap;html=1;fillColor=#d0cee2;strokeColor=#56517e;" vertex="1" parent="1">
          <mxGeometry x="180" y="2457" width="140" height="70" as="geometry" />
        </mxCell>
        <mxCell id="S_xRD3oOY3vlIQlQ7VF_-305" value="UC1: Đăng nhập" style="ellipse;whiteSpace=wrap;html=1;fillColor=#fad9d5;strokeColor=#ae4132;" vertex="1" parent="1">
          <mxGeometry x="450" y="2214" width="140" height="70" as="geometry" />
        </mxCell>
        <mxCell id="S_xRD3oOY3vlIQlQ7VF_-308" value="User" style="shape=umlActor;verticalLabelPosition=bottom;verticalAlign=top;html=1;fillColor=#ffcc99;strokeColor=#36393d;" vertex="1" parent="1">
          <mxGeometry x="-17.5" y="2397" width="40" height="60" as="geometry" />
        </mxCell>
        <mxCell id="S_xRD3oOY3vlIQlQ7VF_-309" value="UC5: Cập nhật thông tin cá nhân" style="ellipse;whiteSpace=wrap;html=1;fillColor=#d0cee2;strokeColor=#56517e;" vertex="1" parent="1">
          <mxGeometry x="180" y="2338" width="140" height="70" as="geometry" />
        </mxCell>
        <mxCell id="S_xRD3oOY3vlIQlQ7VF_-313" value="&amp;lt;&amp;lt;incl&lt;span style=&quot;background-color: light-dark(#ffffff, var(--ge-dark-color, #121212)); color: light-dark(rgb(0, 0, 0), rgb(255, 255, 255));&quot;&gt;ude&amp;gt;&amp;gt;&lt;/span&gt;" style="endArrow=open;endSize=12;dashed=1;html=1;rounded=0;exitX=1;exitY=0.5;exitDx=0;exitDy=0;entryX=0;entryY=0.5;entryDx=0;entryDy=0;" edge="1" parent="1" target="S_xRD3oOY3vlIQlQ7VF_-305" source="S_xRD3oOY3vlIQlQ7VF_-333">
          <mxGeometry width="160" relative="1" as="geometry">
            <mxPoint x="322.5" y="2207" as="sourcePoint" />
            <mxPoint x="442.5" y="2147" as="targetPoint" />
          </mxGeometry>
        </mxCell>
        <mxCell id="S_xRD3oOY3vlIQlQ7VF_-315" value="&amp;lt;&amp;lt;incl&lt;span style=&quot;background-color: light-dark(#ffffff, var(--ge-dark-color, #121212)); color: light-dark(rgb(0, 0, 0), rgb(255, 255, 255));&quot;&gt;ude&amp;gt;&amp;gt;&lt;/span&gt;" style="endArrow=open;endSize=12;dashed=1;html=1;rounded=0;exitX=1;exitY=0.5;exitDx=0;exitDy=0;entryX=0.017;entryY=0.648;entryDx=0;entryDy=0;entryPerimeter=0;" edge="1" parent="1" source="S_xRD3oOY3vlIQlQ7VF_-304" target="S_xRD3oOY3vlIQlQ7VF_-398">
          <mxGeometry x="0.1691" y="-5" width="160" relative="1" as="geometry">
            <mxPoint x="322.5" y="2422" as="sourcePoint" />
            <mxPoint x="442.5" y="2362" as="targetPoint" />
            <mxPoint as="offset" />
          </mxGeometry>
        </mxCell>
        <mxCell id="S_xRD3oOY3vlIQlQ7VF_-316" value="&amp;lt;&amp;lt;incl&lt;span style=&quot;background-color: light-dark(#ffffff, var(--ge-dark-color, #121212)); color: light-dark(rgb(0, 0, 0), rgb(255, 255, 255));&quot;&gt;ude&amp;gt;&amp;gt;&lt;/span&gt;" style="endArrow=open;endSize=12;dashed=1;html=1;rounded=0;exitX=0.964;exitY=0.357;exitDx=0;exitDy=0;entryX=0.5;entryY=0;entryDx=0;entryDy=0;exitPerimeter=0;" edge="1" parent="1" target="S_xRD3oOY3vlIQlQ7VF_-305" source="S_xRD3oOY3vlIQlQ7VF_-302">
          <mxGeometry x="0.2878" y="-2" width="160" relative="1" as="geometry">
            <mxPoint x="322.5" y="2092" as="sourcePoint" />
            <mxPoint x="507.5" y="2186" as="targetPoint" />
            <mxPoint as="offset" />
          </mxGeometry>
        </mxCell>
        <mxCell id="S_xRD3oOY3vlIQlQ7VF_-320" value="" style="endArrow=none;html=1;rounded=0;entryX=0;entryY=0.5;entryDx=0;entryDy=0;" edge="1" parent="1" target="S_xRD3oOY3vlIQlQ7VF_-302">
          <mxGeometry relative="1" as="geometry">
            <mxPoint x="27" y="2196" as="sourcePoint" />
            <mxPoint x="442.5" y="2342" as="targetPoint" />
          </mxGeometry>
        </mxCell>
        <mxCell id="S_xRD3oOY3vlIQlQ7VF_-321" value="&amp;lt;&amp;lt;initiate&amp;gt;&amp;gt;" style="edgeLabel;html=1;align=center;verticalAlign=middle;resizable=0;points=[];" vertex="1" connectable="0" parent="S_xRD3oOY3vlIQlQ7VF_-320">
          <mxGeometry x="0.048" y="-2" relative="1" as="geometry">
            <mxPoint as="offset" />
          </mxGeometry>
        </mxCell>
        <mxCell id="S_xRD3oOY3vlIQlQ7VF_-325" value="" style="endArrow=none;html=1;rounded=0;entryX=0.025;entryY=0.304;entryDx=0;entryDy=0;entryPerimeter=0;" edge="1" parent="1" target="S_xRD3oOY3vlIQlQ7VF_-333">
          <mxGeometry relative="1" as="geometry">
            <mxPoint x="27" y="2205" as="sourcePoint" />
            <mxPoint x="183" y="2552.0199999999995" as="targetPoint" />
          </mxGeometry>
        </mxCell>
        <mxCell id="S_xRD3oOY3vlIQlQ7VF_-328" value="" style="endArrow=none;html=1;rounded=0;entryX=0.213;entryY=0.9;entryDx=0;entryDy=0;entryPerimeter=0;" edge="1" parent="1" target="S_xRD3oOY3vlIQlQ7VF_-302">
          <mxGeometry relative="1" as="geometry">
            <mxPoint x="32.5" y="2422" as="sourcePoint" />
            <mxPoint x="442.5" y="2322" as="targetPoint" />
          </mxGeometry>
        </mxCell>
        <mxCell id="S_xRD3oOY3vlIQlQ7VF_-329" value="&amp;lt;&amp;lt;participate&amp;gt;&amp;gt;" style="edgeLabel;html=1;align=center;verticalAlign=middle;resizable=0;points=[];" vertex="1" connectable="0" parent="S_xRD3oOY3vlIQlQ7VF_-328">
          <mxGeometry x="0.1682" y="1" relative="1" as="geometry">
            <mxPoint x="46" y="-55" as="offset" />
          </mxGeometry>
        </mxCell>
        <mxCell id="S_xRD3oOY3vlIQlQ7VF_-333" value="UC4: Thay đổi mật khẩu" style="ellipse;whiteSpace=wrap;html=1;fillColor=#d0cee2;strokeColor=#56517e;" vertex="1" parent="1">
          <mxGeometry x="180" y="2214" width="140" height="70" as="geometry" />
        </mxCell>
        <mxCell id="S_xRD3oOY3vlIQlQ7VF_-334" value="" style="endArrow=none;html=1;rounded=0;entryX=0;entryY=1;entryDx=0;entryDy=0;" edge="1" parent="1" target="S_xRD3oOY3vlIQlQ7VF_-333">
          <mxGeometry width="50" height="50" relative="1" as="geometry">
            <mxPoint x="36" y="2430" as="sourcePoint" />
            <mxPoint x="437" y="2349" as="targetPoint" />
          </mxGeometry>
        </mxCell>
        <mxCell id="S_xRD3oOY3vlIQlQ7VF_-335" value="" style="endArrow=none;html=1;rounded=0;entryX=0;entryY=1;entryDx=0;entryDy=0;" edge="1" parent="1" target="S_xRD3oOY3vlIQlQ7VF_-309">
          <mxGeometry width="50" height="50" relative="1" as="geometry">
            <mxPoint x="36" y="2439" as="sourcePoint" />
            <mxPoint x="437" y="2349" as="targetPoint" />
          </mxGeometry>
        </mxCell>
        <mxCell id="S_xRD3oOY3vlIQlQ7VF_-336" value="" style="endArrow=none;html=1;rounded=0;entryX=0.062;entryY=0.248;entryDx=0;entryDy=0;entryPerimeter=0;" edge="1" parent="1" target="S_xRD3oOY3vlIQlQ7VF_-309">
          <mxGeometry width="50" height="50" relative="1" as="geometry">
            <mxPoint x="27" y="2214" as="sourcePoint" />
            <mxPoint x="437" y="2349" as="targetPoint" />
          </mxGeometry>
        </mxCell>
        <mxCell id="S_xRD3oOY3vlIQlQ7VF_-338" value="" style="endArrow=none;html=1;rounded=0;entryX=0.032;entryY=0.304;entryDx=0;entryDy=0;entryPerimeter=0;" edge="1" parent="1" target="S_xRD3oOY3vlIQlQ7VF_-304">
          <mxGeometry width="50" height="50" relative="1" as="geometry">
            <mxPoint x="27" y="2223" as="sourcePoint" />
            <mxPoint x="437" y="2241" as="targetPoint" />
          </mxGeometry>
        </mxCell>
        <mxCell id="S_xRD3oOY3vlIQlQ7VF_-339" value="" style="endArrow=none;html=1;rounded=0;exitX=0;exitY=0.5;exitDx=0;exitDy=0;" edge="1" parent="1" source="S_xRD3oOY3vlIQlQ7VF_-304">
          <mxGeometry width="50" height="50" relative="1" as="geometry">
            <mxPoint x="70" y="2536" as="sourcePoint" />
            <mxPoint x="36" y="2448" as="targetPoint" />
          </mxGeometry>
        </mxCell>
        <mxCell id="S_xRD3oOY3vlIQlQ7VF_-397" value="Use Case Diagram : Quản lí tài khoản" style="text;html=1;align=center;verticalAlign=middle;whiteSpace=wrap;rounded=0;" vertex="1" parent="1">
          <mxGeometry x="-378" y="2051" width="221" height="30" as="geometry" />
        </mxCell>
        <mxCell id="S_xRD3oOY3vlIQlQ7VF_-398" value="UC7: Xác thực người dùng" style="ellipse;whiteSpace=wrap;html=1;fillColor=#fad9d5;strokeColor=#ae4132;" vertex="1" parent="1">
          <mxGeometry x="440" y="2397" width="135" height="70" as="geometry" />
        </mxCell>
        <mxCell id="S_xRD3oOY3vlIQlQ7VF_-399" value="&amp;lt;&amp;lt;incl&lt;span style=&quot;background-color: light-dark(#ffffff, var(--ge-dark-color, #121212)); color: light-dark(rgb(0, 0, 0), rgb(255, 255, 255));&quot;&gt;ude&amp;gt;&amp;gt;&lt;/span&gt;" style="endArrow=open;endSize=12;dashed=1;html=1;rounded=0;exitX=1;exitY=0.5;exitDx=0;exitDy=0;entryX=0.5;entryY=1;entryDx=0;entryDy=0;" edge="1" parent="1" source="S_xRD3oOY3vlIQlQ7VF_-309" target="S_xRD3oOY3vlIQlQ7VF_-305">
          <mxGeometry x="0.0463" y="-2" width="160" relative="1" as="geometry">
            <mxPoint x="329" y="2258" as="sourcePoint" />
            <mxPoint x="554" y="2313" as="targetPoint" />
            <mxPoint as="offset" />
          </mxGeometry>
        </mxCell>
        <mxCell id="S_xRD3oOY3vlIQlQ7VF_-400" value="Use case diagram: Quản lí sản phẩm" style="text;html=1;align=center;verticalAlign=middle;whiteSpace=wrap;rounded=0;" vertex="1" parent="1">
          <mxGeometry x="-599" y="2694" width="245" height="30" as="geometry" />
        </mxCell>
        <mxCell id="S_xRD3oOY3vlIQlQ7VF_-402" value="Admin" style="shape=umlActor;verticalLabelPosition=bottom;verticalAlign=top;html=1;fillColor=#ffcc99;strokeColor=#36393d;" vertex="1" parent="1">
          <mxGeometry x="-58" y="2808" width="30" height="60" as="geometry" />
        </mxCell>
        <mxCell id="S_xRD3oOY3vlIQlQ7VF_-403" value="UC12: Nhập hàng" style="ellipse;whiteSpace=wrap;html=1;fillColor=#d0cee2;strokeColor=#56517e;" vertex="1" parent="1">
          <mxGeometry x="141.5" y="3195" width="140" height="70" as="geometry" />
        </mxCell>
        <mxCell id="S_xRD3oOY3vlIQlQ7VF_-404" value="UC1: Đăng nhập" style="ellipse;whiteSpace=wrap;html=1;fillColor=#fad9d5;strokeColor=#ae4132;" vertex="1" parent="1">
          <mxGeometry x="540" y="2990" width="140" height="70" as="geometry" />
        </mxCell>
        <mxCell id="S_xRD3oOY3vlIQlQ7VF_-406" value="UC11: Xuất hàng" style="ellipse;whiteSpace=wrap;html=1;fillColor=#d0cee2;strokeColor=#56517e;" vertex="1" parent="1">
          <mxGeometry x="136.5" y="3060" width="140" height="70" as="geometry" />
        </mxCell>
        <mxCell id="S_xRD3oOY3vlIQlQ7VF_-407" value="&amp;lt;&amp;lt;incl&lt;span style=&quot;background-color: light-dark(#ffffff, var(--ge-dark-color, #121212)); color: light-dark(rgb(0, 0, 0), rgb(255, 255, 255));&quot;&gt;ude&amp;gt;&amp;gt;&lt;/span&gt;" style="endArrow=open;endSize=12;dashed=1;html=1;rounded=0;exitX=1;exitY=0.5;exitDx=0;exitDy=0;entryX=0.018;entryY=0.289;entryDx=0;entryDy=0;entryPerimeter=0;" edge="1" parent="1" source="S_xRD3oOY3vlIQlQ7VF_-415" target="S_xRD3oOY3vlIQlQ7VF_-404">
          <mxGeometry width="160" relative="1" as="geometry">
            <mxPoint x="277" y="2873" as="sourcePoint" />
            <mxPoint x="550" y="2907" as="targetPoint" />
          </mxGeometry>
        </mxCell>
        <mxCell id="S_xRD3oOY3vlIQlQ7VF_-409" value="&amp;lt;&amp;lt;incl&lt;span style=&quot;background-color: light-dark(#ffffff, var(--ge-dark-color, #121212)); color: light-dark(rgb(0, 0, 0), rgb(255, 255, 255));&quot;&gt;ude&amp;gt;&amp;gt;&lt;/span&gt;" style="endArrow=open;endSize=12;dashed=1;html=1;rounded=0;exitX=0.96;exitY=0.692;exitDx=0;exitDy=0;entryX=0.5;entryY=0;entryDx=0;entryDy=0;exitPerimeter=0;" edge="1" parent="1" target="S_xRD3oOY3vlIQlQ7VF_-404" source="S_xRD3oOY3vlIQlQ7VF_-423">
          <mxGeometry x="0.2878" y="-2" width="160" relative="1" as="geometry">
            <mxPoint x="269.5" y="2763" as="sourcePoint" />
            <mxPoint x="462" y="2852" as="targetPoint" />
            <mxPoint as="offset" />
          </mxGeometry>
        </mxCell>
        <mxCell id="S_xRD3oOY3vlIQlQ7VF_-410" value="" style="endArrow=none;html=1;rounded=0;entryX=0.071;entryY=0.714;entryDx=0;entryDy=0;entryPerimeter=0;" edge="1" parent="1" target="S_xRD3oOY3vlIQlQ7VF_-423">
          <mxGeometry relative="1" as="geometry">
            <mxPoint x="-18.5" y="2862" as="sourcePoint" />
            <mxPoint x="134.5" y="2773" as="targetPoint" />
          </mxGeometry>
        </mxCell>
        <mxCell id="S_xRD3oOY3vlIQlQ7VF_-412" value="" style="endArrow=none;html=1;rounded=0;entryX=0.025;entryY=0.304;entryDx=0;entryDy=0;entryPerimeter=0;" edge="1" parent="1" target="S_xRD3oOY3vlIQlQ7VF_-415">
          <mxGeometry relative="1" as="geometry">
            <mxPoint x="-18.5" y="2871" as="sourcePoint" />
            <mxPoint x="137.5" y="3218.0199999999995" as="targetPoint" />
          </mxGeometry>
        </mxCell>
        <mxCell id="S_xRD3oOY3vlIQlQ7VF_-413" value="" style="endArrow=none;html=1;rounded=0;entryX=0;entryY=0.5;entryDx=0;entryDy=0;" edge="1" parent="1" target="S_xRD3oOY3vlIQlQ7VF_-524">
          <mxGeometry relative="1" as="geometry">
            <mxPoint x="-9" y="2871" as="sourcePoint" />
            <mxPoint x="54" y="3231" as="targetPoint" />
          </mxGeometry>
        </mxCell>
        <mxCell id="S_xRD3oOY3vlIQlQ7VF_-415" value="UC10: Xóa sản phẩm khỏi danh mục" style="ellipse;whiteSpace=wrap;html=1;fillColor=#d0cee2;strokeColor=#56517e;" vertex="1" parent="1">
          <mxGeometry x="143.5" y="2934" width="140" height="70" as="geometry" />
        </mxCell>
        <mxCell id="S_xRD3oOY3vlIQlQ7VF_-418" value="" style="endArrow=none;html=1;rounded=0;entryX=0.062;entryY=0.248;entryDx=0;entryDy=0;entryPerimeter=0;" edge="1" parent="1" target="S_xRD3oOY3vlIQlQ7VF_-406">
          <mxGeometry width="50" height="50" relative="1" as="geometry">
            <mxPoint x="-18.5" y="2880" as="sourcePoint" />
            <mxPoint x="391.5" y="3015" as="targetPoint" />
          </mxGeometry>
        </mxCell>
        <mxCell id="S_xRD3oOY3vlIQlQ7VF_-419" value="" style="endArrow=none;html=1;rounded=0;entryX=0.032;entryY=0.304;entryDx=0;entryDy=0;entryPerimeter=0;" edge="1" parent="1" target="S_xRD3oOY3vlIQlQ7VF_-403">
          <mxGeometry width="50" height="50" relative="1" as="geometry">
            <mxPoint x="-18.5" y="2889" as="sourcePoint" />
            <mxPoint x="391.5" y="2907" as="targetPoint" />
          </mxGeometry>
        </mxCell>
        <mxCell id="S_xRD3oOY3vlIQlQ7VF_-421" value="UC14: Xem lại lịch sử xuất-nhập hàng" style="ellipse;whiteSpace=wrap;html=1;fillColor=#d5e8d4;strokeColor=#82b366;" vertex="1" parent="1">
          <mxGeometry x="141.5" y="3321" width="135" height="70" as="geometry" />
        </mxCell>
        <mxCell id="S_xRD3oOY3vlIQlQ7VF_-422" value="&amp;lt;&amp;lt;incl&lt;span style=&quot;background-color: light-dark(#ffffff, var(--ge-dark-color, #121212)); color: light-dark(rgb(0, 0, 0), rgb(255, 255, 255));&quot;&gt;ude&amp;gt;&amp;gt;&lt;/span&gt;" style="endArrow=open;endSize=12;dashed=1;html=1;rounded=0;exitX=1;exitY=0.5;exitDx=0;exitDy=0;" edge="1" parent="1" source="S_xRD3oOY3vlIQlQ7VF_-406" target="S_xRD3oOY3vlIQlQ7VF_-404">
          <mxGeometry x="0.0463" y="-2" width="160" relative="1" as="geometry">
            <mxPoint x="283.5" y="2924" as="sourcePoint" />
            <mxPoint x="508.5" y="2979" as="targetPoint" />
            <mxPoint as="offset" />
          </mxGeometry>
        </mxCell>
        <mxCell id="S_xRD3oOY3vlIQlQ7VF_-423" value="UC8: Chỉnh sửa lại thông tin sản phẩm" style="ellipse;whiteSpace=wrap;html=1;fillColor=#d0cee2;strokeColor=#56517e;" vertex="1" parent="1">
          <mxGeometry x="143.5" y="2691" width="126" height="90" as="geometry" />
        </mxCell>
        <mxCell id="S_xRD3oOY3vlIQlQ7VF_-268" value="" style="endArrow=none;html=1;rounded=0;" edge="1" parent="1">
          <mxGeometry width="50" height="50" relative="1" as="geometry">
            <mxPoint x="806.52" y="1497.4489655172413" as="sourcePoint" />
            <mxPoint x="807" y="1467" as="targetPoint" />
          </mxGeometry>
        </mxCell>
        <mxCell id="S_xRD3oOY3vlIQlQ7VF_-248" value="&lt;font style=&quot;font-size: 15px;&quot;&gt;Báo cáo thống kê&lt;/font&gt;" style="rounded=1;whiteSpace=wrap;html=1;fillColor=#fad7ac;strokeColor=#b46504;container=0;" vertex="1" parent="1">
          <mxGeometry x="747" y="1497.4489655172413" width="150.5" height="59.172413793103445" as="geometry" />
        </mxCell>
        <mxCell id="S_xRD3oOY3vlIQlQ7VF_-249" value="" style="endArrow=none;html=1;rounded=0;" edge="1" parent="1">
          <mxGeometry width="50" height="50" relative="1" as="geometry">
            <mxPoint x="767" y="1746" as="sourcePoint" />
            <mxPoint x="767" y="1556.6213793103448" as="targetPoint" />
          </mxGeometry>
        </mxCell>
        <mxCell id="S_xRD3oOY3vlIQlQ7VF_-250" value="Báo cáo doanh thu" style="rounded=1;whiteSpace=wrap;html=1;container=0;fillColor=#b0e3e6;strokeColor=#0e8088;" vertex="1" parent="1">
          <mxGeometry x="792" y="1576.3455172413792" width="155" height="39.44827586206897" as="geometry" />
        </mxCell>
        <mxCell id="S_xRD3oOY3vlIQlQ7VF_-251" value="" style="endArrow=none;html=1;rounded=0;exitX=0;exitY=0.5;exitDx=0;exitDy=0;" edge="1" parent="1" source="S_xRD3oOY3vlIQlQ7VF_-250">
          <mxGeometry width="50" height="50" relative="1" as="geometry">
            <mxPoint x="1057" y="1655.2420689655173" as="sourcePoint" />
            <mxPoint x="767" y="1596.0696551724138" as="targetPoint" />
          </mxGeometry>
        </mxCell>
        <mxCell id="S_xRD3oOY3vlIQlQ7VF_-252" value="Xem thống kê hàng tồn" style="rounded=1;whiteSpace=wrap;html=1;container=0;fillColor=#b0e3e6;strokeColor=#0e8088;" vertex="1" parent="1">
          <mxGeometry x="792" y="1635.5179310344827" width="155" height="39.44827586206897" as="geometry" />
        </mxCell>
        <mxCell id="S_xRD3oOY3vlIQlQ7VF_-257" value="" style="endArrow=none;html=1;rounded=0;exitX=0;exitY=0.5;exitDx=0;exitDy=0;" edge="1" parent="1">
          <mxGeometry width="50" height="50" relative="1" as="geometry">
            <mxPoint x="792" y="1654.8278620689655" as="sourcePoint" />
            <mxPoint x="767" y="1654.8278620689655" as="targetPoint" />
          </mxGeometry>
        </mxCell>
        <mxCell id="S_xRD3oOY3vlIQlQ7VF_-522" value="UC8: Chỉnh sửa lại thông tin sản phẩm&lt;div&gt;UC9: Thêm sản phẩm mới vào danh mục&lt;/div&gt;&lt;div&gt;UC10: Xóa sản phẩm khỏi danh mục&lt;/div&gt;&lt;div&gt;UC11: Xuất hàng&lt;/div&gt;&lt;div&gt;UC12: Nhập hàng&lt;/div&gt;&lt;div&gt;UC13: Xem lại lịch sử xuất - nhập hàng&lt;/div&gt;&lt;div&gt;UC14: Cập nhật tồn kho&lt;/div&gt;" style="rounded=0;whiteSpace=wrap;html=1;align=left;" vertex="1" parent="1">
          <mxGeometry x="437" y="2717" width="243" height="117" as="geometry" />
        </mxCell>
        <mxCell id="S_xRD3oOY3vlIQlQ7VF_-524" value="UC9: Thêm sản phẩm mới vào danh mục" style="ellipse;whiteSpace=wrap;html=1;fillColor=#d0cee2;strokeColor=#56517e;" vertex="1" parent="1">
          <mxGeometry x="143.5" y="2808" width="126" height="90" as="geometry" />
        </mxCell>
        <mxCell id="S_xRD3oOY3vlIQlQ7VF_-527" value="User" style="shape=umlActor;verticalLabelPosition=bottom;verticalAlign=top;html=1;fillColor=#ffcc99;strokeColor=#36393d;" vertex="1" parent="1">
          <mxGeometry x="-58" y="3156" width="30" height="60" as="geometry" />
        </mxCell>
        <mxCell id="S_xRD3oOY3vlIQlQ7VF_-528" value="" style="endArrow=none;html=1;rounded=0;entryX=0;entryY=0.5;entryDx=0;entryDy=0;" edge="1" parent="1" target="S_xRD3oOY3vlIQlQ7VF_-421">
          <mxGeometry width="50" height="50" relative="1" as="geometry">
            <mxPoint x="-9" y="3221" as="sourcePoint" />
            <mxPoint x="428" y="3078" as="targetPoint" />
          </mxGeometry>
        </mxCell>
        <mxCell id="S_xRD3oOY3vlIQlQ7VF_-529" value="" style="endArrow=none;html=1;rounded=0;exitX=0.067;exitY=0.332;exitDx=0;exitDy=0;exitPerimeter=0;" edge="1" parent="1" source="S_xRD3oOY3vlIQlQ7VF_-421">
          <mxGeometry width="50" height="50" relative="1" as="geometry">
            <mxPoint x="135" y="3348" as="sourcePoint" />
            <mxPoint x="-18" y="2907" as="targetPoint" />
          </mxGeometry>
        </mxCell>
        <mxCell id="S_xRD3oOY3vlIQlQ7VF_-530" value="&amp;lt;&amp;lt;incl&lt;span style=&quot;background-color: light-dark(#ffffff, var(--ge-dark-color, #121212)); color: light-dark(rgb(0, 0, 0), rgb(255, 255, 255));&quot;&gt;ude&amp;gt;&amp;gt;&lt;/span&gt;" style="endArrow=open;endSize=12;dashed=1;html=1;rounded=0;exitX=1;exitY=0.5;exitDx=0;exitDy=0;entryX=0.5;entryY=1;entryDx=0;entryDy=0;" edge="1" parent="1" target="S_xRD3oOY3vlIQlQ7VF_-404">
          <mxGeometry x="0.0463" y="-2" width="160" relative="1" as="geometry">
            <mxPoint x="276.5" y="3223" as="sourcePoint" />
            <mxPoint x="619.5" y="3078" as="targetPoint" />
            <mxPoint as="offset" />
          </mxGeometry>
        </mxCell>
        <mxCell id="S_xRD3oOY3vlIQlQ7VF_-531" value="&amp;lt;&amp;lt;incl&lt;span style=&quot;background-color: light-dark(#ffffff, var(--ge-dark-color, #121212)); color: light-dark(rgb(0, 0, 0), rgb(255, 255, 255));&quot;&gt;ude&amp;gt;&amp;gt;&lt;/span&gt;" style="endArrow=open;endSize=12;dashed=1;html=1;rounded=0;exitX=1;exitY=0.5;exitDx=0;exitDy=0;entryX=0.668;entryY=0.975;entryDx=0;entryDy=0;entryPerimeter=0;" edge="1" parent="1" target="S_xRD3oOY3vlIQlQ7VF_-404">
          <mxGeometry x="0.0463" y="-2" width="160" relative="1" as="geometry">
            <mxPoint x="276.5" y="3358" as="sourcePoint" />
            <mxPoint x="619.5" y="3213" as="targetPoint" />
            <mxPoint as="offset" />
          </mxGeometry>
        </mxCell>
        <mxCell id="S_xRD3oOY3vlIQlQ7VF_-532" value="&amp;lt;&amp;lt;incl&lt;span style=&quot;background-color: light-dark(#ffffff, var(--ge-dark-color, #121212)); color: light-dark(rgb(0, 0, 0), rgb(255, 255, 255));&quot;&gt;ude&amp;gt;&amp;gt;&lt;/span&gt;" style="endArrow=open;endSize=12;dashed=1;html=1;rounded=0;exitX=0.96;exitY=0.692;exitDx=0;exitDy=0;entryX=0;entryY=0;entryDx=0;entryDy=0;exitPerimeter=0;" edge="1" parent="1" target="S_xRD3oOY3vlIQlQ7VF_-404">
          <mxGeometry x="0.2878" y="-2" width="160" relative="1" as="geometry">
            <mxPoint x="269.5" y="2850.5" as="sourcePoint" />
            <mxPoint x="615.5" y="3087.5" as="targetPoint" />
            <mxPoint as="offset" />
          </mxGeometry>
        </mxCell>
        <mxCell id="S_xRD3oOY3vlIQlQ7VF_-533" value="UC14: Cập nhật tồn kho" style="ellipse;whiteSpace=wrap;html=1;fillColor=#fad9d5;strokeColor=#ae4132;" vertex="1" parent="1">
          <mxGeometry x="524" y="3286" width="140" height="70" as="geometry" />
        </mxCell>
        <mxCell id="S_xRD3oOY3vlIQlQ7VF_-534" value="&amp;lt;&amp;lt;incl&lt;span style=&quot;background-color: light-dark(#ffffff, var(--ge-dark-color, #121212)); color: light-dark(rgb(0, 0, 0), rgb(255, 255, 255));&quot;&gt;ude&amp;gt;&amp;gt;&lt;/span&gt;" style="endArrow=open;endSize=12;dashed=1;html=1;rounded=0;exitX=1;exitY=0.5;exitDx=0;exitDy=0;entryX=0;entryY=0.5;entryDx=0;entryDy=0;" edge="1" parent="1" target="S_xRD3oOY3vlIQlQ7VF_-533">
          <mxGeometry x="0.444" y="2" width="160" relative="1" as="geometry">
            <mxPoint x="285.5" y="3232" as="sourcePoint" />
            <mxPoint x="619" y="3069" as="targetPoint" />
            <mxPoint as="offset" />
          </mxGeometry>
        </mxCell>
        <mxCell id="S_xRD3oOY3vlIQlQ7VF_-535" value="&amp;lt;&amp;lt;incl&lt;span style=&quot;background-color: light-dark(#ffffff, var(--ge-dark-color, #121212)); color: light-dark(rgb(0, 0, 0), rgb(255, 255, 255));&quot;&gt;ude&amp;gt;&amp;gt;&lt;/span&gt;" style="endArrow=open;endSize=12;dashed=1;html=1;rounded=0;exitX=1;exitY=1;exitDx=0;exitDy=0;" edge="1" parent="1" source="S_xRD3oOY3vlIQlQ7VF_-406" target="S_xRD3oOY3vlIQlQ7VF_-533">
          <mxGeometry x="0.5458" y="5" width="160" relative="1" as="geometry">
            <mxPoint x="294.5" y="3241" as="sourcePoint" />
            <mxPoint x="628" y="3078" as="targetPoint" />
            <mxPoint as="offset" />
          </mxGeometry>
        </mxCell>
        <mxCell id="S_xRD3oOY3vlIQlQ7VF_-536" value="Use Case diagram: Quản lí bán hàng" style="text;html=1;align=center;verticalAlign=middle;whiteSpace=wrap;rounded=0;" vertex="1" parent="1">
          <mxGeometry x="-630" y="3478" width="225" height="30" as="geometry" />
        </mxCell>
        <mxCell id="S_xRD3oOY3vlIQlQ7VF_-537" value="Admin" style="shape=umlActor;verticalLabelPosition=bottom;verticalAlign=top;html=1;fillColor=#fad7ac;strokeColor=#b46504;" vertex="1" parent="1">
          <mxGeometry x="-216" y="3708" width="39" height="81" as="geometry" />
        </mxCell>
        <mxCell id="S_xRD3oOY3vlIQlQ7VF_-541" value="User" style="shape=umlActor;verticalLabelPosition=bottom;verticalAlign=top;html=1;fillColor=#fad7ac;strokeColor=#b46504;" vertex="1" parent="1">
          <mxGeometry x="-216" y="3951" width="39" height="81" as="geometry" />
        </mxCell>
        <mxCell id="S_xRD3oOY3vlIQlQ7VF_-542" value="UC15: Tạo mới đơn hàng" style="ellipse;whiteSpace=wrap;html=1;fillColor=#e1d5e7;strokeColor=#9673a6;" vertex="1" parent="1">
          <mxGeometry x="61.5" y="3528" width="129.5" height="70" as="geometry" />
        </mxCell>
        <mxCell id="S_xRD3oOY3vlIQlQ7VF_-543" value="UC16: Thêm sản phẩm vào đơn hàng" style="ellipse;whiteSpace=wrap;html=1;fillColor=#e1d5e7;strokeColor=#9673a6;" vertex="1" parent="1">
          <mxGeometry x="54" y="3645" width="135.25" height="70" as="geometry" />
        </mxCell>
        <mxCell id="S_xRD3oOY3vlIQlQ7VF_-544" value="UC17: Xóa sản phẩm khỏi đơn hàng" style="ellipse;whiteSpace=wrap;html=1;fillColor=#e1d5e7;strokeColor=#9673a6;" vertex="1" parent="1">
          <mxGeometry x="61.5" y="3750" width="124.5" height="70" as="geometry" />
        </mxCell>
        <mxCell id="S_xRD3oOY3vlIQlQ7VF_-546" value="UC15: Tạo mới đơn hàng&lt;div&gt;UC16:Thêm sản phẩm vào đơn hàng&lt;/div&gt;&lt;div&gt;UC17: Xóa sản phẩm khổi đơn hàng&lt;/div&gt;&lt;div&gt;UC18: Xuất hóa đơn&lt;/div&gt;&lt;div&gt;UC19: Chỉnh sửa lại hóa đơn&lt;/div&gt;&lt;div&gt;UC20: Xem lại lịch sử đơn hàng&lt;/div&gt;&lt;div&gt;UC21: Xem đơn hàng&lt;/div&gt;" style="rounded=0;whiteSpace=wrap;html=1;align=left;" vertex="1" parent="1">
          <mxGeometry x="573" y="3496.14" width="219" height="101.86" as="geometry" />
        </mxCell>
        <mxCell id="S_xRD3oOY3vlIQlQ7VF_-548" value="UC18: Xuất hóa đơn" style="ellipse;whiteSpace=wrap;html=1;fillColor=#e1d5e7;strokeColor=#9673a6;" vertex="1" parent="1">
          <mxGeometry x="61.5" y="3870" width="126" height="70" as="geometry" />
        </mxCell>
        <mxCell id="S_xRD3oOY3vlIQlQ7VF_-549" value="UC19: Chỉnh sửa lại hóa đơn" style="ellipse;whiteSpace=wrap;html=1;fillColor=#d5e8d4;strokeColor=#82b366;" vertex="1" parent="1">
          <mxGeometry x="65" y="3969" width="126" height="70" as="geometry" />
        </mxCell>
        <mxCell id="S_xRD3oOY3vlIQlQ7VF_-550" value="UC20: Xem lại lịch sử đơn hàng" style="ellipse;whiteSpace=wrap;html=1;fillColor=#e1d5e7;strokeColor=#9673a6;" vertex="1" parent="1">
          <mxGeometry x="62.5" y="4077" width="126" height="70" as="geometry" />
        </mxCell>
        <mxCell id="S_xRD3oOY3vlIQlQ7VF_-551" value="UC14: Cập nhật tồn kho" style="ellipse;whiteSpace=wrap;html=1;fillColor=#f8cecc;strokeColor=#b85450;" vertex="1" parent="1">
          <mxGeometry x="440" y="4018" width="126" height="70" as="geometry" />
        </mxCell>
        <mxCell id="S_xRD3oOY3vlIQlQ7VF_-552" value="UC1: Đăng nhập" style="ellipse;whiteSpace=wrap;html=1;fillColor=#f8cecc;strokeColor=#b85450;" vertex="1" parent="1">
          <mxGeometry x="420" y="3796" width="120" height="80" as="geometry" />
        </mxCell>
        <mxCell id="S_xRD3oOY3vlIQlQ7VF_-553" value="" style="endArrow=none;html=1;rounded=0;entryX=0;entryY=0.5;entryDx=0;entryDy=0;" edge="1" parent="1" target="S_xRD3oOY3vlIQlQ7VF_-542">
          <mxGeometry width="50" height="50" relative="1" as="geometry">
            <mxPoint x="-162" y="3744" as="sourcePoint" />
            <mxPoint x="374" y="3753" as="targetPoint" />
          </mxGeometry>
        </mxCell>
        <mxCell id="S_xRD3oOY3vlIQlQ7VF_-554" value="" style="endArrow=none;html=1;rounded=0;entryX=0.03;entryY=0.652;entryDx=0;entryDy=0;entryPerimeter=0;" edge="1" parent="1" target="S_xRD3oOY3vlIQlQ7VF_-543">
          <mxGeometry width="50" height="50" relative="1" as="geometry">
            <mxPoint x="-162" y="3753" as="sourcePoint" />
            <mxPoint x="-130" y="3762" as="targetPoint" />
          </mxGeometry>
        </mxCell>
        <mxCell id="S_xRD3oOY3vlIQlQ7VF_-555" value="" style="endArrow=none;html=1;rounded=0;entryX=0;entryY=0.5;entryDx=0;entryDy=0;" edge="1" parent="1" target="S_xRD3oOY3vlIQlQ7VF_-544">
          <mxGeometry width="50" height="50" relative="1" as="geometry">
            <mxPoint x="-162" y="3762" as="sourcePoint" />
            <mxPoint x="374" y="3753" as="targetPoint" />
          </mxGeometry>
        </mxCell>
        <mxCell id="S_xRD3oOY3vlIQlQ7VF_-556" value="" style="endArrow=none;html=1;rounded=0;exitX=0;exitY=0.5;exitDx=0;exitDy=0;" edge="1" parent="1" source="S_xRD3oOY3vlIQlQ7VF_-548">
          <mxGeometry width="50" height="50" relative="1" as="geometry">
            <mxPoint x="324" y="3803" as="sourcePoint" />
            <mxPoint x="-162" y="3771" as="targetPoint" />
          </mxGeometry>
        </mxCell>
        <mxCell id="S_xRD3oOY3vlIQlQ7VF_-557" value="" style="endArrow=none;html=1;rounded=0;entryX=0;entryY=0.5;entryDx=0;entryDy=0;" edge="1" parent="1" target="S_xRD3oOY3vlIQlQ7VF_-549">
          <mxGeometry width="50" height="50" relative="1" as="geometry">
            <mxPoint x="-162" y="3780" as="sourcePoint" />
            <mxPoint x="374" y="3753" as="targetPoint" />
          </mxGeometry>
        </mxCell>
        <mxCell id="S_xRD3oOY3vlIQlQ7VF_-558" value="" style="endArrow=none;html=1;rounded=0;exitX=-0.003;exitY=0.353;exitDx=0;exitDy=0;exitPerimeter=0;" edge="1" parent="1" source="S_xRD3oOY3vlIQlQ7VF_-550">
          <mxGeometry width="50" height="50" relative="1" as="geometry">
            <mxPoint x="324" y="3803" as="sourcePoint" />
            <mxPoint x="-162" y="3798" as="targetPoint" />
          </mxGeometry>
        </mxCell>
        <mxCell id="S_xRD3oOY3vlIQlQ7VF_-559" value="&amp;lt;&amp;lt;incl&lt;span style=&quot;background-color: light-dark(#ffffff, var(--ge-dark-color, #121212)); color: light-dark(rgb(0, 0, 0), rgb(255, 255, 255));&quot;&gt;ude&amp;gt;&amp;gt;&lt;/span&gt;" style="endArrow=open;endSize=12;dashed=1;html=1;rounded=0;entryX=0.409;entryY=0.069;entryDx=0;entryDy=0;entryPerimeter=0;" edge="1" parent="1" source="S_xRD3oOY3vlIQlQ7VF_-542" target="S_xRD3oOY3vlIQlQ7VF_-552">
          <mxGeometry x="0.444" y="2" width="160" relative="1" as="geometry">
            <mxPoint x="128.5" y="3558" as="sourcePoint" />
            <mxPoint x="504" y="3789" as="targetPoint" />
            <mxPoint as="offset" />
          </mxGeometry>
        </mxCell>
        <mxCell id="S_xRD3oOY3vlIQlQ7VF_-560" value="&amp;lt;&amp;lt;incl&lt;span style=&quot;background-color: light-dark(#ffffff, var(--ge-dark-color, #121212)); color: light-dark(rgb(0, 0, 0), rgb(255, 255, 255));&quot;&gt;ude&amp;gt;&amp;gt;&lt;/span&gt;" style="endArrow=open;endSize=12;dashed=1;html=1;rounded=0;exitX=0.966;exitY=0.308;exitDx=0;exitDy=0;entryX=0.255;entryY=0.999;entryDx=0;entryDy=0;exitPerimeter=0;entryPerimeter=0;" edge="1" parent="1" source="S_xRD3oOY3vlIQlQ7VF_-549" target="S_xRD3oOY3vlIQlQ7VF_-552">
          <mxGeometry x="0.444" y="2" width="160" relative="1" as="geometry">
            <mxPoint x="125" y="3996" as="sourcePoint" />
            <mxPoint x="367.5" y="4096" as="targetPoint" />
            <mxPoint as="offset" />
          </mxGeometry>
        </mxCell>
        <mxCell id="S_xRD3oOY3vlIQlQ7VF_-561" value="&amp;lt;&amp;lt;incl&lt;span style=&quot;background-color: light-dark(#ffffff, var(--ge-dark-color, #121212)); color: light-dark(rgb(0, 0, 0), rgb(255, 255, 255));&quot;&gt;ude&amp;gt;&amp;gt;&lt;/span&gt;" style="endArrow=open;endSize=12;dashed=1;html=1;rounded=0;exitX=1;exitY=0.5;exitDx=0;exitDy=0;" edge="1" parent="1" source="S_xRD3oOY3vlIQlQ7VF_-544" target="S_xRD3oOY3vlIQlQ7VF_-552">
          <mxGeometry x="0.444" y="2" width="160" relative="1" as="geometry">
            <mxPoint x="117.5" y="3771" as="sourcePoint" />
            <mxPoint x="360" y="3871" as="targetPoint" />
            <mxPoint as="offset" />
          </mxGeometry>
        </mxCell>
        <mxCell id="S_xRD3oOY3vlIQlQ7VF_-562" value="&amp;lt;&amp;lt;incl&lt;span style=&quot;background-color: light-dark(#ffffff, var(--ge-dark-color, #121212)); color: light-dark(rgb(0, 0, 0), rgb(255, 255, 255));&quot;&gt;ude&amp;gt;&amp;gt;&lt;/span&gt;" style="endArrow=open;endSize=12;dashed=1;html=1;rounded=0;exitX=1;exitY=0.5;exitDx=0;exitDy=0;entryX=0.05;entryY=0.212;entryDx=0;entryDy=0;entryPerimeter=0;" edge="1" parent="1" source="S_xRD3oOY3vlIQlQ7VF_-543" target="S_xRD3oOY3vlIQlQ7VF_-552">
          <mxGeometry x="0.444" y="2" width="160" relative="1" as="geometry">
            <mxPoint x="123.5" y="3681" as="sourcePoint" />
            <mxPoint x="366" y="3781" as="targetPoint" />
            <mxPoint as="offset" />
          </mxGeometry>
        </mxCell>
        <mxCell id="S_xRD3oOY3vlIQlQ7VF_-563" value="&amp;lt;&amp;lt;incl&lt;span style=&quot;background-color: light-dark(#ffffff, var(--ge-dark-color, #121212)); color: light-dark(rgb(0, 0, 0), rgb(255, 255, 255));&quot;&gt;ude&amp;gt;&amp;gt;&lt;/span&gt;" style="endArrow=open;endSize=12;dashed=1;html=1;rounded=0;exitX=1;exitY=0.5;exitDx=0;exitDy=0;entryX=0;entryY=0.5;entryDx=0;entryDy=0;" edge="1" parent="1" source="S_xRD3oOY3vlIQlQ7VF_-548" target="S_xRD3oOY3vlIQlQ7VF_-551">
          <mxGeometry x="0.444" y="2" width="160" relative="1" as="geometry">
            <mxPoint x="123.5" y="3888" as="sourcePoint" />
            <mxPoint x="366" y="3988" as="targetPoint" />
            <mxPoint as="offset" />
          </mxGeometry>
        </mxCell>
        <mxCell id="S_xRD3oOY3vlIQlQ7VF_-564" value="&amp;lt;&amp;lt;incl&lt;span style=&quot;background-color: light-dark(#ffffff, var(--ge-dark-color, #121212)); color: light-dark(rgb(0, 0, 0), rgb(255, 255, 255));&quot;&gt;ude&amp;gt;&amp;gt;&lt;/span&gt;" style="endArrow=open;endSize=12;dashed=1;html=1;rounded=0;exitX=1;exitY=0;exitDx=0;exitDy=0;entryX=0.5;entryY=1;entryDx=0;entryDy=0;" edge="1" parent="1" source="S_xRD3oOY3vlIQlQ7VF_-550" target="S_xRD3oOY3vlIQlQ7VF_-552">
          <mxGeometry x="0.444" y="2" width="160" relative="1" as="geometry">
            <mxPoint x="125" y="4093" as="sourcePoint" />
            <mxPoint x="371" y="3811" as="targetPoint" />
            <mxPoint as="offset" />
          </mxGeometry>
        </mxCell>
        <mxCell id="S_xRD3oOY3vlIQlQ7VF_-565" value="" style="endArrow=none;html=1;rounded=0;entryX=0;entryY=1;entryDx=0;entryDy=0;" edge="1" parent="1" target="S_xRD3oOY3vlIQlQ7VF_-542">
          <mxGeometry width="50" height="50" relative="1" as="geometry">
            <mxPoint x="-171" y="3981" as="sourcePoint" />
            <mxPoint x="-121" y="3931" as="targetPoint" />
          </mxGeometry>
        </mxCell>
        <mxCell id="S_xRD3oOY3vlIQlQ7VF_-566" value="" style="endArrow=none;html=1;rounded=0;entryX=0;entryY=1;entryDx=0;entryDy=0;" edge="1" parent="1" target="S_xRD3oOY3vlIQlQ7VF_-543">
          <mxGeometry width="50" height="50" relative="1" as="geometry">
            <mxPoint x="-171" y="3996" as="sourcePoint" />
            <mxPoint x="-112" y="3942" as="targetPoint" />
          </mxGeometry>
        </mxCell>
        <mxCell id="S_xRD3oOY3vlIQlQ7VF_-567" value="&amp;lt;&amp;lt;incl&lt;span style=&quot;background-color: light-dark(#ffffff, var(--ge-dark-color, #121212)); color: light-dark(rgb(0, 0, 0), rgb(255, 255, 255));&quot;&gt;ude&amp;gt;&amp;gt;&lt;/span&gt;" style="endArrow=open;endSize=12;dashed=1;html=1;rounded=0;entryX=0;entryY=1;entryDx=0;entryDy=0;exitX=1;exitY=0;exitDx=0;exitDy=0;" edge="1" parent="1" source="S_xRD3oOY3vlIQlQ7VF_-548" target="S_xRD3oOY3vlIQlQ7VF_-552">
          <mxGeometry x="0.444" y="2" width="160" relative="1" as="geometry">
            <mxPoint x="189" y="3888" as="sourcePoint" />
            <mxPoint x="363" y="4066" as="targetPoint" />
            <mxPoint as="offset" />
          </mxGeometry>
        </mxCell>
        <mxCell id="S_xRD3oOY3vlIQlQ7VF_-568" value="" style="endArrow=none;html=1;rounded=0;entryX=0;entryY=1;entryDx=0;entryDy=0;" edge="1" parent="1" target="S_xRD3oOY3vlIQlQ7VF_-544">
          <mxGeometry width="50" height="50" relative="1" as="geometry">
            <mxPoint x="-162" y="4005" as="sourcePoint" />
            <mxPoint x="374" y="3915" as="targetPoint" />
          </mxGeometry>
        </mxCell>
        <mxCell id="S_xRD3oOY3vlIQlQ7VF_-569" value="" style="endArrow=none;html=1;rounded=0;" edge="1" parent="1" target="S_xRD3oOY3vlIQlQ7VF_-548">
          <mxGeometry width="50" height="50" relative="1" as="geometry">
            <mxPoint x="-162" y="4023" as="sourcePoint" />
            <mxPoint x="374" y="3915" as="targetPoint" />
          </mxGeometry>
        </mxCell>
        <mxCell id="S_xRD3oOY3vlIQlQ7VF_-570" value="" style="endArrow=none;html=1;rounded=0;entryX=0;entryY=1;entryDx=0;entryDy=0;" edge="1" parent="1" target="S_xRD3oOY3vlIQlQ7VF_-550">
          <mxGeometry width="50" height="50" relative="1" as="geometry">
            <mxPoint x="-162" y="4041" as="sourcePoint" />
            <mxPoint x="374" y="3915" as="targetPoint" />
          </mxGeometry>
        </mxCell>
        <mxCell id="S_xRD3oOY3vlIQlQ7VF_-571" value="UC21: Xem đơn hàng" style="ellipse;whiteSpace=wrap;html=1;fillColor=#f8cecc;strokeColor=#b85450;" vertex="1" parent="1">
          <mxGeometry x="400" y="3575" width="129.5" height="70" as="geometry" />
        </mxCell>
        <mxCell id="S_xRD3oOY3vlIQlQ7VF_-573" value="&amp;lt;&amp;lt;extend&lt;span style=&quot;background-color: light-dark(#ffffff, var(--ge-dark-color, #121212)); color: light-dark(rgb(0, 0, 0), rgb(255, 255, 255));&quot;&gt;&amp;gt;&amp;gt;&lt;/span&gt;" style="endArrow=open;endSize=12;dashed=1;html=1;rounded=0;exitX=1;exitY=0;exitDx=0;exitDy=0;entryX=0.047;entryY=0.687;entryDx=0;entryDy=0;entryPerimeter=0;" edge="1" parent="1" target="S_xRD3oOY3vlIQlQ7VF_-571">
          <mxGeometry x="0.444" y="2" width="160" relative="1" as="geometry">
            <mxPoint x="178" y="3664" as="sourcePoint" />
            <mxPoint x="409" y="3748" as="targetPoint" />
            <mxPoint as="offset" />
          </mxGeometry>
        </mxCell>
        <mxCell id="S_xRD3oOY3vlIQlQ7VF_-574" value="&amp;lt;&amp;lt;extend&lt;span style=&quot;background-color: light-dark(#ffffff, var(--ge-dark-color, #121212)); color: light-dark(rgb(0, 0, 0), rgb(255, 255, 255));&quot;&gt;&amp;gt;&amp;gt;&lt;/span&gt;" style="endArrow=open;endSize=12;dashed=1;html=1;rounded=0;exitX=1;exitY=0;exitDx=0;exitDy=0;entryX=0.253;entryY=0.065;entryDx=0;entryDy=0;entryPerimeter=0;" edge="1" parent="1" target="S_xRD3oOY3vlIQlQ7VF_-571">
          <mxGeometry x="0.3637" y="1" width="160" relative="1" as="geometry">
            <mxPoint x="189" y="3568" as="sourcePoint" />
            <mxPoint x="410" y="3483" as="targetPoint" />
            <mxPoint as="offset" />
          </mxGeometry>
        </mxCell>
        <mxCell id="S_xRD3oOY3vlIQlQ7VF_-575" value="&amp;lt;&amp;lt;extend&lt;span style=&quot;background-color: light-dark(#ffffff, var(--ge-dark-color, #121212)); color: light-dark(rgb(0, 0, 0), rgb(255, 255, 255));&quot;&gt;&amp;gt;&amp;gt;&lt;/span&gt;" style="endArrow=open;endSize=12;dashed=1;html=1;rounded=0;exitX=0.974;exitY=0.296;exitDx=0;exitDy=0;entryX=0.332;entryY=0.97;entryDx=0;entryDy=0;exitPerimeter=0;entryPerimeter=0;" edge="1" parent="1" source="S_xRD3oOY3vlIQlQ7VF_-544" target="S_xRD3oOY3vlIQlQ7VF_-571">
          <mxGeometry x="0.6217" y="-6" width="160" relative="1" as="geometry">
            <mxPoint x="187" y="3673" as="sourcePoint" />
            <mxPoint x="408" y="3588" as="targetPoint" />
            <mxPoint as="offset" />
          </mxGeometry>
        </mxCell>
        <mxCell id="S_xRD3oOY3vlIQlQ7VF_-577" value="Use case diagram: Quản lí nhân viên" style="text;html=1;align=center;verticalAlign=middle;whiteSpace=wrap;rounded=0;" vertex="1" parent="1">
          <mxGeometry x="-207" y="4239" width="216" height="30" as="geometry" />
        </mxCell>
        <mxCell id="S_xRD3oOY3vlIQlQ7VF_-578" value="Use case diagram: Báo cáo thông kê" style="text;html=1;align=center;verticalAlign=middle;whiteSpace=wrap;rounded=0;" vertex="1" parent="1">
          <mxGeometry x="-211.5" y="4815" width="216" height="30" as="geometry" />
        </mxCell>
        <mxCell id="S_xRD3oOY3vlIQlQ7VF_-579" value="Admin" style="shape=umlActor;verticalLabelPosition=bottom;verticalAlign=top;html=1;outlineConnect=0;" vertex="1" parent="1">
          <mxGeometry x="-160" y="4374" width="30" height="63" as="geometry" />
        </mxCell>
        <mxCell id="S_xRD3oOY3vlIQlQ7VF_-581" value="UC22: Xem thông tin cá nhân của nhân viên" style="ellipse;whiteSpace=wrap;html=1;" vertex="1" parent="1">
          <mxGeometry x="1" y="4572" width="129" height="81" as="geometry" />
        </mxCell>
        <mxCell id="S_xRD3oOY3vlIQlQ7VF_-582" value="UC23: Cập nhật thông tin của nhân viên" style="ellipse;whiteSpace=wrap;html=1;" vertex="1" parent="1">
          <mxGeometry x="1" y="4338" width="120" height="80" as="geometry" />
        </mxCell>
        <mxCell id="S_xRD3oOY3vlIQlQ7VF_-583" value="UC24: Xóa nhân viên" style="ellipse;whiteSpace=wrap;html=1;" vertex="1" parent="1">
          <mxGeometry y="4456" width="120" height="80" as="geometry" />
        </mxCell>
        <mxCell id="S_xRD3oOY3vlIQlQ7VF_-584" value="UC25: Theo dõi doanh số theo cá nhân" style="ellipse;whiteSpace=wrap;html=1;" vertex="1" parent="1">
          <mxGeometry y="4698" width="120" height="80" as="geometry" />
        </mxCell>
        <mxCell id="S_xRD3oOY3vlIQlQ7VF_-585" value="UC22: Xem thông tin cá nhân của nhân viên&lt;div&gt;UC23: Cập nhật thông tin cá nhân của nhân viên&lt;/div&gt;&lt;div&gt;UC24: Xóa nhân viên&lt;/div&gt;&lt;div&gt;UC25: Theo dõi doanh số theo cá nhân&lt;/div&gt;&lt;div&gt;&lt;br&gt;&lt;/div&gt;" style="rounded=0;whiteSpace=wrap;html=1;align=left;" vertex="1" parent="1">
          <mxGeometry x="425.5" y="4383" width="289" height="90" as="geometry" />
        </mxCell>
        <mxCell id="S_xRD3oOY3vlIQlQ7VF_-586" value="UC26: Báo cáo doanh thu&lt;div&gt;UC27: Thống kê hàng tồn&lt;/div&gt;&lt;div&gt;UC28: Xem tổng doanh thu theo ngày&lt;/div&gt;&lt;div&gt;UC29: Xem lại báo cáo doanh thu&lt;/div&gt;" style="rounded=0;whiteSpace=wrap;html=1;align=left;" vertex="1" parent="1">
          <mxGeometry x="400" y="4897" width="216" height="60" as="geometry" />
        </mxCell>
        <mxCell id="S_xRD3oOY3vlIQlQ7VF_-587" value="Xem tổng doanh thu trong ngày&amp;nbsp;" style="rounded=1;whiteSpace=wrap;html=1;container=0;fillColor=#b0e3e6;strokeColor=#0e8088;" vertex="1" parent="1">
          <mxGeometry x="792" y="1691.9979310344827" width="155" height="39.44827586206897" as="geometry" />
        </mxCell>
        <mxCell id="S_xRD3oOY3vlIQlQ7VF_-588" value="" style="endArrow=none;html=1;rounded=0;exitX=0;exitY=0.5;exitDx=0;exitDy=0;" edge="1" parent="1">
          <mxGeometry width="50" height="50" relative="1" as="geometry">
            <mxPoint x="792" y="1711.2178620689656" as="sourcePoint" />
            <mxPoint x="767" y="1711.2178620689656" as="targetPoint" />
          </mxGeometry>
        </mxCell>
        <mxCell id="S_xRD3oOY3vlIQlQ7VF_-589" value="User" style="shape=umlActor;verticalLabelPosition=bottom;verticalAlign=top;html=1;outlineConnect=0;" vertex="1" parent="1">
          <mxGeometry x="-160" y="4608" width="30" height="60" as="geometry" />
        </mxCell>
        <mxCell id="S_xRD3oOY3vlIQlQ7VF_-590" value="UC1: Đăng nhập" style="ellipse;whiteSpace=wrap;html=1;" vertex="1" parent="1">
          <mxGeometry x="333" y="4536" width="120" height="80" as="geometry" />
        </mxCell>
        <mxCell id="S_xRD3oOY3vlIQlQ7VF_-591" value="&amp;lt;&amp;lt;incl&lt;span style=&quot;background-color: light-dark(#ffffff, var(--ge-dark-color, #121212)); color: light-dark(rgb(0, 0, 0), rgb(255, 255, 255));&quot;&gt;ude&amp;gt;&amp;gt;&lt;/span&gt;" style="endArrow=open;endSize=12;dashed=1;html=1;rounded=0;exitX=1;exitY=0.5;exitDx=0;exitDy=0;entryX=0;entryY=0;entryDx=0;entryDy=0;" edge="1" parent="1" source="S_xRD3oOY3vlIQlQ7VF_-582" target="S_xRD3oOY3vlIQlQ7VF_-590">
          <mxGeometry x="0.444" y="2" width="160" relative="1" as="geometry">
            <mxPoint x="167" y="4309" as="sourcePoint" />
            <mxPoint x="510" y="4092" as="targetPoint" />
            <mxPoint as="offset" />
          </mxGeometry>
        </mxCell>
        <mxCell id="S_xRD3oOY3vlIQlQ7VF_-592" value="&amp;lt;&amp;lt;incl&lt;span style=&quot;background-color: light-dark(#ffffff, var(--ge-dark-color, #121212)); color: light-dark(rgb(0, 0, 0), rgb(255, 255, 255));&quot;&gt;ude&amp;gt;&amp;gt;&lt;/span&gt;" style="endArrow=open;endSize=12;dashed=1;html=1;rounded=0;exitX=0.905;exitY=0.756;exitDx=0;exitDy=0;entryX=0.019;entryY=0.656;entryDx=0;entryDy=0;entryPerimeter=0;exitPerimeter=0;" edge="1" parent="1" source="S_xRD3oOY3vlIQlQ7VF_-583" target="S_xRD3oOY3vlIQlQ7VF_-590">
          <mxGeometry x="0.444" y="2" width="160" relative="1" as="geometry">
            <mxPoint x="119" y="4509" as="sourcePoint" />
            <mxPoint x="299" y="4651" as="targetPoint" />
            <mxPoint as="offset" />
          </mxGeometry>
        </mxCell>
        <mxCell id="S_xRD3oOY3vlIQlQ7VF_-593" value="&amp;lt;&amp;lt;incl&lt;span style=&quot;background-color: light-dark(#ffffff, var(--ge-dark-color, #121212)); color: light-dark(rgb(0, 0, 0), rgb(255, 255, 255));&quot;&gt;ude&amp;gt;&amp;gt;&lt;/span&gt;" style="endArrow=open;endSize=12;dashed=1;html=1;rounded=0;exitX=1;exitY=0.5;exitDx=0;exitDy=0;entryX=0;entryY=1;entryDx=0;entryDy=0;" edge="1" parent="1" source="S_xRD3oOY3vlIQlQ7VF_-581" target="S_xRD3oOY3vlIQlQ7VF_-590">
          <mxGeometry x="0.444" y="2" width="160" relative="1" as="geometry">
            <mxPoint x="139" y="4396" as="sourcePoint" />
            <mxPoint x="319" y="4538" as="targetPoint" />
            <mxPoint as="offset" />
          </mxGeometry>
        </mxCell>
        <mxCell id="S_xRD3oOY3vlIQlQ7VF_-594" value="&amp;lt;&amp;lt;incl&lt;span style=&quot;background-color: light-dark(#ffffff, var(--ge-dark-color, #121212)); color: light-dark(rgb(0, 0, 0), rgb(255, 255, 255));&quot;&gt;ude&amp;gt;&amp;gt;&lt;/span&gt;" style="endArrow=open;endSize=12;dashed=1;html=1;rounded=0;exitX=0.994;exitY=0.419;exitDx=0;exitDy=0;entryX=0;entryY=1;entryDx=0;entryDy=0;exitPerimeter=0;" edge="1" parent="1" source="S_xRD3oOY3vlIQlQ7VF_-584">
          <mxGeometry x="0.444" y="2" width="160" relative="1" as="geometry">
            <mxPoint x="139" y="4621" as="sourcePoint" />
            <mxPoint x="360" y="4613" as="targetPoint" />
            <mxPoint as="offset" />
          </mxGeometry>
        </mxCell>
        <mxCell id="S_xRD3oOY3vlIQlQ7VF_-596" value="" style="endArrow=none;html=1;rounded=0;entryX=-0.008;entryY=0.675;entryDx=0;entryDy=0;entryPerimeter=0;" edge="1" parent="1" target="S_xRD3oOY3vlIQlQ7VF_-582">
          <mxGeometry width="50" height="50" relative="1" as="geometry">
            <mxPoint x="-117" y="4451" as="sourcePoint" />
            <mxPoint x="-67" y="4401" as="targetPoint" />
          </mxGeometry>
        </mxCell>
        <mxCell id="S_xRD3oOY3vlIQlQ7VF_-597" value="" style="endArrow=none;html=1;rounded=0;entryX=0;entryY=0.5;entryDx=0;entryDy=0;" edge="1" parent="1" target="S_xRD3oOY3vlIQlQ7VF_-583">
          <mxGeometry width="50" height="50" relative="1" as="geometry">
            <mxPoint x="-117" y="4464" as="sourcePoint" />
            <mxPoint x="365" y="4572" as="targetPoint" />
          </mxGeometry>
        </mxCell>
        <mxCell id="S_xRD3oOY3vlIQlQ7VF_-598" value="" style="endArrow=none;html=1;rounded=0;entryX=0.048;entryY=0.357;entryDx=0;entryDy=0;entryPerimeter=0;" edge="1" parent="1" target="S_xRD3oOY3vlIQlQ7VF_-581">
          <mxGeometry width="50" height="50" relative="1" as="geometry">
            <mxPoint x="-117" y="4473" as="sourcePoint" />
            <mxPoint x="365" y="4572" as="targetPoint" />
          </mxGeometry>
        </mxCell>
        <mxCell id="S_xRD3oOY3vlIQlQ7VF_-599" value="" style="endArrow=none;html=1;rounded=0;entryX=0.031;entryY=0.286;entryDx=0;entryDy=0;entryPerimeter=0;" edge="1" parent="1" target="S_xRD3oOY3vlIQlQ7VF_-584">
          <mxGeometry width="50" height="50" relative="1" as="geometry">
            <mxPoint x="-117" y="4482" as="sourcePoint" />
            <mxPoint x="365" y="4572" as="targetPoint" />
          </mxGeometry>
        </mxCell>
        <mxCell id="S_xRD3oOY3vlIQlQ7VF_-601" value="" style="endArrow=none;html=1;rounded=0;entryX=0.055;entryY=0.752;entryDx=0;entryDy=0;entryPerimeter=0;" edge="1" parent="1" target="S_xRD3oOY3vlIQlQ7VF_-581">
          <mxGeometry width="50" height="50" relative="1" as="geometry">
            <mxPoint x="-117" y="4667" as="sourcePoint" />
            <mxPoint x="-67" y="4617" as="targetPoint" />
          </mxGeometry>
        </mxCell>
        <mxCell id="S_xRD3oOY3vlIQlQ7VF_-602" value="" style="endArrow=none;html=1;rounded=0;exitX=0.023;exitY=0.653;exitDx=0;exitDy=0;exitPerimeter=0;" edge="1" parent="1" source="S_xRD3oOY3vlIQlQ7VF_-584">
          <mxGeometry width="50" height="50" relative="1" as="geometry">
            <mxPoint x="-144" y="4784" as="sourcePoint" />
            <mxPoint x="-117" y="4680" as="targetPoint" />
          </mxGeometry>
        </mxCell>
        <mxCell id="S_xRD3oOY3vlIQlQ7VF_-603" value="Admin" style="shape=umlActor;verticalLabelPosition=bottom;verticalAlign=top;html=1;outlineConnect=0;" vertex="1" parent="1">
          <mxGeometry x="-172.5" y="4923" width="30" height="63" as="geometry" />
        </mxCell>
        <mxCell id="S_xRD3oOY3vlIQlQ7VF_-604" value="UC28: Xem tổng doanh thu trong ngày" style="ellipse;whiteSpace=wrap;html=1;" vertex="1" parent="1">
          <mxGeometry x="-11.5" y="5121" width="92.5" height="81" as="geometry" />
        </mxCell>
        <mxCell id="S_xRD3oOY3vlIQlQ7VF_-605" value="UC26: Báo cáo doanh thu" style="ellipse;whiteSpace=wrap;html=1;" vertex="1" parent="1">
          <mxGeometry x="-11.5" y="4887" width="101.5" height="80" as="geometry" />
        </mxCell>
        <mxCell id="S_xRD3oOY3vlIQlQ7VF_-606" value="UC27: Thống kê hàng tồn" style="ellipse;whiteSpace=wrap;html=1;" vertex="1" parent="1">
          <mxGeometry x="-12.5" y="5005" width="102.5" height="80" as="geometry" />
        </mxCell>
        <mxCell id="S_xRD3oOY3vlIQlQ7VF_-607" value="UC29: Xem lại báo cáo doanh thu" style="ellipse;whiteSpace=wrap;html=1;" vertex="1" parent="1">
          <mxGeometry x="-12.5" y="5247" width="111.5" height="80" as="geometry" />
        </mxCell>
        <mxCell id="S_xRD3oOY3vlIQlQ7VF_-608" value="User" style="shape=umlActor;verticalLabelPosition=bottom;verticalAlign=top;html=1;outlineConnect=0;" vertex="1" parent="1">
          <mxGeometry x="-172.5" y="5157" width="30" height="60" as="geometry" />
        </mxCell>
        <mxCell id="S_xRD3oOY3vlIQlQ7VF_-609" value="&amp;lt;&amp;lt;incl&lt;span style=&quot;background-color: light-dark(#ffffff, var(--ge-dark-color, #121212)); color: light-dark(rgb(0, 0, 0), rgb(255, 255, 255));&quot;&gt;ude&amp;gt;&amp;gt;&lt;/span&gt;" style="endArrow=open;endSize=12;dashed=1;html=1;rounded=0;exitX=1;exitY=0.5;exitDx=0;exitDy=0;entryX=0.262;entryY=0.049;entryDx=0;entryDy=0;entryPerimeter=0;" edge="1" parent="1" source="S_xRD3oOY3vlIQlQ7VF_-605" target="S_xRD3oOY3vlIQlQ7VF_-619">
          <mxGeometry x="0.444" y="2" width="160" relative="1" as="geometry">
            <mxPoint x="154.5" y="4858" as="sourcePoint" />
            <mxPoint x="338.5" y="5097" as="targetPoint" />
            <mxPoint as="offset" />
          </mxGeometry>
        </mxCell>
        <mxCell id="S_xRD3oOY3vlIQlQ7VF_-610" value="&amp;lt;&amp;lt;incl&lt;span style=&quot;background-color: light-dark(#ffffff, var(--ge-dark-color, #121212)); color: light-dark(rgb(0, 0, 0), rgb(255, 255, 255));&quot;&gt;ude&amp;gt;&amp;gt;&lt;/span&gt;" style="endArrow=open;endSize=12;dashed=1;html=1;rounded=0;exitX=0.905;exitY=0.756;exitDx=0;exitDy=0;entryX=0.018;entryY=0.404;entryDx=0;entryDy=0;entryPerimeter=0;exitPerimeter=0;" edge="1" parent="1" source="S_xRD3oOY3vlIQlQ7VF_-606" target="S_xRD3oOY3vlIQlQ7VF_-619">
          <mxGeometry x="0.444" y="2" width="160" relative="1" as="geometry">
            <mxPoint x="106.5" y="5058" as="sourcePoint" />
            <mxPoint x="322.5" y="5137" as="targetPoint" />
            <mxPoint as="offset" />
          </mxGeometry>
        </mxCell>
        <mxCell id="S_xRD3oOY3vlIQlQ7VF_-611" value="&amp;lt;&amp;lt;incl&lt;span style=&quot;background-color: light-dark(#ffffff, var(--ge-dark-color, #121212)); color: light-dark(rgb(0, 0, 0), rgb(255, 255, 255));&quot;&gt;ude&amp;gt;&amp;gt;&lt;/span&gt;" style="endArrow=open;endSize=12;dashed=1;html=1;rounded=0;exitX=1;exitY=0.5;exitDx=0;exitDy=0;entryX=0.05;entryY=0.675;entryDx=0;entryDy=0;entryPerimeter=0;" edge="1" parent="1" source="S_xRD3oOY3vlIQlQ7VF_-604" target="S_xRD3oOY3vlIQlQ7VF_-619">
          <mxGeometry x="0.444" y="2" width="160" relative="1" as="geometry">
            <mxPoint x="126.5" y="4945" as="sourcePoint" />
            <mxPoint x="338.5" y="5153" as="targetPoint" />
            <mxPoint as="offset" />
          </mxGeometry>
        </mxCell>
        <mxCell id="S_xRD3oOY3vlIQlQ7VF_-612" value="&amp;lt;&amp;lt;incl&lt;span style=&quot;background-color: light-dark(#ffffff, var(--ge-dark-color, #121212)); color: light-dark(rgb(0, 0, 0), rgb(255, 255, 255));&quot;&gt;ude&amp;gt;&amp;gt;&lt;/span&gt;" style="endArrow=open;endSize=12;dashed=1;html=1;rounded=0;exitX=0.994;exitY=0.419;exitDx=0;exitDy=0;entryX=0.2;entryY=0.962;entryDx=0;entryDy=0;exitPerimeter=0;entryPerimeter=0;" edge="1" parent="1" source="S_xRD3oOY3vlIQlQ7VF_-607" target="S_xRD3oOY3vlIQlQ7VF_-619">
          <mxGeometry x="0.444" y="2" width="160" relative="1" as="geometry">
            <mxPoint x="126.5" y="5170" as="sourcePoint" />
            <mxPoint x="347.5" y="5162" as="targetPoint" />
            <mxPoint as="offset" />
          </mxGeometry>
        </mxCell>
        <mxCell id="S_xRD3oOY3vlIQlQ7VF_-613" value="" style="endArrow=none;html=1;rounded=0;entryX=-0.008;entryY=0.675;entryDx=0;entryDy=0;entryPerimeter=0;" edge="1" parent="1" target="S_xRD3oOY3vlIQlQ7VF_-605">
          <mxGeometry width="50" height="50" relative="1" as="geometry">
            <mxPoint x="-129.5" y="5000" as="sourcePoint" />
            <mxPoint x="-79.5" y="4950" as="targetPoint" />
          </mxGeometry>
        </mxCell>
        <mxCell id="S_xRD3oOY3vlIQlQ7VF_-614" value="" style="endArrow=none;html=1;rounded=0;entryX=0;entryY=0.5;entryDx=0;entryDy=0;" edge="1" parent="1" target="S_xRD3oOY3vlIQlQ7VF_-606">
          <mxGeometry width="50" height="50" relative="1" as="geometry">
            <mxPoint x="-129.5" y="5013" as="sourcePoint" />
            <mxPoint x="352.5" y="5121" as="targetPoint" />
          </mxGeometry>
        </mxCell>
        <mxCell id="S_xRD3oOY3vlIQlQ7VF_-615" value="" style="endArrow=none;html=1;rounded=0;entryX=0.048;entryY=0.357;entryDx=0;entryDy=0;entryPerimeter=0;" edge="1" parent="1" target="S_xRD3oOY3vlIQlQ7VF_-604">
          <mxGeometry width="50" height="50" relative="1" as="geometry">
            <mxPoint x="-129.5" y="5022" as="sourcePoint" />
            <mxPoint x="352.5" y="5121" as="targetPoint" />
          </mxGeometry>
        </mxCell>
        <mxCell id="S_xRD3oOY3vlIQlQ7VF_-616" value="" style="endArrow=none;html=1;rounded=0;entryX=0.031;entryY=0.286;entryDx=0;entryDy=0;entryPerimeter=0;" edge="1" parent="1" target="S_xRD3oOY3vlIQlQ7VF_-607">
          <mxGeometry width="50" height="50" relative="1" as="geometry">
            <mxPoint x="-129.5" y="5031" as="sourcePoint" />
            <mxPoint x="352.5" y="5121" as="targetPoint" />
          </mxGeometry>
        </mxCell>
        <mxCell id="S_xRD3oOY3vlIQlQ7VF_-617" value="" style="endArrow=none;html=1;rounded=0;entryX=0.055;entryY=0.752;entryDx=0;entryDy=0;entryPerimeter=0;" edge="1" parent="1" target="S_xRD3oOY3vlIQlQ7VF_-604">
          <mxGeometry width="50" height="50" relative="1" as="geometry">
            <mxPoint x="-129.5" y="5216" as="sourcePoint" />
            <mxPoint x="-79.5" y="5166" as="targetPoint" />
          </mxGeometry>
        </mxCell>
        <mxCell id="S_xRD3oOY3vlIQlQ7VF_-618" value="" style="endArrow=none;html=1;rounded=0;exitX=0.023;exitY=0.653;exitDx=0;exitDy=0;exitPerimeter=0;" edge="1" parent="1" source="S_xRD3oOY3vlIQlQ7VF_-607">
          <mxGeometry width="50" height="50" relative="1" as="geometry">
            <mxPoint x="-156.5" y="5333" as="sourcePoint" />
            <mxPoint x="-129.5" y="5229" as="targetPoint" />
          </mxGeometry>
        </mxCell>
        <mxCell id="S_xRD3oOY3vlIQlQ7VF_-619" value="UC1: Đăng nhập" style="ellipse;whiteSpace=wrap;html=1;" vertex="1" parent="1">
          <mxGeometry x="293" y="5085" width="120" height="80" as="geometry" />
        </mxCell>
        <mxCell id="S_xRD3oOY3vlIQlQ7VF_-622" value="Activity diagram" style="text;html=1;align=center;verticalAlign=middle;whiteSpace=wrap;rounded=0;" vertex="1" parent="1">
          <mxGeometry x="-360" y="5373" width="162" height="30" as="geometry" />
        </mxCell>
        <mxCell id="S_xRD3oOY3vlIQlQ7VF_-623" value="UC1: Đăng nhập" style="text;html=1;align=center;verticalAlign=middle;whiteSpace=wrap;rounded=0;" vertex="1" parent="1">
          <mxGeometry x="-315" y="5418" width="144" height="30" as="geometry" />
        </mxCell>
        <mxCell id="S_xRD3oOY3vlIQlQ7VF_-838" value="" style="group" vertex="1" connectable="0" parent="1">
          <mxGeometry x="-693" y="5526" width="489.25" height="714" as="geometry" />
        </mxCell>
        <mxCell id="S_xRD3oOY3vlIQlQ7VF_-643" style="edgeStyle=orthogonalEdgeStyle;rounded=0;orthogonalLoop=1;jettySize=auto;html=1;entryX=0.5;entryY=0;entryDx=0;entryDy=0;" edge="1" parent="S_xRD3oOY3vlIQlQ7VF_-838" source="S_xRD3oOY3vlIQlQ7VF_-629" target="S_xRD3oOY3vlIQlQ7VF_-630">
          <mxGeometry relative="1" as="geometry" />
        </mxCell>
        <mxCell id="S_xRD3oOY3vlIQlQ7VF_-629" value="&lt;font style=&quot;font-size: 14px;&quot;&gt;Nhập tên người dùng và mật khẩu&lt;/font&gt;" style="rounded=1;whiteSpace=wrap;html=1;fillColor=#1ba1e2;strokeColor=#006EAF;fontColor=#ffffff;container=0;" vertex="1" parent="S_xRD3oOY3vlIQlQ7VF_-838">
          <mxGeometry x="80.25" y="72" width="229" height="45" as="geometry" />
        </mxCell>
        <mxCell id="S_xRD3oOY3vlIQlQ7VF_-644" value="" style="edgeStyle=orthogonalEdgeStyle;rounded=0;orthogonalLoop=1;jettySize=auto;html=1;" edge="1" parent="S_xRD3oOY3vlIQlQ7VF_-838" source="S_xRD3oOY3vlIQlQ7VF_-630" target="S_xRD3oOY3vlIQlQ7VF_-631">
          <mxGeometry relative="1" as="geometry" />
        </mxCell>
        <mxCell id="S_xRD3oOY3vlIQlQ7VF_-630" value="&lt;font style=&quot;font-size: 14px;&quot;&gt;Click chọn &quot;Đăng nhập&quot;&lt;/font&gt;" style="rounded=1;whiteSpace=wrap;html=1;fillColor=#1ba1e2;strokeColor=#006EAF;fontColor=#ffffff;container=0;" vertex="1" parent="S_xRD3oOY3vlIQlQ7VF_-838">
          <mxGeometry x="80.25" y="153" width="230" height="45" as="geometry" />
        </mxCell>
        <mxCell id="S_xRD3oOY3vlIQlQ7VF_-645" style="edgeStyle=orthogonalEdgeStyle;rounded=0;orthogonalLoop=1;jettySize=auto;html=1;exitX=0.5;exitY=1;exitDx=0;exitDy=0;entryX=0.5;entryY=0;entryDx=0;entryDy=0;" edge="1" parent="S_xRD3oOY3vlIQlQ7VF_-838" source="S_xRD3oOY3vlIQlQ7VF_-631" target="S_xRD3oOY3vlIQlQ7VF_-632">
          <mxGeometry relative="1" as="geometry" />
        </mxCell>
        <mxCell id="S_xRD3oOY3vlIQlQ7VF_-631" value="&lt;font style=&quot;font-size: 14px;&quot;&gt;Xác thực thông tin người dùng&lt;/font&gt;" style="rounded=1;whiteSpace=wrap;html=1;fillColor=#6a00ff;strokeColor=#3700CC;fontColor=#ffffff;container=0;" vertex="1" parent="S_xRD3oOY3vlIQlQ7VF_-838">
          <mxGeometry x="82.25" y="234" width="225" height="45" as="geometry" />
        </mxCell>
        <mxCell id="S_xRD3oOY3vlIQlQ7VF_-646" style="edgeStyle=orthogonalEdgeStyle;rounded=0;orthogonalLoop=1;jettySize=auto;html=1;exitX=0;exitY=0.5;exitDx=0;exitDy=0;entryX=0.5;entryY=0;entryDx=0;entryDy=0;" edge="1" parent="S_xRD3oOY3vlIQlQ7VF_-838" source="S_xRD3oOY3vlIQlQ7VF_-632" target="S_xRD3oOY3vlIQlQ7VF_-633">
          <mxGeometry relative="1" as="geometry" />
        </mxCell>
        <mxCell id="S_xRD3oOY3vlIQlQ7VF_-871" value="hợp lệ" style="edgeLabel;html=1;align=center;verticalAlign=middle;resizable=0;points=[];" vertex="1" connectable="0" parent="S_xRD3oOY3vlIQlQ7VF_-646">
          <mxGeometry x="-0.4654" y="-2" relative="1" as="geometry">
            <mxPoint y="-12" as="offset" />
          </mxGeometry>
        </mxCell>
        <mxCell id="S_xRD3oOY3vlIQlQ7VF_-691" style="edgeStyle=orthogonalEdgeStyle;rounded=0;orthogonalLoop=1;jettySize=auto;html=1;exitX=1;exitY=0.5;exitDx=0;exitDy=0;entryX=0.5;entryY=0;entryDx=0;entryDy=0;" edge="1" parent="S_xRD3oOY3vlIQlQ7VF_-838" source="S_xRD3oOY3vlIQlQ7VF_-632" target="S_xRD3oOY3vlIQlQ7VF_-637">
          <mxGeometry relative="1" as="geometry" />
        </mxCell>
        <mxCell id="S_xRD3oOY3vlIQlQ7VF_-872" value="không hợp lệ" style="edgeLabel;html=1;align=center;verticalAlign=middle;resizable=0;points=[];" vertex="1" connectable="0" parent="S_xRD3oOY3vlIQlQ7VF_-691">
          <mxGeometry x="-0.5948" y="3" relative="1" as="geometry">
            <mxPoint x="6" y="-10" as="offset" />
          </mxGeometry>
        </mxCell>
        <mxCell id="S_xRD3oOY3vlIQlQ7VF_-632" value="" style="rhombus;whiteSpace=wrap;html=1;fillColor=#d80073;strokeColor=#A50040;fontColor=#ffffff;container=0;" vertex="1" parent="S_xRD3oOY3vlIQlQ7VF_-838">
          <mxGeometry x="174.75" y="315" width="40" height="35" as="geometry" />
        </mxCell>
        <mxCell id="S_xRD3oOY3vlIQlQ7VF_-647" value="" style="edgeStyle=orthogonalEdgeStyle;rounded=0;orthogonalLoop=1;jettySize=auto;html=1;" edge="1" parent="S_xRD3oOY3vlIQlQ7VF_-838" source="S_xRD3oOY3vlIQlQ7VF_-633" target="S_xRD3oOY3vlIQlQ7VF_-634">
          <mxGeometry relative="1" as="geometry" />
        </mxCell>
        <mxCell id="S_xRD3oOY3vlIQlQ7VF_-633" value="&lt;font style=&quot;font-size: 14px;&quot;&gt;Thông báo &quot;Đăng nhập thành công...&quot;&lt;/font&gt;" style="rounded=1;whiteSpace=wrap;html=1;fillColor=#6a00ff;fontColor=#ffffff;strokeColor=#3700CC;container=0;" vertex="1" parent="S_xRD3oOY3vlIQlQ7VF_-838">
          <mxGeometry x="3.25" y="405" width="135" height="72" as="geometry" />
        </mxCell>
        <mxCell id="S_xRD3oOY3vlIQlQ7VF_-674" style="edgeStyle=orthogonalEdgeStyle;rounded=0;orthogonalLoop=1;jettySize=auto;html=1;entryX=0;entryY=0.5;entryDx=0;entryDy=0;exitX=0.5;exitY=1;exitDx=0;exitDy=0;" edge="1" parent="S_xRD3oOY3vlIQlQ7VF_-838" source="S_xRD3oOY3vlIQlQ7VF_-634" target="S_xRD3oOY3vlIQlQ7VF_-656">
          <mxGeometry relative="1" as="geometry" />
        </mxCell>
        <mxCell id="S_xRD3oOY3vlIQlQ7VF_-634" value="&lt;font style=&quot;font-size: 14px;&quot;&gt;Chuyển hướng đến trang chủ Neko Libro&lt;/font&gt;" style="rounded=1;whiteSpace=wrap;html=1;fillColor=#6a00ff;fontColor=#ffffff;strokeColor=#3700CC;container=0;" vertex="1" parent="S_xRD3oOY3vlIQlQ7VF_-838">
          <mxGeometry y="561" width="141.5" height="60" as="geometry" />
        </mxCell>
        <mxCell id="S_xRD3oOY3vlIQlQ7VF_-695" style="edgeStyle=orthogonalEdgeStyle;rounded=0;orthogonalLoop=1;jettySize=auto;html=1;exitX=0.5;exitY=1;exitDx=0;exitDy=0;entryX=0.5;entryY=0;entryDx=0;entryDy=0;" edge="1" parent="S_xRD3oOY3vlIQlQ7VF_-838" source="S_xRD3oOY3vlIQlQ7VF_-637" target="S_xRD3oOY3vlIQlQ7VF_-662">
          <mxGeometry relative="1" as="geometry" />
        </mxCell>
        <mxCell id="S_xRD3oOY3vlIQlQ7VF_-637" value="&lt;font style=&quot;font-size: 14px;&quot;&gt;Thông báo &quot;Tên người dùng hoặc mật khẩu không đúng&quot;&lt;/font&gt;" style="rounded=1;whiteSpace=wrap;html=1;fillColor=#6a00ff;fontColor=#ffffff;strokeColor=#3700CC;container=0;" vertex="1" parent="S_xRD3oOY3vlIQlQ7VF_-838">
          <mxGeometry x="265.25" y="405" width="161" height="72" as="geometry" />
        </mxCell>
        <mxCell id="S_xRD3oOY3vlIQlQ7VF_-656" value="" style="ellipse;html=1;shape=endState;fillColor=#008a00;strokeColor=#005700;fontColor=#ffffff;container=0;" vertex="1" parent="S_xRD3oOY3vlIQlQ7VF_-838">
          <mxGeometry x="199.25" y="684" width="30" height="30" as="geometry" />
        </mxCell>
        <mxCell id="S_xRD3oOY3vlIQlQ7VF_-675" style="edgeStyle=orthogonalEdgeStyle;rounded=0;orthogonalLoop=1;jettySize=auto;html=1;exitX=0.5;exitY=1;exitDx=0;exitDy=0;entryX=1;entryY=0.5;entryDx=0;entryDy=0;" edge="1" parent="S_xRD3oOY3vlIQlQ7VF_-838" source="S_xRD3oOY3vlIQlQ7VF_-662" target="S_xRD3oOY3vlIQlQ7VF_-656">
          <mxGeometry relative="1" as="geometry" />
        </mxCell>
        <mxCell id="S_xRD3oOY3vlIQlQ7VF_-689" style="edgeStyle=orthogonalEdgeStyle;rounded=0;orthogonalLoop=1;jettySize=auto;html=1;exitX=1;exitY=0.5;exitDx=0;exitDy=0;entryX=1;entryY=0.5;entryDx=0;entryDy=0;" edge="1" parent="S_xRD3oOY3vlIQlQ7VF_-838" source="S_xRD3oOY3vlIQlQ7VF_-662" target="S_xRD3oOY3vlIQlQ7VF_-629">
          <mxGeometry relative="1" as="geometry">
            <mxPoint x="552.25" y="342.0000000000009" as="targetPoint" />
            <Array as="points">
              <mxPoint x="477" y="591" />
              <mxPoint x="477" y="95" />
            </Array>
          </mxGeometry>
        </mxCell>
        <mxCell id="S_xRD3oOY3vlIQlQ7VF_-662" value="" style="rhombus;whiteSpace=wrap;html=1;fillColor=#d80073;strokeColor=#A50040;fontColor=#ffffff;container=0;" vertex="1" parent="S_xRD3oOY3vlIQlQ7VF_-838">
          <mxGeometry x="325.75" y="573.5" width="40" height="35" as="geometry" />
        </mxCell>
        <mxCell id="S_xRD3oOY3vlIQlQ7VF_-676" value="&lt;font style=&quot;font-size: 13px;&quot;&gt;muốn tiếp tục đăng nhập không?&lt;/font&gt;" style="text;html=1;align=center;verticalAlign=middle;whiteSpace=wrap;rounded=0;container=0;" vertex="1" parent="S_xRD3oOY3vlIQlQ7VF_-838">
          <mxGeometry x="231.25" y="549" width="114" height="30" as="geometry" />
        </mxCell>
        <mxCell id="S_xRD3oOY3vlIQlQ7VF_-680" value="&lt;font style=&quot;font-size: 14px;&quot;&gt;không&amp;nbsp;&lt;/font&gt;" style="text;html=1;align=center;verticalAlign=middle;whiteSpace=wrap;rounded=0;container=0;" vertex="1" parent="S_xRD3oOY3vlIQlQ7VF_-838">
          <mxGeometry x="340.75" y="654" width="60" height="30" as="geometry" />
        </mxCell>
        <mxCell id="S_xRD3oOY3vlIQlQ7VF_-681" value="&lt;font style=&quot;font-size: 14px;&quot;&gt;có&lt;/font&gt;" style="text;html=1;align=center;verticalAlign=middle;whiteSpace=wrap;rounded=0;container=0;" vertex="1" parent="S_xRD3oOY3vlIQlQ7VF_-838">
          <mxGeometry x="355.88" y="567" width="60" height="30" as="geometry" />
        </mxCell>
        <mxCell id="S_xRD3oOY3vlIQlQ7VF_-687" style="edgeStyle=orthogonalEdgeStyle;rounded=0;orthogonalLoop=1;jettySize=auto;html=1;entryX=0.5;entryY=0;entryDx=0;entryDy=0;" edge="1" parent="S_xRD3oOY3vlIQlQ7VF_-838" source="S_xRD3oOY3vlIQlQ7VF_-683" target="S_xRD3oOY3vlIQlQ7VF_-629">
          <mxGeometry relative="1" as="geometry" />
        </mxCell>
        <mxCell id="S_xRD3oOY3vlIQlQ7VF_-683" value="" style="ellipse;html=1;shape=startState;fillColor=#008a00;strokeColor=#005700;fontColor=#ffffff;container=0;" vertex="1" parent="S_xRD3oOY3vlIQlQ7VF_-838">
          <mxGeometry x="179.75" width="30" height="30" as="geometry" />
        </mxCell>
        <mxCell id="S_xRD3oOY3vlIQlQ7VF_-697" value="&lt;font style=&quot;font-size: 20px;&quot;&gt;Đăng nhập&lt;/font&gt;" style="swimlane;childLayout=stackLayout;resizeParent=1;resizeParentMax=0;startSize=54;html=1;" vertex="1" parent="1">
          <mxGeometry x="116" y="5539" width="963" height="891" as="geometry" />
        </mxCell>
        <mxCell id="S_xRD3oOY3vlIQlQ7VF_-698" value="&lt;font style=&quot;font-size: 20px;&quot;&gt;Admin/User&lt;/font&gt;" style="swimlane;startSize=40;html=1;" vertex="1" parent="S_xRD3oOY3vlIQlQ7VF_-697">
          <mxGeometry y="54" width="432" height="837" as="geometry" />
        </mxCell>
        <mxCell id="S_xRD3oOY3vlIQlQ7VF_-814" style="edgeStyle=orthogonalEdgeStyle;rounded=0;orthogonalLoop=1;jettySize=auto;html=1;entryX=0.5;entryY=0;entryDx=0;entryDy=0;" edge="1" parent="S_xRD3oOY3vlIQlQ7VF_-698" source="S_xRD3oOY3vlIQlQ7VF_-815" target="S_xRD3oOY3vlIQlQ7VF_-817">
          <mxGeometry relative="1" as="geometry" />
        </mxCell>
        <mxCell id="S_xRD3oOY3vlIQlQ7VF_-815" value="&lt;font style=&quot;font-size: 14px;&quot;&gt;Nhập tên người dùng và mật khẩu&lt;/font&gt;" style="rounded=1;whiteSpace=wrap;html=1;fillColor=#1ba1e2;strokeColor=#006EAF;fontColor=#ffffff;container=0;" vertex="1" parent="S_xRD3oOY3vlIQlQ7VF_-698">
          <mxGeometry x="9" y="201" width="229" height="45" as="geometry" />
        </mxCell>
        <mxCell id="S_xRD3oOY3vlIQlQ7VF_-817" value="&lt;font style=&quot;font-size: 14px;&quot;&gt;Click chọn &quot;Đăng nhập&quot;&lt;/font&gt;" style="rounded=1;whiteSpace=wrap;html=1;fillColor=#1ba1e2;strokeColor=#006EAF;fontColor=#ffffff;container=0;" vertex="1" parent="S_xRD3oOY3vlIQlQ7VF_-698">
          <mxGeometry x="9" y="282" width="230" height="45" as="geometry" />
        </mxCell>
        <mxCell id="S_xRD3oOY3vlIQlQ7VF_-856" style="edgeStyle=orthogonalEdgeStyle;rounded=0;orthogonalLoop=1;jettySize=auto;html=1;entryX=1;entryY=0.5;entryDx=0;entryDy=0;" edge="1" parent="S_xRD3oOY3vlIQlQ7VF_-698" source="S_xRD3oOY3vlIQlQ7VF_-832" target="S_xRD3oOY3vlIQlQ7VF_-815">
          <mxGeometry relative="1" as="geometry" />
        </mxCell>
        <mxCell id="S_xRD3oOY3vlIQlQ7VF_-832" value="" style="rhombus;whiteSpace=wrap;html=1;fillColor=#d80073;strokeColor=#A50040;fontColor=#ffffff;container=0;" vertex="1" parent="S_xRD3oOY3vlIQlQ7VF_-698">
          <mxGeometry x="353" y="129" width="40" height="35" as="geometry" />
        </mxCell>
        <mxCell id="S_xRD3oOY3vlIQlQ7VF_-833" value="&lt;font style=&quot;font-size: 13px;&quot;&gt;muốn tiếp tục đăng nhập không?&lt;/font&gt;" style="text;html=1;align=center;verticalAlign=middle;whiteSpace=wrap;rounded=0;container=0;" vertex="1" parent="S_xRD3oOY3vlIQlQ7VF_-698">
          <mxGeometry x="306" y="99" width="114" height="30" as="geometry" />
        </mxCell>
        <mxCell id="S_xRD3oOY3vlIQlQ7VF_-834" value="&lt;font style=&quot;font-size: 14px;&quot;&gt;không&amp;nbsp;&lt;/font&gt;" style="text;html=1;align=center;verticalAlign=middle;whiteSpace=wrap;rounded=0;container=0;" vertex="1" parent="S_xRD3oOY3vlIQlQ7VF_-698">
          <mxGeometry x="375.25" y="180" width="60" height="30" as="geometry" />
        </mxCell>
        <mxCell id="S_xRD3oOY3vlIQlQ7VF_-835" value="&lt;font style=&quot;font-size: 14px;&quot;&gt;có&lt;/font&gt;" style="text;html=1;align=center;verticalAlign=middle;whiteSpace=wrap;rounded=0;container=0;" vertex="1" parent="S_xRD3oOY3vlIQlQ7VF_-698">
          <mxGeometry x="279" y="189" width="60" height="30" as="geometry" />
        </mxCell>
        <mxCell id="S_xRD3oOY3vlIQlQ7VF_-836" style="edgeStyle=orthogonalEdgeStyle;rounded=0;orthogonalLoop=1;jettySize=auto;html=1;entryX=0.5;entryY=0;entryDx=0;entryDy=0;" edge="1" parent="S_xRD3oOY3vlIQlQ7VF_-698" source="S_xRD3oOY3vlIQlQ7VF_-837" target="S_xRD3oOY3vlIQlQ7VF_-815">
          <mxGeometry relative="1" as="geometry" />
        </mxCell>
        <mxCell id="S_xRD3oOY3vlIQlQ7VF_-837" value="" style="ellipse;html=1;shape=startState;fillColor=#008a00;strokeColor=#005700;fontColor=#ffffff;container=0;" vertex="1" parent="S_xRD3oOY3vlIQlQ7VF_-698">
          <mxGeometry x="108.5" y="129" width="30" height="30" as="geometry" />
        </mxCell>
        <mxCell id="S_xRD3oOY3vlIQlQ7VF_-857" value="" style="ellipse;html=1;shape=endState;fillColor=#008a00;strokeColor=#005700;fontColor=#ffffff;container=0;" vertex="1" parent="S_xRD3oOY3vlIQlQ7VF_-698">
          <mxGeometry x="353" y="249" width="30" height="30" as="geometry" />
        </mxCell>
        <mxCell id="S_xRD3oOY3vlIQlQ7VF_-859" style="edgeStyle=orthogonalEdgeStyle;rounded=0;orthogonalLoop=1;jettySize=auto;html=1;exitX=0.5;exitY=1;exitDx=0;exitDy=0;entryX=0.68;entryY=-0.049;entryDx=0;entryDy=0;entryPerimeter=0;" edge="1" parent="S_xRD3oOY3vlIQlQ7VF_-698" source="S_xRD3oOY3vlIQlQ7VF_-832" target="S_xRD3oOY3vlIQlQ7VF_-857">
          <mxGeometry relative="1" as="geometry" />
        </mxCell>
        <mxCell id="S_xRD3oOY3vlIQlQ7VF_-753" value="&lt;font style=&quot;font-size: 20px;&quot;&gt;System&lt;/font&gt;" style="swimlane;startSize=40;html=1;" vertex="1" parent="S_xRD3oOY3vlIQlQ7VF_-697">
          <mxGeometry x="432" y="54" width="306" height="837" as="geometry" />
        </mxCell>
        <mxCell id="S_xRD3oOY3vlIQlQ7VF_-819" value="&lt;font style=&quot;font-size: 14px;&quot;&gt;Xác thực thông tin người dùng&lt;/font&gt;" style="rounded=1;whiteSpace=wrap;html=1;fillColor=#6a00ff;strokeColor=#3700CC;fontColor=#ffffff;container=0;" vertex="1" parent="S_xRD3oOY3vlIQlQ7VF_-753">
          <mxGeometry x="14.75" y="360" width="225" height="45" as="geometry" />
        </mxCell>
        <mxCell id="S_xRD3oOY3vlIQlQ7VF_-822" value="" style="rhombus;whiteSpace=wrap;html=1;fillColor=#d80073;strokeColor=#A50040;fontColor=#ffffff;container=0;" vertex="1" parent="S_xRD3oOY3vlIQlQ7VF_-753">
          <mxGeometry x="107.25" y="441" width="40" height="35" as="geometry" />
        </mxCell>
        <mxCell id="S_xRD3oOY3vlIQlQ7VF_-818" style="edgeStyle=orthogonalEdgeStyle;rounded=0;orthogonalLoop=1;jettySize=auto;html=1;exitX=0.5;exitY=1;exitDx=0;exitDy=0;entryX=0.5;entryY=0;entryDx=0;entryDy=0;" edge="1" parent="S_xRD3oOY3vlIQlQ7VF_-753" source="S_xRD3oOY3vlIQlQ7VF_-819" target="S_xRD3oOY3vlIQlQ7VF_-822">
          <mxGeometry relative="1" as="geometry" />
        </mxCell>
        <mxCell id="S_xRD3oOY3vlIQlQ7VF_-816" value="" style="edgeStyle=orthogonalEdgeStyle;rounded=0;orthogonalLoop=1;jettySize=auto;html=1;" edge="1" parent="S_xRD3oOY3vlIQlQ7VF_-697" source="S_xRD3oOY3vlIQlQ7VF_-817" target="S_xRD3oOY3vlIQlQ7VF_-819">
          <mxGeometry relative="1" as="geometry" />
        </mxCell>
        <mxCell id="S_xRD3oOY3vlIQlQ7VF_-849" style="edgeStyle=orthogonalEdgeStyle;rounded=0;orthogonalLoop=1;jettySize=auto;html=1;exitX=1;exitY=0.5;exitDx=0;exitDy=0;entryX=0.5;entryY=1;entryDx=0;entryDy=0;" edge="1" parent="S_xRD3oOY3vlIQlQ7VF_-697" source="S_xRD3oOY3vlIQlQ7VF_-822" target="S_xRD3oOY3vlIQlQ7VF_-828">
          <mxGeometry relative="1" as="geometry" />
        </mxCell>
        <mxCell id="S_xRD3oOY3vlIQlQ7VF_-848" style="edgeStyle=orthogonalEdgeStyle;rounded=0;orthogonalLoop=1;jettySize=auto;html=1;entryX=0;entryY=0.75;entryDx=0;entryDy=0;exitX=0.5;exitY=1;exitDx=0;exitDy=0;" edge="1" parent="S_xRD3oOY3vlIQlQ7VF_-697" source="S_xRD3oOY3vlIQlQ7VF_-822" target="S_xRD3oOY3vlIQlQ7VF_-824">
          <mxGeometry relative="1" as="geometry">
            <Array as="points">
              <mxPoint x="559" y="603" />
              <mxPoint x="793" y="603" />
            </Array>
          </mxGeometry>
        </mxCell>
        <mxCell id="S_xRD3oOY3vlIQlQ7VF_-853" style="edgeStyle=orthogonalEdgeStyle;rounded=0;orthogonalLoop=1;jettySize=auto;html=1;exitX=0.5;exitY=0;exitDx=0;exitDy=0;entryX=1;entryY=0.5;entryDx=0;entryDy=0;" edge="1" parent="S_xRD3oOY3vlIQlQ7VF_-697" source="S_xRD3oOY3vlIQlQ7VF_-828" target="S_xRD3oOY3vlIQlQ7VF_-832">
          <mxGeometry relative="1" as="geometry" />
        </mxCell>
        <mxCell id="S_xRD3oOY3vlIQlQ7VF_-839" value="&lt;font style=&quot;font-size: 20px;&quot;&gt;User interface&lt;/font&gt;" style="swimlane;startSize=40;html=1;" vertex="1" parent="S_xRD3oOY3vlIQlQ7VF_-697">
          <mxGeometry x="738" y="54" width="225" height="837" as="geometry" />
        </mxCell>
        <mxCell id="S_xRD3oOY3vlIQlQ7VF_-828" value="&lt;font style=&quot;font-size: 14px;&quot;&gt;Thông báo &quot;Tên người dùng hoặc mật khẩu không đúng&quot;&lt;/font&gt;" style="rounded=1;whiteSpace=wrap;html=1;fillColor=#6a00ff;fontColor=#ffffff;strokeColor=#3700CC;container=0;" vertex="1" parent="S_xRD3oOY3vlIQlQ7VF_-839">
          <mxGeometry x="42.25" y="234" width="161" height="72" as="geometry" />
        </mxCell>
        <mxCell id="S_xRD3oOY3vlIQlQ7VF_-824" value="&lt;font style=&quot;font-size: 14px;&quot;&gt;Thông báo &quot;Đăng nhập thành công...&quot;&lt;/font&gt;" style="rounded=1;whiteSpace=wrap;html=1;fillColor=#6a00ff;fontColor=#ffffff;strokeColor=#3700CC;container=0;" vertex="1" parent="S_xRD3oOY3vlIQlQ7VF_-839">
          <mxGeometry x="58.5" y="495" width="135" height="72" as="geometry" />
        </mxCell>
        <mxCell id="S_xRD3oOY3vlIQlQ7VF_-826" value="&lt;font style=&quot;font-size: 14px;&quot;&gt;Chuyển hướng đến trang chủ Neko Libro&lt;/font&gt;" style="rounded=1;whiteSpace=wrap;html=1;fillColor=#6a00ff;fontColor=#ffffff;strokeColor=#3700CC;container=0;" vertex="1" parent="S_xRD3oOY3vlIQlQ7VF_-839">
          <mxGeometry x="55.25" y="639" width="141.5" height="60" as="geometry" />
        </mxCell>
        <mxCell id="S_xRD3oOY3vlIQlQ7VF_-823" value="" style="edgeStyle=orthogonalEdgeStyle;rounded=0;orthogonalLoop=1;jettySize=auto;html=1;" edge="1" parent="S_xRD3oOY3vlIQlQ7VF_-839" source="S_xRD3oOY3vlIQlQ7VF_-824" target="S_xRD3oOY3vlIQlQ7VF_-826">
          <mxGeometry relative="1" as="geometry" />
        </mxCell>
        <mxCell id="S_xRD3oOY3vlIQlQ7VF_-829" value="" style="ellipse;html=1;shape=endState;fillColor=#008a00;strokeColor=#005700;fontColor=#ffffff;container=0;" vertex="1" parent="S_xRD3oOY3vlIQlQ7VF_-839">
          <mxGeometry x="111" y="756" width="30" height="30" as="geometry" />
        </mxCell>
        <mxCell id="S_xRD3oOY3vlIQlQ7VF_-845" style="edgeStyle=orthogonalEdgeStyle;rounded=0;orthogonalLoop=1;jettySize=auto;html=1;exitX=0.5;exitY=1;exitDx=0;exitDy=0;entryX=0.5;entryY=0;entryDx=0;entryDy=0;" edge="1" parent="S_xRD3oOY3vlIQlQ7VF_-839" source="S_xRD3oOY3vlIQlQ7VF_-826" target="S_xRD3oOY3vlIQlQ7VF_-829">
          <mxGeometry relative="1" as="geometry" />
        </mxCell>
        <mxCell id="S_xRD3oOY3vlIQlQ7VF_-899" style="edgeStyle=orthogonalEdgeStyle;rounded=0;orthogonalLoop=1;jettySize=auto;html=1;exitX=0.5;exitY=1;exitDx=0;exitDy=0;entryX=0.5;entryY=0;entryDx=0;entryDy=0;" edge="1" parent="1" source="S_xRD3oOY3vlIQlQ7VF_-865" target="S_xRD3oOY3vlIQlQ7VF_-867">
          <mxGeometry relative="1" as="geometry" />
        </mxCell>
        <mxCell id="S_xRD3oOY3vlIQlQ7VF_-865" value="" style="ellipse;html=1;shape=startState;fillColor=#008a00;strokeColor=#005700;fontColor=#ffffff;" vertex="1" parent="1">
          <mxGeometry x="-476.25" y="6318" width="30" height="30" as="geometry" />
        </mxCell>
        <mxCell id="S_xRD3oOY3vlIQlQ7VF_-900" style="edgeStyle=orthogonalEdgeStyle;rounded=0;orthogonalLoop=1;jettySize=auto;html=1;exitX=0.5;exitY=1;exitDx=0;exitDy=0;entryX=0.5;entryY=0;entryDx=0;entryDy=0;" edge="1" parent="1" source="S_xRD3oOY3vlIQlQ7VF_-867" target="S_xRD3oOY3vlIQlQ7VF_-897">
          <mxGeometry relative="1" as="geometry" />
        </mxCell>
        <mxCell id="S_xRD3oOY3vlIQlQ7VF_-867" value="Nhập tên người dùng và mật khẩu là tài khoản admin" style="rounded=1;whiteSpace=wrap;html=1;fillColor=#6a00ff;fontColor=#ffffff;strokeColor=#3700CC;" vertex="1" parent="1">
          <mxGeometry x="-562.5" y="6385" width="202.5" height="45" as="geometry" />
        </mxCell>
        <mxCell id="S_xRD3oOY3vlIQlQ7VF_-902" style="edgeStyle=orthogonalEdgeStyle;rounded=0;orthogonalLoop=1;jettySize=auto;html=1;exitX=0.5;exitY=1;exitDx=0;exitDy=0;entryX=0.5;entryY=0;entryDx=0;entryDy=0;" edge="1" parent="1" source="S_xRD3oOY3vlIQlQ7VF_-868" target="S_xRD3oOY3vlIQlQ7VF_-869">
          <mxGeometry relative="1" as="geometry" />
        </mxCell>
        <mxCell id="S_xRD3oOY3vlIQlQ7VF_-868" value="Xác thực tài khoản" style="rounded=1;whiteSpace=wrap;html=1;fillColor=#1ba1e2;fontColor=#ffffff;strokeColor=#006EAF;" vertex="1" parent="1">
          <mxGeometry x="-562.5" y="6543" width="201.25" height="51" as="geometry" />
        </mxCell>
        <mxCell id="S_xRD3oOY3vlIQlQ7VF_-904" style="edgeStyle=orthogonalEdgeStyle;rounded=0;orthogonalLoop=1;jettySize=auto;html=1;exitX=0;exitY=0.5;exitDx=0;exitDy=0;entryX=0.5;entryY=0;entryDx=0;entryDy=0;" edge="1" parent="1" source="S_xRD3oOY3vlIQlQ7VF_-869" target="S_xRD3oOY3vlIQlQ7VF_-870">
          <mxGeometry relative="1" as="geometry" />
        </mxCell>
        <mxCell id="S_xRD3oOY3vlIQlQ7VF_-917" style="edgeStyle=orthogonalEdgeStyle;rounded=0;orthogonalLoop=1;jettySize=auto;html=1;exitX=1;exitY=0.5;exitDx=0;exitDy=0;entryX=0.5;entryY=0;entryDx=0;entryDy=0;" edge="1" parent="1" source="S_xRD3oOY3vlIQlQ7VF_-869" target="S_xRD3oOY3vlIQlQ7VF_-883">
          <mxGeometry relative="1" as="geometry" />
        </mxCell>
        <mxCell id="S_xRD3oOY3vlIQlQ7VF_-869" value="" style="rhombus;whiteSpace=wrap;html=1;fillColor=#d80073;fontColor=#ffffff;strokeColor=#A50040;" vertex="1" parent="1">
          <mxGeometry x="-485.38" y="6633" width="34" height="27" as="geometry" />
        </mxCell>
        <mxCell id="S_xRD3oOY3vlIQlQ7VF_-905" style="edgeStyle=orthogonalEdgeStyle;rounded=0;orthogonalLoop=1;jettySize=auto;html=1;entryX=0.5;entryY=0;entryDx=0;entryDy=0;" edge="1" parent="1" source="S_xRD3oOY3vlIQlQ7VF_-870" target="S_xRD3oOY3vlIQlQ7VF_-879">
          <mxGeometry relative="1" as="geometry" />
        </mxCell>
        <mxCell id="S_xRD3oOY3vlIQlQ7VF_-870" value="Chuyển màn hình đến giao diện &quot;TẠO TÀI KHOẢN MỚI" style="rounded=1;whiteSpace=wrap;html=1;fillColor=#1ba1e2;fontColor=#ffffff;strokeColor=#006EAF;" vertex="1" parent="1">
          <mxGeometry x="-654" y="6705" width="126" height="60" as="geometry" />
        </mxCell>
        <mxCell id="S_xRD3oOY3vlIQlQ7VF_-921" style="edgeStyle=orthogonalEdgeStyle;rounded=0;orthogonalLoop=1;jettySize=auto;html=1;exitX=1;exitY=0.5;exitDx=0;exitDy=0;entryX=0.5;entryY=0;entryDx=0;entryDy=0;" edge="1" parent="1" source="S_xRD3oOY3vlIQlQ7VF_-876" target="S_xRD3oOY3vlIQlQ7VF_-895">
          <mxGeometry relative="1" as="geometry" />
        </mxCell>
        <mxCell id="S_xRD3oOY3vlIQlQ7VF_-876" value="Thông báo &quot;Không hợp lệ vui lòng thử lại sau!&quot;" style="rounded=1;whiteSpace=wrap;html=1;fillColor=#1ba1e2;fontColor=#ffffff;strokeColor=#006EAF;" vertex="1" parent="1">
          <mxGeometry x="-234" y="6741" width="120" height="60" as="geometry" />
        </mxCell>
        <mxCell id="S_xRD3oOY3vlIQlQ7VF_-922" style="edgeStyle=orthogonalEdgeStyle;rounded=0;orthogonalLoop=1;jettySize=auto;html=1;exitX=0.5;exitY=1;exitDx=0;exitDy=0;entryX=0;entryY=0.5;entryDx=0;entryDy=0;" edge="1" parent="1" source="S_xRD3oOY3vlIQlQ7VF_-878" target="S_xRD3oOY3vlIQlQ7VF_-895">
          <mxGeometry relative="1" as="geometry" />
        </mxCell>
        <mxCell id="S_xRD3oOY3vlIQlQ7VF_-878" value="Thông báo &quot;Bạn không có quyền tạo tài khoản!&quot;" style="rounded=1;whiteSpace=wrap;html=1;fillColor=#1ba1e2;fontColor=#ffffff;strokeColor=#006EAF;" vertex="1" parent="1">
          <mxGeometry x="-451.38" y="6744" width="120" height="60" as="geometry" />
        </mxCell>
        <mxCell id="S_xRD3oOY3vlIQlQ7VF_-907" style="edgeStyle=orthogonalEdgeStyle;rounded=0;orthogonalLoop=1;jettySize=auto;html=1;entryX=0.5;entryY=0;entryDx=0;entryDy=0;" edge="1" parent="1" source="S_xRD3oOY3vlIQlQ7VF_-879" target="S_xRD3oOY3vlIQlQ7VF_-887">
          <mxGeometry relative="1" as="geometry" />
        </mxCell>
        <mxCell id="S_xRD3oOY3vlIQlQ7VF_-879" value="Điền thông tin vào các trường" style="rounded=1;whiteSpace=wrap;html=1;fillColor=#6a00ff;fontColor=#ffffff;strokeColor=#3700CC;" vertex="1" parent="1">
          <mxGeometry x="-651" y="6804" width="120" height="60" as="geometry" />
        </mxCell>
        <mxCell id="S_xRD3oOY3vlIQlQ7VF_-910" style="edgeStyle=orthogonalEdgeStyle;rounded=0;orthogonalLoop=1;jettySize=auto;html=1;exitX=0;exitY=0.5;exitDx=0;exitDy=0;entryX=0;entryY=0.5;entryDx=0;entryDy=0;" edge="1" parent="1" source="S_xRD3oOY3vlIQlQ7VF_-880" target="S_xRD3oOY3vlIQlQ7VF_-879">
          <mxGeometry relative="1" as="geometry" />
        </mxCell>
        <mxCell id="S_xRD3oOY3vlIQlQ7VF_-880" value="Thông báo &quot;Vui lòng không bỏ trống thông tin!&quot;" style="rounded=1;whiteSpace=wrap;html=1;fillColor=#1ba1e2;fontColor=#ffffff;strokeColor=#006EAF;" vertex="1" parent="1">
          <mxGeometry x="-727" y="7119" width="115" height="60" as="geometry" />
        </mxCell>
        <mxCell id="S_xRD3oOY3vlIQlQ7VF_-919" style="edgeStyle=orthogonalEdgeStyle;rounded=0;orthogonalLoop=1;jettySize=auto;html=1;exitX=0;exitY=0.5;exitDx=0;exitDy=0;" edge="1" parent="1" source="S_xRD3oOY3vlIQlQ7VF_-883" target="S_xRD3oOY3vlIQlQ7VF_-878">
          <mxGeometry relative="1" as="geometry" />
        </mxCell>
        <mxCell id="S_xRD3oOY3vlIQlQ7VF_-920" style="edgeStyle=orthogonalEdgeStyle;rounded=0;orthogonalLoop=1;jettySize=auto;html=1;exitX=1;exitY=0.5;exitDx=0;exitDy=0;entryX=0.5;entryY=0;entryDx=0;entryDy=0;" edge="1" parent="1" source="S_xRD3oOY3vlIQlQ7VF_-883" target="S_xRD3oOY3vlIQlQ7VF_-876">
          <mxGeometry relative="1" as="geometry" />
        </mxCell>
        <mxCell id="S_xRD3oOY3vlIQlQ7VF_-883" value="" style="rhombus;whiteSpace=wrap;html=1;fillColor=#d80073;fontColor=#ffffff;strokeColor=#A50040;" vertex="1" parent="1">
          <mxGeometry x="-306" y="6687" width="34" height="27" as="geometry" />
        </mxCell>
        <mxCell id="S_xRD3oOY3vlIQlQ7VF_-909" style="edgeStyle=orthogonalEdgeStyle;rounded=0;orthogonalLoop=1;jettySize=auto;html=1;exitX=0;exitY=0.5;exitDx=0;exitDy=0;entryX=0.5;entryY=0;entryDx=0;entryDy=0;" edge="1" parent="1" source="S_xRD3oOY3vlIQlQ7VF_-884" target="S_xRD3oOY3vlIQlQ7VF_-880">
          <mxGeometry relative="1" as="geometry" />
        </mxCell>
        <mxCell id="S_xRD3oOY3vlIQlQ7VF_-913" style="edgeStyle=orthogonalEdgeStyle;rounded=0;orthogonalLoop=1;jettySize=auto;html=1;exitX=1;exitY=0.5;exitDx=0;exitDy=0;entryX=0;entryY=0.5;entryDx=0;entryDy=0;" edge="1" parent="1" source="S_xRD3oOY3vlIQlQ7VF_-884" target="S_xRD3oOY3vlIQlQ7VF_-891">
          <mxGeometry relative="1" as="geometry" />
        </mxCell>
        <mxCell id="S_xRD3oOY3vlIQlQ7VF_-884" value="" style="rhombus;whiteSpace=wrap;html=1;fillColor=#d80073;fontColor=#ffffff;strokeColor=#A50040;" vertex="1" parent="1">
          <mxGeometry x="-607" y="7029" width="34" height="27" as="geometry" />
        </mxCell>
        <mxCell id="S_xRD3oOY3vlIQlQ7VF_-908" style="edgeStyle=orthogonalEdgeStyle;rounded=0;orthogonalLoop=1;jettySize=auto;html=1;exitX=0.5;exitY=1;exitDx=0;exitDy=0;entryX=0.5;entryY=0;entryDx=0;entryDy=0;" edge="1" parent="1" source="S_xRD3oOY3vlIQlQ7VF_-887" target="S_xRD3oOY3vlIQlQ7VF_-884">
          <mxGeometry relative="1" as="geometry" />
        </mxCell>
        <mxCell id="S_xRD3oOY3vlIQlQ7VF_-887" value="Click chọn &quot;OK&quot;" style="rounded=1;whiteSpace=wrap;html=1;fillColor=#6a00ff;fontColor=#ffffff;strokeColor=#3700CC;" vertex="1" parent="1">
          <mxGeometry x="-650" y="6903" width="120" height="60" as="geometry" />
        </mxCell>
        <mxCell id="S_xRD3oOY3vlIQlQ7VF_-914" style="edgeStyle=orthogonalEdgeStyle;rounded=0;orthogonalLoop=1;jettySize=auto;html=1;exitX=0.5;exitY=0;exitDx=0;exitDy=0;entryX=0.5;entryY=1;entryDx=0;entryDy=0;" edge="1" parent="1" source="S_xRD3oOY3vlIQlQ7VF_-891" target="S_xRD3oOY3vlIQlQ7VF_-894">
          <mxGeometry relative="1" as="geometry" />
        </mxCell>
        <mxCell id="S_xRD3oOY3vlIQlQ7VF_-915" style="edgeStyle=orthogonalEdgeStyle;rounded=0;orthogonalLoop=1;jettySize=auto;html=1;exitX=1;exitY=0.5;exitDx=0;exitDy=0;entryX=0.5;entryY=1;entryDx=0;entryDy=0;" edge="1" parent="1" source="S_xRD3oOY3vlIQlQ7VF_-891" target="S_xRD3oOY3vlIQlQ7VF_-893">
          <mxGeometry relative="1" as="geometry" />
        </mxCell>
        <mxCell id="S_xRD3oOY3vlIQlQ7VF_-891" value="" style="rhombus;whiteSpace=wrap;html=1;fillColor=#d80073;fontColor=#ffffff;strokeColor=#A50040;" vertex="1" parent="1">
          <mxGeometry x="-452" y="7029" width="34" height="27" as="geometry" />
        </mxCell>
        <mxCell id="S_xRD3oOY3vlIQlQ7VF_-916" style="edgeStyle=orthogonalEdgeStyle;rounded=0;orthogonalLoop=1;jettySize=auto;html=1;entryX=0.5;entryY=1;entryDx=0;entryDy=0;" edge="1" parent="1" source="S_xRD3oOY3vlIQlQ7VF_-893" target="S_xRD3oOY3vlIQlQ7VF_-895">
          <mxGeometry relative="1" as="geometry" />
        </mxCell>
        <mxCell id="S_xRD3oOY3vlIQlQ7VF_-893" value="Thông báo &quot;Đã tạo tài khoản thành công&quot;" style="rounded=1;whiteSpace=wrap;html=1;fillColor=#1ba1e2;fontColor=#ffffff;strokeColor=#006EAF;" vertex="1" parent="1">
          <mxGeometry x="-135" y="6939" width="120" height="60" as="geometry" />
        </mxCell>
        <mxCell id="S_xRD3oOY3vlIQlQ7VF_-911" style="edgeStyle=orthogonalEdgeStyle;rounded=0;orthogonalLoop=1;jettySize=auto;html=1;entryX=1;entryY=0.5;entryDx=0;entryDy=0;exitX=0.5;exitY=0;exitDx=0;exitDy=0;" edge="1" parent="1" source="S_xRD3oOY3vlIQlQ7VF_-894" target="S_xRD3oOY3vlIQlQ7VF_-879">
          <mxGeometry relative="1" as="geometry" />
        </mxCell>
        <mxCell id="S_xRD3oOY3vlIQlQ7VF_-894" value="Thông báo &quot;Tên người dùng đã tồn tại&quot;" style="rounded=1;whiteSpace=wrap;html=1;fillColor=#1ba1e2;fontColor=#ffffff;strokeColor=#006EAF;" vertex="1" parent="1">
          <mxGeometry x="-495" y="6903" width="120" height="60" as="geometry" />
        </mxCell>
        <mxCell id="S_xRD3oOY3vlIQlQ7VF_-895" value="" style="ellipse;html=1;shape=endState;fillColor=#008a00;strokeColor=#005700;fontColor=#ffffff;" vertex="1" parent="1">
          <mxGeometry x="-90" y="6858" width="30" height="30" as="geometry" />
        </mxCell>
        <mxCell id="S_xRD3oOY3vlIQlQ7VF_-901" style="edgeStyle=orthogonalEdgeStyle;rounded=0;orthogonalLoop=1;jettySize=auto;html=1;exitX=0.5;exitY=1;exitDx=0;exitDy=0;entryX=0.5;entryY=0;entryDx=0;entryDy=0;" edge="1" parent="1" source="S_xRD3oOY3vlIQlQ7VF_-897" target="S_xRD3oOY3vlIQlQ7VF_-868">
          <mxGeometry relative="1" as="geometry" />
        </mxCell>
        <mxCell id="S_xRD3oOY3vlIQlQ7VF_-897" value="Click chọn &quot;ĐĂNG KÝ&quot;" style="rounded=1;whiteSpace=wrap;html=1;fillColor=#6a00ff;fontColor=#ffffff;strokeColor=#3700CC;" vertex="1" parent="1">
          <mxGeometry x="-562.5" y="6462" width="202.5" height="45" as="geometry" />
        </mxCell>
        <mxCell id="S_xRD3oOY3vlIQlQ7VF_-924" value="hợp lệ" style="text;html=1;align=center;verticalAlign=middle;resizable=0;points=[];autosize=1;strokeColor=none;fillColor=none;" vertex="1" parent="1">
          <mxGeometry x="-564" y="6615" width="54" height="27" as="geometry" />
        </mxCell>
        <mxCell id="S_xRD3oOY3vlIQlQ7VF_-925" value="không hợp lệ" style="text;html=1;align=center;verticalAlign=middle;resizable=0;points=[];autosize=1;strokeColor=none;fillColor=none;" vertex="1" parent="1">
          <mxGeometry x="-429" y="6624" width="90" height="27" as="geometry" />
        </mxCell>
        <mxCell id="S_xRD3oOY3vlIQlQ7VF_-926" value="Tài khoản user?" style="text;html=1;align=center;verticalAlign=middle;resizable=0;points=[];autosize=1;strokeColor=none;fillColor=none;" vertex="1" parent="1">
          <mxGeometry x="-288" y="6669" width="108" height="27" as="geometry" />
        </mxCell>
        <mxCell id="S_xRD3oOY3vlIQlQ7VF_-927" value="đúng" style="text;html=1;align=center;verticalAlign=middle;resizable=0;points=[];autosize=1;strokeColor=none;fillColor=none;" vertex="1" parent="1">
          <mxGeometry x="-371" y="6696" width="45" height="27" as="geometry" />
        </mxCell>
        <mxCell id="S_xRD3oOY3vlIQlQ7VF_-928" value="sai" style="text;html=1;align=center;verticalAlign=middle;resizable=0;points=[];autosize=1;strokeColor=none;fillColor=none;" vertex="1" parent="1">
          <mxGeometry x="-249" y="6696" width="36" height="27" as="geometry" />
        </mxCell>
        <mxCell id="S_xRD3oOY3vlIQlQ7VF_-930" value="có trường bỏ trống?" style="text;html=1;align=center;verticalAlign=middle;resizable=0;points=[];autosize=1;strokeColor=none;fillColor=none;" vertex="1" parent="1">
          <mxGeometry x="-720" y="7014" width="126" height="27" as="geometry" />
        </mxCell>
        <mxCell id="S_xRD3oOY3vlIQlQ7VF_-931" value="đúng" style="text;html=1;align=center;verticalAlign=middle;resizable=0;points=[];autosize=1;strokeColor=none;fillColor=none;" vertex="1" parent="1">
          <mxGeometry x="-675" y="7056" width="45" height="27" as="geometry" />
        </mxCell>
        <mxCell id="S_xRD3oOY3vlIQlQ7VF_-932" value="sai" style="text;html=1;align=center;verticalAlign=middle;resizable=0;points=[];autosize=1;strokeColor=none;fillColor=none;" vertex="1" parent="1">
          <mxGeometry x="-528" y="7020" width="36" height="27" as="geometry" />
        </mxCell>
        <mxCell id="S_xRD3oOY3vlIQlQ7VF_-933" value="Tên người dùng bị trùng?" style="text;html=1;align=center;verticalAlign=middle;resizable=0;points=[];autosize=1;strokeColor=none;fillColor=none;" vertex="1" parent="1">
          <mxGeometry x="-528" y="7056" width="162" height="27" as="geometry" />
        </mxCell>
        <mxCell id="S_xRD3oOY3vlIQlQ7VF_-934" value="sai" style="text;html=1;align=center;verticalAlign=middle;resizable=0;points=[];autosize=1;strokeColor=none;fillColor=none;" vertex="1" parent="1">
          <mxGeometry x="-330" y="7020" width="36" height="27" as="geometry" />
        </mxCell>
        <mxCell id="S_xRD3oOY3vlIQlQ7VF_-935" value="đúng" style="text;html=1;align=center;verticalAlign=middle;resizable=0;points=[];autosize=1;strokeColor=none;fillColor=none;" vertex="1" parent="1">
          <mxGeometry x="-436" y="6987" width="45" height="27" as="geometry" />
        </mxCell>
        <mxCell id="S_xRD3oOY3vlIQlQ7VF_-945" value="&lt;font style=&quot;font-size: 20px;&quot;&gt;Tạo tài khoản người dùng&lt;/font&gt;" style="swimlane;childLayout=stackLayout;resizeParent=1;resizeParentMax=0;startSize=36;html=1;" vertex="1" parent="1">
          <mxGeometry x="234" y="6552" width="1002" height="783" as="geometry" />
        </mxCell>
        <mxCell id="S_xRD3oOY3vlIQlQ7VF_-946" value="&lt;font style=&quot;font-size: 20px;&quot;&gt;Admin&lt;/font&gt;" style="swimlane;startSize=27;html=1;" vertex="1" parent="S_xRD3oOY3vlIQlQ7VF_-945">
          <mxGeometry y="36" width="318" height="747" as="geometry" />
        </mxCell>
        <mxCell id="S_xRD3oOY3vlIQlQ7VF_-951" style="edgeStyle=orthogonalEdgeStyle;rounded=0;orthogonalLoop=1;jettySize=auto;html=1;exitX=0.5;exitY=1;exitDx=0;exitDy=0;entryX=0.5;entryY=0;entryDx=0;entryDy=0;" edge="1" parent="S_xRD3oOY3vlIQlQ7VF_-946" source="S_xRD3oOY3vlIQlQ7VF_-952" target="S_xRD3oOY3vlIQlQ7VF_-955">
          <mxGeometry relative="1" as="geometry" />
        </mxCell>
        <mxCell id="S_xRD3oOY3vlIQlQ7VF_-952" value="Nhập tên người dùng và mật khẩu là tài khoản admin" style="rounded=1;whiteSpace=wrap;html=1;fillColor=#6a00ff;fontColor=#ffffff;strokeColor=#3700CC;" vertex="1" parent="S_xRD3oOY3vlIQlQ7VF_-946">
          <mxGeometry x="52.5" y="108" width="202.5" height="45" as="geometry" />
        </mxCell>
        <mxCell id="S_xRD3oOY3vlIQlQ7VF_-955" value="Click chọn &quot;ĐĂNG KÝ&quot;" style="rounded=1;whiteSpace=wrap;html=1;fillColor=#6a00ff;fontColor=#ffffff;strokeColor=#3700CC;" vertex="1" parent="S_xRD3oOY3vlIQlQ7VF_-946">
          <mxGeometry x="52.5" y="185" width="202.5" height="45" as="geometry" />
        </mxCell>
        <mxCell id="S_xRD3oOY3vlIQlQ7VF_-966" value="Điền thông tin vào các trường" style="rounded=1;whiteSpace=wrap;html=1;fillColor=#6a00ff;fontColor=#ffffff;strokeColor=#3700CC;" vertex="1" parent="S_xRD3oOY3vlIQlQ7VF_-946">
          <mxGeometry x="98.99999999999997" y="378" width="120" height="60" as="geometry" />
        </mxCell>
        <mxCell id="S_xRD3oOY3vlIQlQ7VF_-976" value="Click chọn &quot;OK&quot;" style="rounded=1;whiteSpace=wrap;html=1;fillColor=#6a00ff;fontColor=#ffffff;strokeColor=#3700CC;" vertex="1" parent="S_xRD3oOY3vlIQlQ7VF_-946">
          <mxGeometry x="98.99999999999997" y="495" width="120" height="60" as="geometry" />
        </mxCell>
        <mxCell id="S_xRD3oOY3vlIQlQ7VF_-965" style="edgeStyle=orthogonalEdgeStyle;rounded=0;orthogonalLoop=1;jettySize=auto;html=1;entryX=0.5;entryY=0;entryDx=0;entryDy=0;" edge="1" parent="S_xRD3oOY3vlIQlQ7VF_-946" source="S_xRD3oOY3vlIQlQ7VF_-966" target="S_xRD3oOY3vlIQlQ7VF_-976">
          <mxGeometry relative="1" as="geometry" />
        </mxCell>
        <mxCell id="S_xRD3oOY3vlIQlQ7VF_-1017" style="edgeStyle=orthogonalEdgeStyle;rounded=0;orthogonalLoop=1;jettySize=auto;html=1;entryX=0.5;entryY=0;entryDx=0;entryDy=0;" edge="1" parent="S_xRD3oOY3vlIQlQ7VF_-946" source="S_xRD3oOY3vlIQlQ7VF_-1015" target="S_xRD3oOY3vlIQlQ7VF_-952">
          <mxGeometry relative="1" as="geometry" />
        </mxCell>
        <mxCell id="S_xRD3oOY3vlIQlQ7VF_-1015" value="" style="ellipse;html=1;shape=startState;fillColor=#008a00;strokeColor=#005700;fontColor=#ffffff;" vertex="1" parent="S_xRD3oOY3vlIQlQ7VF_-946">
          <mxGeometry x="138.75" y="36" width="30" height="30" as="geometry" />
        </mxCell>
        <mxCell id="S_xRD3oOY3vlIQlQ7VF_-954" style="edgeStyle=orthogonalEdgeStyle;rounded=0;orthogonalLoop=1;jettySize=auto;html=1;exitX=0.5;exitY=1;exitDx=0;exitDy=0;entryX=0.5;entryY=0;entryDx=0;entryDy=0;" edge="1" parent="S_xRD3oOY3vlIQlQ7VF_-945" source="S_xRD3oOY3vlIQlQ7VF_-955" target="S_xRD3oOY3vlIQlQ7VF_-953">
          <mxGeometry relative="1" as="geometry" />
        </mxCell>
        <mxCell id="S_xRD3oOY3vlIQlQ7VF_-1001" style="edgeStyle=orthogonalEdgeStyle;rounded=0;orthogonalLoop=1;jettySize=auto;html=1;exitX=1;exitY=0.5;exitDx=0;exitDy=0;entryX=0;entryY=0.75;entryDx=0;entryDy=0;" edge="1" parent="S_xRD3oOY3vlIQlQ7VF_-945" source="S_xRD3oOY3vlIQlQ7VF_-971" target="S_xRD3oOY3vlIQlQ7VF_-962">
          <mxGeometry relative="1" as="geometry" />
        </mxCell>
        <mxCell id="S_xRD3oOY3vlIQlQ7VF_-1002" style="edgeStyle=orthogonalEdgeStyle;rounded=0;orthogonalLoop=1;jettySize=auto;html=1;exitX=0.5;exitY=1;exitDx=0;exitDy=0;entryX=0;entryY=0.75;entryDx=0;entryDy=0;" edge="1" parent="S_xRD3oOY3vlIQlQ7VF_-945" source="S_xRD3oOY3vlIQlQ7VF_-971" target="S_xRD3oOY3vlIQlQ7VF_-964">
          <mxGeometry relative="1" as="geometry" />
        </mxCell>
        <mxCell id="S_xRD3oOY3vlIQlQ7VF_-956" style="edgeStyle=orthogonalEdgeStyle;rounded=0;orthogonalLoop=1;jettySize=auto;html=1;exitX=0;exitY=0.5;exitDx=0;exitDy=0;entryX=0.5;entryY=0;entryDx=0;entryDy=0;" edge="1" parent="S_xRD3oOY3vlIQlQ7VF_-945" source="S_xRD3oOY3vlIQlQ7VF_-958" target="S_xRD3oOY3vlIQlQ7VF_-960">
          <mxGeometry relative="1" as="geometry" />
        </mxCell>
        <mxCell id="S_xRD3oOY3vlIQlQ7VF_-959" style="edgeStyle=orthogonalEdgeStyle;rounded=0;orthogonalLoop=1;jettySize=auto;html=1;entryX=0.5;entryY=0;entryDx=0;entryDy=0;" edge="1" parent="S_xRD3oOY3vlIQlQ7VF_-945" source="S_xRD3oOY3vlIQlQ7VF_-960" target="S_xRD3oOY3vlIQlQ7VF_-966">
          <mxGeometry relative="1" as="geometry" />
        </mxCell>
        <mxCell id="S_xRD3oOY3vlIQlQ7VF_-982" style="edgeStyle=orthogonalEdgeStyle;rounded=0;orthogonalLoop=1;jettySize=auto;html=1;entryX=1;entryY=0.5;entryDx=0;entryDy=0;exitX=0.5;exitY=0;exitDx=0;exitDy=0;" edge="1" parent="S_xRD3oOY3vlIQlQ7VF_-945" source="S_xRD3oOY3vlIQlQ7VF_-983" target="S_xRD3oOY3vlIQlQ7VF_-966">
          <mxGeometry relative="1" as="geometry" />
        </mxCell>
        <mxCell id="S_xRD3oOY3vlIQlQ7VF_-1004" style="edgeStyle=orthogonalEdgeStyle;rounded=0;orthogonalLoop=1;jettySize=auto;html=1;exitX=0.5;exitY=1;exitDx=0;exitDy=0;entryX=0;entryY=0.75;entryDx=0;entryDy=0;" edge="1" parent="S_xRD3oOY3vlIQlQ7VF_-945" source="S_xRD3oOY3vlIQlQ7VF_-979" target="S_xRD3oOY3vlIQlQ7VF_-981">
          <mxGeometry relative="1" as="geometry" />
        </mxCell>
        <mxCell id="S_xRD3oOY3vlIQlQ7VF_-1008" style="edgeStyle=orthogonalEdgeStyle;rounded=0;orthogonalLoop=1;jettySize=auto;html=1;entryX=0;entryY=0.5;entryDx=0;entryDy=0;" edge="1" parent="S_xRD3oOY3vlIQlQ7VF_-945" source="S_xRD3oOY3vlIQlQ7VF_-979" target="S_xRD3oOY3vlIQlQ7VF_-983">
          <mxGeometry relative="1" as="geometry" />
        </mxCell>
        <mxCell id="S_xRD3oOY3vlIQlQ7VF_-1009" style="edgeStyle=orthogonalEdgeStyle;rounded=0;orthogonalLoop=1;jettySize=auto;html=1;exitX=1;exitY=0.5;exitDx=0;exitDy=0;entryX=0;entryY=0.5;entryDx=0;entryDy=0;" edge="1" parent="S_xRD3oOY3vlIQlQ7VF_-945" source="S_xRD3oOY3vlIQlQ7VF_-976" target="S_xRD3oOY3vlIQlQ7VF_-974">
          <mxGeometry relative="1" as="geometry" />
        </mxCell>
        <mxCell id="S_xRD3oOY3vlIQlQ7VF_-947" value="&lt;font style=&quot;font-size: 20px;&quot;&gt;System&lt;/font&gt;" style="swimlane;startSize=27;html=1;" vertex="1" parent="S_xRD3oOY3vlIQlQ7VF_-945">
          <mxGeometry x="318" y="36" width="398.41" height="747" as="geometry" />
        </mxCell>
        <mxCell id="S_xRD3oOY3vlIQlQ7VF_-999" style="edgeStyle=orthogonalEdgeStyle;rounded=0;orthogonalLoop=1;jettySize=auto;html=1;exitX=0.5;exitY=1;exitDx=0;exitDy=0;entryX=0.5;entryY=0;entryDx=0;entryDy=0;" edge="1" parent="S_xRD3oOY3vlIQlQ7VF_-947" source="S_xRD3oOY3vlIQlQ7VF_-953" target="S_xRD3oOY3vlIQlQ7VF_-958">
          <mxGeometry relative="1" as="geometry" />
        </mxCell>
        <mxCell id="S_xRD3oOY3vlIQlQ7VF_-953" value="Xác thực tài khoản" style="rounded=1;whiteSpace=wrap;html=1;fillColor=#1ba1e2;fontColor=#ffffff;strokeColor=#006EAF;" vertex="1" parent="S_xRD3oOY3vlIQlQ7VF_-947">
          <mxGeometry x="15" y="108" width="201.25" height="51" as="geometry" />
        </mxCell>
        <mxCell id="S_xRD3oOY3vlIQlQ7VF_-957" style="edgeStyle=orthogonalEdgeStyle;rounded=0;orthogonalLoop=1;jettySize=auto;html=1;exitX=1;exitY=0.5;exitDx=0;exitDy=0;entryX=0.5;entryY=0;entryDx=0;entryDy=0;" edge="1" parent="S_xRD3oOY3vlIQlQ7VF_-947" source="S_xRD3oOY3vlIQlQ7VF_-958" target="S_xRD3oOY3vlIQlQ7VF_-971">
          <mxGeometry relative="1" as="geometry">
            <Array as="points">
              <mxPoint x="231" y="230" />
              <mxPoint x="231" y="88" />
              <mxPoint x="329" y="88" />
            </Array>
          </mxGeometry>
        </mxCell>
        <mxCell id="S_xRD3oOY3vlIQlQ7VF_-958" value="" style="rhombus;whiteSpace=wrap;html=1;fillColor=#d80073;fontColor=#ffffff;strokeColor=#A50040;" vertex="1" parent="S_xRD3oOY3vlIQlQ7VF_-947">
          <mxGeometry x="99.24999999999997" y="216" width="34" height="27" as="geometry" />
        </mxCell>
        <mxCell id="S_xRD3oOY3vlIQlQ7VF_-971" value="" style="rhombus;whiteSpace=wrap;html=1;fillColor=#d80073;fontColor=#ffffff;strokeColor=#A50040;" vertex="1" parent="S_xRD3oOY3vlIQlQ7VF_-947">
          <mxGeometry x="312" y="108" width="34" height="27" as="geometry" />
        </mxCell>
        <mxCell id="S_xRD3oOY3vlIQlQ7VF_-973" style="edgeStyle=orthogonalEdgeStyle;rounded=0;orthogonalLoop=1;jettySize=auto;html=1;exitX=1;exitY=0.5;exitDx=0;exitDy=0;entryX=0;entryY=0.5;entryDx=0;entryDy=0;" edge="1" parent="S_xRD3oOY3vlIQlQ7VF_-947" source="S_xRD3oOY3vlIQlQ7VF_-974" target="S_xRD3oOY3vlIQlQ7VF_-979">
          <mxGeometry relative="1" as="geometry" />
        </mxCell>
        <mxCell id="S_xRD3oOY3vlIQlQ7VF_-974" value="" style="rhombus;whiteSpace=wrap;html=1;fillColor=#d80073;fontColor=#ffffff;strokeColor=#A50040;" vertex="1" parent="S_xRD3oOY3vlIQlQ7VF_-947">
          <mxGeometry x="89.24999999999997" y="477" width="34" height="27" as="geometry" />
        </mxCell>
        <mxCell id="S_xRD3oOY3vlIQlQ7VF_-979" value="" style="rhombus;whiteSpace=wrap;html=1;fillColor=#d80073;fontColor=#ffffff;strokeColor=#A50040;" vertex="1" parent="S_xRD3oOY3vlIQlQ7VF_-947">
          <mxGeometry x="204" y="477" width="34" height="27" as="geometry" />
        </mxCell>
        <mxCell id="S_xRD3oOY3vlIQlQ7VF_-985" value="không hợp lệ" style="text;html=1;align=center;verticalAlign=middle;resizable=0;points=[];autosize=1;strokeColor=none;fillColor=none;" vertex="1" parent="S_xRD3oOY3vlIQlQ7VF_-947">
          <mxGeometry x="126.24999999999997" y="198" width="90" height="27" as="geometry" />
        </mxCell>
        <mxCell id="S_xRD3oOY3vlIQlQ7VF_-986" value="Tài khoản user?" style="text;html=1;align=center;verticalAlign=middle;resizable=0;points=[];autosize=1;strokeColor=none;fillColor=none;" vertex="1" parent="S_xRD3oOY3vlIQlQ7VF_-947">
          <mxGeometry x="222" y="54" width="108" height="27" as="geometry" />
        </mxCell>
        <mxCell id="S_xRD3oOY3vlIQlQ7VF_-987" value="đúng" style="text;html=1;align=center;verticalAlign=middle;resizable=0;points=[];autosize=1;strokeColor=none;fillColor=none;" vertex="1" parent="S_xRD3oOY3vlIQlQ7VF_-947">
          <mxGeometry x="330" y="162" width="45" height="27" as="geometry" />
        </mxCell>
        <mxCell id="S_xRD3oOY3vlIQlQ7VF_-988" value="sai" style="text;html=1;align=center;verticalAlign=middle;resizable=0;points=[];autosize=1;strokeColor=none;fillColor=none;" vertex="1" parent="S_xRD3oOY3vlIQlQ7VF_-947">
          <mxGeometry x="339" y="99" width="36" height="27" as="geometry" />
        </mxCell>
        <mxCell id="S_xRD3oOY3vlIQlQ7VF_-989" value="có trường bỏ trống?" style="text;html=1;align=center;verticalAlign=middle;resizable=0;points=[];autosize=1;strokeColor=none;fillColor=none;" vertex="1" parent="S_xRD3oOY3vlIQlQ7VF_-947">
          <mxGeometry x="7.249999999999943" y="441" width="126" height="27" as="geometry" />
        </mxCell>
        <mxCell id="S_xRD3oOY3vlIQlQ7VF_-991" value="sai" style="text;html=1;align=center;verticalAlign=middle;resizable=0;points=[];autosize=1;strokeColor=none;fillColor=none;" vertex="1" parent="S_xRD3oOY3vlIQlQ7VF_-947">
          <mxGeometry x="133.24999999999997" y="468" width="36" height="27" as="geometry" />
        </mxCell>
        <mxCell id="S_xRD3oOY3vlIQlQ7VF_-992" value="Tên người dùng bị trùng?" style="text;html=1;align=center;verticalAlign=middle;resizable=0;points=[];autosize=1;strokeColor=none;fillColor=none;" vertex="1" parent="S_xRD3oOY3vlIQlQ7VF_-947">
          <mxGeometry x="139.99999999999994" y="441" width="162" height="27" as="geometry" />
        </mxCell>
        <mxCell id="S_xRD3oOY3vlIQlQ7VF_-993" value="sai" style="text;html=1;align=center;verticalAlign=middle;resizable=0;points=[];autosize=1;strokeColor=none;fillColor=none;" vertex="1" parent="S_xRD3oOY3vlIQlQ7VF_-947">
          <mxGeometry x="222" y="531" width="36" height="27" as="geometry" />
        </mxCell>
        <mxCell id="S_xRD3oOY3vlIQlQ7VF_-994" value="đúng" style="text;html=1;align=center;verticalAlign=middle;resizable=0;points=[];autosize=1;strokeColor=none;fillColor=none;" vertex="1" parent="S_xRD3oOY3vlIQlQ7VF_-947">
          <mxGeometry x="113.99999999999997" y="558" width="45" height="27" as="geometry" />
        </mxCell>
        <mxCell id="S_xRD3oOY3vlIQlQ7VF_-990" value="đúng" style="text;html=1;align=center;verticalAlign=middle;resizable=0;points=[];autosize=1;strokeColor=none;fillColor=none;" vertex="1" parent="S_xRD3oOY3vlIQlQ7VF_-947">
          <mxGeometry x="301" y="468" width="45" height="27" as="geometry" />
        </mxCell>
        <mxCell id="S_xRD3oOY3vlIQlQ7VF_-1019" value="hợp lệ" style="text;html=1;align=center;verticalAlign=middle;resizable=0;points=[];autosize=1;strokeColor=none;fillColor=none;" vertex="1" parent="S_xRD3oOY3vlIQlQ7VF_-947">
          <mxGeometry x="79.25" y="270" width="54" height="27" as="geometry" />
        </mxCell>
        <mxCell id="S_xRD3oOY3vlIQlQ7VF_-948" value="&lt;font style=&quot;font-size: 20px;&quot;&gt;User Interface&lt;/font&gt;" style="swimlane;startSize=27;html=1;" vertex="1" parent="S_xRD3oOY3vlIQlQ7VF_-945">
          <mxGeometry x="716.4100000000001" y="36" width="285.59" height="747" as="geometry" />
        </mxCell>
        <mxCell id="S_xRD3oOY3vlIQlQ7VF_-962" value="Thông báo &quot;Không hợp lệ vui lòng thử lại sau!&quot;" style="rounded=1;whiteSpace=wrap;html=1;fillColor=#1ba1e2;fontColor=#ffffff;strokeColor=#006EAF;" vertex="1" parent="S_xRD3oOY3vlIQlQ7VF_-948">
          <mxGeometry x="61.59000000000003" y="45" width="120" height="60" as="geometry" />
        </mxCell>
        <mxCell id="S_xRD3oOY3vlIQlQ7VF_-984" value="" style="ellipse;html=1;shape=endState;fillColor=#008a00;strokeColor=#005700;fontColor=#ffffff;" vertex="1" parent="S_xRD3oOY3vlIQlQ7VF_-948">
          <mxGeometry x="240.59000000000003" y="366" width="30" height="30" as="geometry" />
        </mxCell>
        <mxCell id="S_xRD3oOY3vlIQlQ7VF_-961" style="edgeStyle=orthogonalEdgeStyle;rounded=0;orthogonalLoop=1;jettySize=auto;html=1;exitX=1;exitY=0.5;exitDx=0;exitDy=0;entryX=0.5;entryY=0;entryDx=0;entryDy=0;" edge="1" parent="S_xRD3oOY3vlIQlQ7VF_-948" source="S_xRD3oOY3vlIQlQ7VF_-962" target="S_xRD3oOY3vlIQlQ7VF_-984">
          <mxGeometry relative="1" as="geometry" />
        </mxCell>
        <mxCell id="S_xRD3oOY3vlIQlQ7VF_-964" value="Thông báo &quot;Bạn không có quyền tạo tài khoản!&quot;" style="rounded=1;whiteSpace=wrap;html=1;fillColor=#1ba1e2;fontColor=#ffffff;strokeColor=#006EAF;" vertex="1" parent="S_xRD3oOY3vlIQlQ7VF_-948">
          <mxGeometry x="69.59" y="180" width="120" height="60" as="geometry" />
        </mxCell>
        <mxCell id="S_xRD3oOY3vlIQlQ7VF_-981" value="Thông báo &quot;Đã tạo tài khoản thành công&quot;" style="rounded=1;whiteSpace=wrap;html=1;fillColor=#1ba1e2;fontColor=#ffffff;strokeColor=#006EAF;" vertex="1" parent="S_xRD3oOY3vlIQlQ7VF_-948">
          <mxGeometry x="60.59000000000003" y="549" width="120" height="60" as="geometry" />
        </mxCell>
        <mxCell id="S_xRD3oOY3vlIQlQ7VF_-980" style="edgeStyle=orthogonalEdgeStyle;rounded=0;orthogonalLoop=1;jettySize=auto;html=1;entryX=0.5;entryY=1;entryDx=0;entryDy=0;" edge="1" parent="S_xRD3oOY3vlIQlQ7VF_-948" source="S_xRD3oOY3vlIQlQ7VF_-981" target="S_xRD3oOY3vlIQlQ7VF_-984">
          <mxGeometry relative="1" as="geometry" />
        </mxCell>
        <mxCell id="S_xRD3oOY3vlIQlQ7VF_-960" value="Chuyển màn hình đến giao diện &quot;TẠO TÀI KHOẢN MỚI" style="rounded=1;whiteSpace=wrap;html=1;fillColor=#1ba1e2;fontColor=#ffffff;strokeColor=#006EAF;" vertex="1" parent="S_xRD3oOY3vlIQlQ7VF_-948">
          <mxGeometry x="60.59000000000003" y="306" width="126" height="60" as="geometry" />
        </mxCell>
        <mxCell id="S_xRD3oOY3vlIQlQ7VF_-983" value="Thông báo &quot;Tên người dùng đã tồn tại&quot;" style="rounded=1;whiteSpace=wrap;html=1;fillColor=#1ba1e2;fontColor=#ffffff;strokeColor=#006EAF;" vertex="1" parent="S_xRD3oOY3vlIQlQ7VF_-948">
          <mxGeometry x="64.09000000000003" y="460.5" width="120" height="60" as="geometry" />
        </mxCell>
        <mxCell id="S_xRD3oOY3vlIQlQ7VF_-968" value="Thông báo &quot;Vui lòng không bỏ trống thông tin!&quot;" style="rounded=1;whiteSpace=wrap;html=1;fillColor=#1ba1e2;fontColor=#ffffff;strokeColor=#006EAF;" vertex="1" parent="S_xRD3oOY3vlIQlQ7VF_-948">
          <mxGeometry x="60.59000000000003" y="639" width="115" height="60" as="geometry" />
        </mxCell>
        <mxCell id="S_xRD3oOY3vlIQlQ7VF_-1010" style="edgeStyle=orthogonalEdgeStyle;rounded=0;orthogonalLoop=1;jettySize=auto;html=1;exitX=0.5;exitY=1;exitDx=0;exitDy=0;entryX=0;entryY=0.5;entryDx=0;entryDy=0;" edge="1" parent="S_xRD3oOY3vlIQlQ7VF_-945" source="S_xRD3oOY3vlIQlQ7VF_-974" target="S_xRD3oOY3vlIQlQ7VF_-968">
          <mxGeometry relative="1" as="geometry" />
        </mxCell>
        <mxCell id="S_xRD3oOY3vlIQlQ7VF_-1025" style="edgeStyle=orthogonalEdgeStyle;rounded=0;orthogonalLoop=1;jettySize=auto;html=1;entryX=0;entryY=0.5;entryDx=0;entryDy=0;exitX=0.5;exitY=1;exitDx=0;exitDy=0;" edge="1" parent="S_xRD3oOY3vlIQlQ7VF_-945" source="S_xRD3oOY3vlIQlQ7VF_-968" target="S_xRD3oOY3vlIQlQ7VF_-966">
          <mxGeometry relative="1" as="geometry">
            <mxPoint x="770" y="738.04347826087" as="sourcePoint" />
            <mxPoint x="92" y="476.9999999999991" as="targetPoint" />
          </mxGeometry>
        </mxCell>
        <mxCell id="S_xRD3oOY3vlIQlQ7VF_-1018" value="Sequence diagram" style="text;html=1;align=center;verticalAlign=middle;whiteSpace=wrap;rounded=0;" vertex="1" parent="1">
          <mxGeometry x="-667" y="7551" width="127" height="30" as="geometry" />
        </mxCell>
        <mxCell id="S_xRD3oOY3vlIQlQ7VF_-1026" value="không hợp lệ" style="text;html=1;align=center;verticalAlign=middle;resizable=0;points=[];autosize=1;strokeColor=none;fillColor=none;" vertex="1" parent="1">
          <mxGeometry x="696" y="6021" width="90" height="27" as="geometry" />
        </mxCell>
        <mxCell id="S_xRD3oOY3vlIQlQ7VF_-1027" value="hợp lệ" style="text;html=1;align=center;verticalAlign=middle;resizable=0;points=[];autosize=1;strokeColor=none;fillColor=none;" vertex="1" parent="1">
          <mxGeometry x="705" y="6111" width="54" height="27" as="geometry" />
        </mxCell>
      </root>
    </mxGraphModel>
  </diagram>
</mxfile>
